<svg xmlns="http://www.w3.org/2000/svg" xmlns:xlink="http://www.w3.org/1999/xlink" width="1920" height="1080" viewBox="0 0 1920 1080">
  <defs>
    <clipPath id="clip-items">
      <rect width="1920" height="1080"/>
    </clipPath>
  </defs>
  <g id="items" clip-path="url(#clip-items)">
    <rect width="1920" height="1080" fill="#f8ecec"/>
    <g id="Layer_1-2" transform="translate(247.469 349.75)">
      <g id="Group_13" data-name="Group 13">
        <path id="Path_12" data-name="Path 12" d="M140.73,272.01V251.68s12.14-29.09,13.38-38.97,1.44-72.73-6.69-91.33c0,0-7.71-28.42-6.69-38.95,0,0,3.01-37.53,6.96-46.88s-10.88-14.29-10.88-14.29-18.53-3.71-22.23-7.41S94.81,1.5,89.87,1.5s-9.88,8.65-19.76,11.12c0,0-25.94,1.24-28.41,11.12s0,24.7,2.47,30.88c0,0-1.24,33.35,0,45.7s-12.35,45.7-12.35,82.76-1.24,29.64,3.71,43.23,19.76,37.06,22.23,42,.93,3.71.93,3.71h82.04Z" fill="none" stroke="#139ae5" stroke-miterlimit="10" stroke-width="3"/>
        <g id="Group_11" data-name="Group 11">
          <path id="Path_13" data-name="Path 13" d="M48.09,79.32H42.12S44.38,68.2,25.85,68.2c0,0-13.31,0-14.07,11.12s.48,19.76,15.3,18.53c0,0,12.35,1.24,13.59-9.88l7.41-.76V79.32Z" fill="none" stroke="#139ae5" stroke-miterlimit="10" stroke-width="1"/>
          <path id="Path_14" data-name="Path 14" d="M41.91,132.47H35.94s2.26-9.92-16.27-9.92c0,0-13.31,0-14.07,9.92S6.08,150.1,20.9,149c0,0,12.35,1.1,13.59-8.82l7.41-.68v-7.04Z" fill="none" stroke="#139ae5" stroke-miterlimit="10" stroke-width="1"/>
          <path id="Path_15" data-name="Path 15" d="M36.97,181.84H31s2.26-9.92-16.27-9.92c0,0-13.31,0-14.07,9.92s.48,17.63,15.3,16.53c0,0,12.35,1.1,13.59-8.82l7.41-.68v-7.04Z" fill="none" stroke="#139ae5" stroke-miterlimit="10" stroke-width="1"/>
        </g>
        <g id="Group_12" data-name="Group 12">
          <path id="Path_16" data-name="Path 16" d="M138.84,79.32h5.97S142.55,68.2,161.08,68.2c0,0,13.31,0,14.07,11.12s-.48,19.76-15.3,18.53c0,0-12.35,1.24-13.59-9.88l-7.41-.76V79.32Z" fill="none" stroke="#139ae5" stroke-miterlimit="10" stroke-width="1"/>
          <path id="Path_17" data-name="Path 17" d="M145.02,132.47h5.97s-2.26-9.92,16.27-9.92c0,0,13.31,0,14.07,9.92s-.48,17.63-15.3,16.53c0,0-12.35,1.1-13.59-8.82l-7.41-.68v-7.04Z" fill="none" stroke="#139ae5" stroke-miterlimit="10" stroke-width="1"/>
          <path id="Path_18" data-name="Path 18" d="M149.96,181.84h5.97s-2.26-9.92,16.27-9.92c0,0,13.31,0,14.07,9.92s-.48,17.63-15.3,16.53c0,0-12.35,1.1-13.59-8.82l-7.41-.68v-7.04Z" fill="none" stroke="#139ae5" stroke-miterlimit="10" stroke-width="1"/>
        </g>
        <line id="Line_18" data-name="Line 18" y2="99.57" transform="translate(66.61 279.43)" fill="none" stroke="#139ae5" stroke-miterlimit="10" stroke-width="3"/>
        <line id="Line_19" data-name="Line 19" y2="99.57" transform="translate(133.31 279.43)" fill="none" stroke="#139ae5" stroke-miterlimit="10" stroke-width="3"/>
        <line id="Line_20" data-name="Line 20" y2="99.57" transform="translate(123.43 279.43)" fill="none" stroke="#139ae5" stroke-miterlimit="10" stroke-width="1"/>
        <line id="Line_21" data-name="Line 21" y2="99.57" transform="translate(113.55 279.43)" fill="none" stroke="#139ae5" stroke-miterlimit="10" stroke-width="1"/>
        <line id="Line_22" data-name="Line 22" y2="99.57" transform="translate(106.14 279.43)" fill="none" stroke="#139ae5" stroke-miterlimit="10" stroke-width="1"/>
        <line id="Line_23" data-name="Line 23" y2="99.57" transform="translate(96.26 279.43)" fill="none" stroke="#139ae5" stroke-miterlimit="10" stroke-width="1"/>
        <line id="Line_24" data-name="Line 24" y2="99.57" transform="translate(86.38 279.43)" fill="none" stroke="#139ae5" stroke-miterlimit="10" stroke-width="1"/>
        <line id="Line_25" data-name="Line 25" y2="99.57" transform="translate(75.26 279.43)" fill="none" stroke="#139ae5" stroke-miterlimit="10" stroke-width="1"/>
        <circle id="Ellipse_15" data-name="Ellipse 15" cx="4.94" cy="4.94" r="4.94" transform="translate(51.79 188.02)" fill="none" stroke="#139ae5" stroke-miterlimit="10" stroke-width="1"/>
        <circle id="Ellipse_16" data-name="Ellipse 16" cx="4.94" cy="4.94" r="4.94" transform="translate(128.37 184.32)" fill="none" stroke="#139ae5" stroke-miterlimit="10" stroke-width="1"/>
        <circle id="Ellipse_17" data-name="Ellipse 17" cx="4.94" cy="4.94" r="4.94" transform="translate(51.79 131.2)" fill="none" stroke="#139ae5" stroke-miterlimit="10" stroke-width="1"/>
        <circle id="Ellipse_18" data-name="Ellipse 18" cx="4.94" cy="4.94" r="4.94" transform="translate(123.43 131.2)" fill="none" stroke="#139ae5" stroke-miterlimit="10" stroke-width="1"/>
        <circle id="Ellipse_19" data-name="Ellipse 19" cx="4.94" cy="4.94" r="4.94" transform="translate(56.73 78.09)" fill="none" stroke="#139ae5" stroke-miterlimit="10" stroke-width="1"/>
        <circle id="Ellipse_20" data-name="Ellipse 20" cx="4.94" cy="4.94" r="4.94" transform="translate(113.55 78.09)" fill="none" stroke="#139ae5" stroke-miterlimit="10" stroke-width="1"/>
        <path id="Path_19" data-name="Path 19" d="M56.73,192.96s18.53,63.79,18.53,108.08" fill="none" stroke="#139ae5" stroke-miterlimit="10" stroke-width="1"/>
        <path id="Path_20" data-name="Path 20" d="M132.08,188.02s-9.26,63.79-9.26,108.08" fill="none" stroke="#139ae5" stroke-miterlimit="10" stroke-width="1"/>
        <path id="Path_21" data-name="Path 21" d="M57.97,138.61S87,251.25,87,329.45" fill="none" stroke="#139ae5" stroke-miterlimit="10" stroke-width="1"/>
        <path id="Path_22" data-name="Path 22" d="M127.76,136.14s-13.59,112.64-13.59,190.84" fill="none" stroke="#139ae5" stroke-miterlimit="10" stroke-width="1"/>
        <path id="Path_23" data-name="Path 23" d="M61.67,83.03S95.64,216.81,95.64,309.69" fill="none" stroke="#139ae5" stroke-miterlimit="10" stroke-width="1"/>
        <path id="Path_24" data-name="Path 24" d="M119.11,80.56s-13.59,133.78-13.59,226.66" fill="none" stroke="#139ae5" stroke-miterlimit="10" stroke-width="1"/>
      </g>
    </g>
    <g id="Layer_1-2-2" data-name="Layer_1-2" transform="translate(863.088 311.18)">
      <g id="Group_17" data-name="Group 17" transform="translate(3.08 2.995)">
        <path id="Path_25" data-name="Path 25" d="M3.08,454.645H77.765l6.353-174.6,3.478-79.3,4.87-64.692,5.22-32,3.828,30.957,7.649,68.17,3.128,79.646L116.2,454.639h74.543l-8.154-350.59L173.155,9.792S67.766-5.505,21.855,9.8l-9.384,93.907Z" transform="translate(-3.08 -2.995)" fill="none" stroke="#139ae5" stroke-miterlimit="10" stroke-width="6"/>
        <g id="Group_14" data-name="Group 14" transform="translate(23.831 8.182)">
          <rect id="Rectangle_6" data-name="Rectangle 6" width="5.22" height="22.952" transform="translate(2.1) rotate(5.25)" fill="none" stroke="#139ae5" stroke-miterlimit="10" stroke-width="6"/>
          <rect id="Rectangle_7" data-name="Rectangle 7" width="5.22" height="22.952" transform="translate(39.994 2.624)" fill="none" stroke="#139ae5" stroke-miterlimit="10" stroke-width="6"/>
          <rect id="Rectangle_8" data-name="Rectangle 8" width="5.22" height="22.952" transform="translate(96.76 2.775) rotate(-3.13)" fill="none" stroke="#139ae5" stroke-miterlimit="10" stroke-width="6"/>
          <rect id="Rectangle_9" data-name="Rectangle 9" width="5.22" height="22.952" transform="translate(135.707 0.934) rotate(-6.72)" fill="none" stroke="#139ae5" stroke-miterlimit="10" stroke-width="6"/>
        </g>
        <path id="Path_26" data-name="Path 26" d="M29.67,35.459s74.433,5.563,84.866,5.22,67.367-4.52,68.293-5.22S180.97,18.07,180.97,18.07s-62.956,5.22-68.863,5.22c0,0-76.045-4.52-79.238-5.22L29.676,35.459Z" transform="translate(-12.449 -8.307)" fill="none" stroke="#139ae5" stroke-miterlimit="10" stroke-width="6"/>
        <g id="Group_16" data-name="Group 16" transform="translate(91.996 18.111)">
          <g id="Group_15" data-name="Group 15" transform="translate(3.821 4.054)">
            <ellipse id="Ellipse_21" data-name="Ellipse 21" cx="0.771" cy="0.699" rx="0.771" ry="0.699" transform="translate(0 2.202)" fill="none" stroke="#139ae5" stroke-miterlimit="10" stroke-width="1"/>
            <ellipse id="Ellipse_22" data-name="Ellipse 22" cx="0.771" cy="0.699" rx="0.771" ry="0.699" fill="none" stroke="#139ae5" stroke-miterlimit="10" stroke-width="1"/>
            <ellipse id="Ellipse_23" data-name="Ellipse 23" cx="0.771" cy="0.699" rx="0.771" ry="0.699" transform="translate(2.636)" fill="none" stroke="#139ae5" stroke-miterlimit="10" stroke-width="1"/>
            <ellipse id="Ellipse_24" data-name="Ellipse 24" cx="0.771" cy="0.699" rx="0.771" ry="0.699" transform="translate(2.636 2.202)" fill="none" stroke="#139ae5" stroke-miterlimit="10" stroke-width="1"/>
          </g>
          <circle id="Ellipse_25" data-name="Ellipse 25" cx="5.738" cy="5.738" r="5.738" fill="none" stroke="#3c94c6" stroke-miterlimit="10" stroke-width="2"/>
        </g>
      </g>
    </g>
    <g id="Layer_1-2-3" data-name="Layer_1-2" transform="translate(1335.726 311.675)">
      <g id="Group_25" data-name="Group 25" transform="translate(2.5 2.5)">
        <g id="Group_18" data-name="Group 18" transform="translate(101.217 106.321)">
          <circle id="Ellipse_26" data-name="Ellipse 26" cx="20.414" cy="20.414" r="20.414" fill="none" stroke="#139ae5" stroke-miterlimit="10" stroke-width="2"/>
          <line id="Line_26" data-name="Line 26" x1="9.356" y1="1.701" transform="translate(0 20.414)" fill="none" stroke="#139ae5" stroke-miterlimit="10" stroke-width="3"/>
        </g>
        <g id="Group_19" data-name="Group 19" transform="translate(193.929 106.321)">
          <circle id="Ellipse_27" data-name="Ellipse 27" cx="20.414" cy="20.414" r="20.414" fill="none" stroke="#139ae5" stroke-miterlimit="10" stroke-width="2"/>
          <line id="Line_27" data-name="Line 27" y1="5.588" x2="7.698" transform="translate(26.818 5.656)" fill="none" stroke="#139ae5" stroke-miterlimit="10" stroke-width="3"/>
        </g>
        <g id="Group_20" data-name="Group 20" transform="translate(304.502 106.321)">
          <circle id="Ellipse_28" data-name="Ellipse 28" cx="20.414" cy="20.414" r="20.414" fill="none" stroke="#139ae5" stroke-miterlimit="10" stroke-width="2"/>
          <line id="Line_28" data-name="Line 28" y1="9.39" x2="1.523" transform="translate(18.508)" fill="none" stroke="#139ae5" stroke-miterlimit="10" stroke-width="3"/>
        </g>
        <g id="Group_21" data-name="Group 21">
          <path id="Path_27" data-name="Path 27" d="M37.373,454.15l378.5-3.4s15.31,1.7,17.011-15.31L451.6,62.04s3.4-5.1-8.506-17.862L425.231,10.155S423.53,5.9,411.622,2.5H37.373a16.969,16.969,0,0,0-13.609,8.506L2.5,58.637V74.977L21.212,437.989S21.212,451.6,37.373,454.15Z" transform="translate(-2.5 -2.5)" fill="none" stroke="#139ae5" stroke-miterlimit="10" stroke-width="5"/>
          <path id="Path_28" data-name="Path 28" d="M398.564,425.169,414.725,96H54.57L68.545,426.019Z" transform="translate(-10.281 -16.472)" fill="none" stroke="#139ae5" stroke-miterlimit="10" stroke-width="5"/>
        </g>
        <line id="Line_29" data-name="Line 29" x1="318.86" transform="translate(68.573 160.332)" fill="none" stroke="#139ae5" stroke-miterlimit="10" stroke-width="5"/>
        <g id="Group_22" data-name="Group 22" transform="translate(84.112 91.555)">
          <line id="Line_30" data-name="Line 30" y1="3.028" x2="10.394" transform="translate(0 34.516)" fill="none" stroke="#139ae5" stroke-miterlimit="10" stroke-width="1"/>
          <line id="Line_31" data-name="Line 31" x2="10.36" y2="3.147" transform="translate(62.959 34.456)" fill="none" stroke="#139ae5" stroke-miterlimit="10" stroke-width="1"/>
          <line id="Line_32" data-name="Line 32" x2="9.594" y2="5.001" transform="translate(8.905 10.564)" fill="none" stroke="#139ae5" stroke-miterlimit="10" stroke-width="1"/>
          <line id="Line_33" data-name="Line 33" y2="10.819" transform="translate(37.518)" fill="none" stroke="#139ae5" stroke-miterlimit="10" stroke-width="1"/>
          <line id="Line_34" data-name="Line 34" x1="8.761" y2="6.362" transform="translate(55.253 9.884)" fill="none" stroke="#139ae5" stroke-miterlimit="10" stroke-width="1"/>
        </g>
        <g id="Group_23" data-name="Group 23" transform="translate(177.675 91.555)">
          <line id="Line_35" data-name="Line 35" y1="3.028" x2="10.394" transform="translate(0 34.516)" fill="none" stroke="#139ae5" stroke-miterlimit="10" stroke-width="1"/>
          <line id="Line_36" data-name="Line 36" x2="10.36" y2="3.147" transform="translate(62.959 34.456)" fill="none" stroke="#139ae5" stroke-miterlimit="10" stroke-width="1"/>
          <line id="Line_37" data-name="Line 37" x2="9.594" y2="5.001" transform="translate(8.905 10.564)" fill="none" stroke="#139ae5" stroke-miterlimit="10" stroke-width="1"/>
          <line id="Line_38" data-name="Line 38" y2="10.819" transform="translate(37.518)" fill="none" stroke="#139ae5" stroke-miterlimit="10" stroke-width="1"/>
          <line id="Line_39" data-name="Line 39" x1="8.761" y2="6.362" transform="translate(55.253 9.884)" fill="none" stroke="#139ae5" stroke-miterlimit="10" stroke-width="1"/>
        </g>
        <g id="Group_24" data-name="Group 24" transform="translate(288.248 91.555)">
          <line id="Line_40" data-name="Line 40" y1="3.028" x2="10.394" transform="translate(0 34.516)" fill="none" stroke="#139ae5" stroke-miterlimit="10" stroke-width="1"/>
          <line id="Line_41" data-name="Line 41" x2="10.36" y2="3.147" transform="translate(62.959 34.456)" fill="none" stroke="#139ae5" stroke-miterlimit="10" stroke-width="1"/>
          <line id="Line_42" data-name="Line 42" x2="9.594" y2="5.001" transform="translate(8.905 10.564)" fill="none" stroke="#139ae5" stroke-miterlimit="10" stroke-width="1"/>
          <line id="Line_43" data-name="Line 43" y2="10.819" transform="translate(37.518)" fill="none" stroke="#139ae5" stroke-miterlimit="10" stroke-width="1"/>
          <line id="Line_44" data-name="Line 44" x1="8.761" y2="6.362" transform="translate(55.253 9.884)" fill="none" stroke="#139ae5" stroke-miterlimit="10" stroke-width="1"/>
        </g>
      </g>
    </g>
    <line id="Line_45" data-name="Line 45" y1="1080" transform="translate(639.5)" fill="none" stroke="#707070" stroke-width="1"/>
    <line id="Line_46" data-name="Line 46" y1="1080" transform="translate(1263.152)" fill="none" stroke="#707070" stroke-width="1"/>
  </g>
</svg>
