<svg xmlns="http://www.w3.org/2000/svg" xmlns:xlink="http://www.w3.org/1999/xlink" width="1920" height="1080" viewBox="0 0 1920 1080">
  <defs>
    <clipPath id="clip-vectors">
      <rect width="1920" height="1080"/>
    </clipPath>
  </defs>
  <g id="vectors" clip-path="url(#clip-vectors)">
    <rect width="1920" height="1080" fill="#f8ecec"/>
    <g id="Group_50" data-name="Group 50">
      <g id="Ellipse_1" data-name="Ellipse 1" transform="translate(210 180)" fill="#bc002d" stroke="#707070" stroke-width="1">
        <circle cx="86.5" cy="86.5" r="86.5" stroke="none"/>
        <circle cx="86.5" cy="86.5" r="86" fill="none"/>
      </g>
      <g id="Ellipse_7" data-name="Ellipse 7" transform="translate(474 106)" stroke="#707070" stroke-width="1">
        <circle cx="155" cy="155" r="155" stroke="none"/>
        <circle cx="155" cy="155" r="154.5" fill="none"/>
      </g>
      <g id="Ellipse_3" data-name="Ellipse 3" transform="translate(538 170)" fill="none" stroke="#676767" stroke-width="2">
        <circle cx="91" cy="91" r="91" stroke="none"/>
        <circle cx="91" cy="91" r="90" fill="none"/>
      </g>
      <g id="Ellipse_4" data-name="Ellipse 4" transform="translate(534 167)" fill="none" stroke="#676767" stroke-width="2">
        <ellipse cx="95" cy="94.5" rx="95" ry="94.5" stroke="none"/>
        <ellipse cx="95" cy="94.5" rx="94" ry="93.5" fill="none"/>
      </g>
      <g id="Ellipse_5" data-name="Ellipse 5" transform="translate(528 160)" fill="none" stroke="#676767" stroke-width="2">
        <circle cx="101" cy="101" r="101" stroke="none"/>
        <circle cx="101" cy="101" r="100" fill="none"/>
      </g>
      <g id="Ellipse_6" data-name="Ellipse 6" transform="translate(523 154)" fill="none" stroke="#676767" stroke-width="2">
        <ellipse cx="106.5" cy="107" rx="106.5" ry="107" stroke="none"/>
        <ellipse cx="106.5" cy="107" rx="105.5" ry="106" fill="none"/>
      </g>
      <g id="Ellipse_8" data-name="Ellipse 8" transform="translate(513 145)" fill="none" stroke="#676767" stroke-width="2">
        <circle cx="116.5" cy="116.5" r="116.5" stroke="none"/>
        <circle cx="116.5" cy="116.5" r="115.5" fill="none"/>
      </g>
      <g id="Ellipse_9" data-name="Ellipse 9" transform="translate(504 136)" fill="none" stroke="#676767" stroke-width="2">
        <circle cx="125" cy="125" r="125" stroke="none"/>
        <circle cx="125" cy="125" r="124" fill="none"/>
      </g>
      <g id="Ellipse_10" data-name="Ellipse 10" transform="translate(497 128)" fill="none" stroke="#676767" stroke-width="2">
        <ellipse cx="132.5" cy="133" rx="132.5" ry="133" stroke="none"/>
        <ellipse cx="132.5" cy="133" rx="131.5" ry="132" fill="none"/>
      </g>
      <g id="Ellipse_11" data-name="Ellipse 11" transform="translate(488 120)" fill="none" stroke="#676767" stroke-width="2">
        <circle cx="141.5" cy="141.5" r="141.5" stroke="none"/>
        <circle cx="141.5" cy="141.5" r="140.5" fill="none"/>
      </g>
      <line id="Line_14" data-name="Line 14" x2="1920" transform="translate(0.5 540.5)" fill="none" stroke="#707070" stroke-width="1"/>
      <line id="Line_15" data-name="Line 15" y1="1080" transform="translate(960.5 0.5)" fill="none" stroke="#707070" stroke-width="1"/>
      <g id="Group_2" data-name="Group 2" transform="translate(-4.358 3)">
        <g id="layer1" transform="translate(1203.104 -252.284)">
          <path id="path2832" d="M106.449,1155.328c0-1.7,3.09-2.414,4.009-.926.556.9-.118,1.636-1.5,1.636s-2.51-.32-2.51-.71Zm-17.712-3.41c0-1.381.725-2.063,1.61-1.515a3.453,3.453,0,0,1,1.61,2.51,1.569,1.569,0,0,1-1.61,1.515C89.462,1154.428,88.737,1153.3,88.737,1151.918Zm11.271,1.072c0-1.548,3.916-3.425,6.975-3.341,1.035.029.475,1.115-1.245,2.415-3.548,2.684-5.73,3.036-5.73.926Zm22.542-3.148c0-.751,2.877-2.663,6.393-4.248s7.614-4.231,9.105-5.88c3.281-3.626,4.9-3.818,4.9-.582a2.268,2.268,0,0,1-2.066,2.415c-1.136,0-5.287,2.174-9.223,4.83-7.547,5.094-9.106,5.687-9.106,3.465Zm8.051-.245c0-.885,1.13-1.61,2.51-1.61s2.062.725,1.515,1.61a3.452,3.452,0,0,1-2.51,1.61A1.569,1.569,0,0,1,130.6,1149.6Zm12.18.168c-.49-.793.192-1.857,1.515-2.365,1.461-.561,2.406,0,2.406,1.441,0,2.6-2.516,3.2-3.921.923Zm-51.422-1.442c-.433-.7,1.7-.984,4.735-.629s5.523.928,5.523,1.274c0,1.212-9.479.616-10.258-.645Zm23.85-1.193c1.719-1.3,3.791-2.364,4.606-2.364,2.04,0,17.226-9.948,17.226-11.284,0-.594,1.811-1.906,4.025-2.915s4.025-1.493,4.025-1.076c0,1.376-6.995,8.833-8.285,8.833-.7,0-4.656,2.151-8.8,4.78s-8.106,4.429-8.8,4a1.753,1.753,0,0,0-2.275.856,3.707,3.707,0,0,1-2.929,1.585c-1.055-.027-.511-1.115,1.208-2.415Zm-30.1-.254c-1.55-.4-2.818-1.34-2.818-2.078s1.449-.963,3.22-.5,3.22,1.482,3.22,2.265-.181,1.338-.4,1.236-1.671-.518-3.22-.923Zm19.724-.5a1.61,1.61,0,1,1,1.61,1.61A1.615,1.615,0,0,1,104.838,1146.377Zm45.084.044c0-2.183,2.861-3.538,3.9-1.849.5.807-.176,1.883-1.5,2.391s-2.406.264-2.406-.541Zm-40.738-2.2c-.53-1.38-2.769-1.956-6.21-1.6-3.995.416-4.574.212-2.248-.791,3.005-1.3,2.988-1.39-.4-2.277-2.394-.626-3.537-.2-3.537,1.322,0,3.15-7.841,2.259-8.878-1.009-.892-2.812-16.884-11.767-16.884-9.455,0,.775,2.849,2.864,6.331,4.64,6.365,3.247,9.736,6.5,6.74,6.5a3.526,3.526,0,0,1-2.605-1.61,4.919,4.919,0,0,0-3.817-1.61c-1.552,0-4.227-1.268-5.944-2.818s-5.839-4.847-9.159-7.328-6.037-5.273-6.037-6.205,2.612.6,5.8,3.4,6.271,4.631,6.841,4.061-.412-2.031-2.182-3.246c-4.541-3.118-8.876-7.514-10.661-10.811-2.623-4.844,1.419-3.215,5.382,2.17,2.019,2.743,6.932,6.853,10.917,9.133s8.225,4.895,9.421,5.81a11.387,11.387,0,0,0,4.332,1.981c1.186.173,5.067.724,8.624,1.221,6.39.894,12.884,3.712,14.879,6.458,1.458,2.006,4.887-.464,3.58-2.579-.646-1.044-.33-1.284.783-.6,1.331.822,1.386,2.044.192,4.274-1.946,3.637-4.086,4.029-5.262.964Zm-15.665-5.955c-3.79-2.4-5.712-1.776-2.276.737,1.718,1.256,3.465,1.941,3.884,1.523s-.3-1.435-1.608-2.259Zm-16.928,4.784a2.89,2.89,0,0,0-3.4-.823c-1.285.493-1.926.232-1.424-.579s-.619-1.962-2.49-2.556c-3.259-1.035-9.525-6.311-9.525-8.021,0-1,6.354,2.533,9.16,5.1a32.62,32.62,0,0,0,6.905,4.016c2.676,1.185,4.866,2.7,4.866,3.371,0,1.82-2.876,1.467-4.093-.5Zm42.705-2.269c1.66-2,1.613-2.452-.255-2.452a6.952,6.952,0,0,1-4.183-1.893c-1.451-1.451-.764-2.579,2.937-4.83,5.539-3.369,6.363-3.544,6.363-1.358,0,.869-1.811,2.034-4.025,2.59s-4.025,1.656-4.025,2.446c0,2.748,3.878,1.408,8.365-2.891,2.484-2.38,4.516-3.527,4.516-2.549s-1.993,3.264-4.428,5.081-3.676,3.327-2.757,3.355,4.18-2.172,7.246-4.89,4.719-4.517,3.673-4c-2.384,1.181-4.382-1.741-2.139-3.127,2.642-1.633,6.366-9.8,7.382-16.193.706-4.441.446-5.6-1.051-4.671s-1.738-.288-.95-5.06a81.183,81.183,0,0,0,1.056-9.911c.01-1.993.791-3.623,1.736-3.623.986,0,1.283,1.373.7,3.22-.637,2.006-.289,3.22.922,3.22,2.4,0,.976-17.263-1.634-19.874a8.365,8.365,0,0,1-1.7-5.128c0-3.515-5.627-18.485-11.786-31.353-4.5-9.407-14.176-19.279-19.911-20.32-11.473-2.081-23.387,5.518-28.787,18.362-3.405,8.1-3.088,27.439.544,33.243a11.323,11.323,0,0,1,1.362,3.585c.156,1.024,2.712,5.143,5.681,9.153,4.643,6.272,6.073,7.208,10.228,6.7,2.657-.325,5.62-.64,6.585-.7,1.777-.11,5.491-6.885,5.491-10.016,0-.937-2.154.6-4.786,3.419-4.685,5.015-8.846,5.488-7.048.8.506-1.318,0-2.364-1.151-2.364-1.132,0-3.383-1.2-5-2.665-1.738-1.573-2.945-1.908-2.945-.819,0,1.016,1.449,2.751,3.22,3.857s3.22,2.6,3.22,3.325-1.521.249-3.379-1.053c-4.011-2.809-8.253-10.421-6.967-12.5,1.418-2.294,3.874.019,2.851,2.679-.618,1.609-.156,2.091,1.423,1.485,1.285-.493,3.266.223,4.4,1.592,2.98,3.591,12.763,3.337,12.67-.329a67.2,67.2,0,0,1,1.467-10.278c2.173-10.535-3.5-25.4-9.744-25.524-.716-.014-.855.7-.308,1.586s.236,1.61-.691,1.61-2.15,2.9-2.716,6.441-1.7,6.441-2.529,6.441-1.083-.675-.573-1.5a1.871,1.871,0,0,0-.736-2.526,2.107,2.107,0,0,1-.474-2.929c1.806-2.889,1.976-5.927.332-5.927-.807,0-1.468,1.449-1.468,3.22s-.782,3.22-1.738,3.22c-2.058,0-.262-10.17,1.944-11.006a1.156,1.156,0,0,0,.705-1.7c-.4-.64.9-3.2,2.885-5.684,4.2-5.262,11.433-6.674,16.677-3.254,5.64,3.678,7.822,2.709,3.723-1.653-3.064-3.261-4.784-3.819-9.539-3.092-7.447,1.138-12.672,4.536-16.019,10.42-1.465,2.575-3.3,4.687-4.068,4.692s-.6-.962.389-2.151,1.418-2.536.96-2.995c-1.116-1.116,11.6-12.52,14.15-12.691,1.1-.074,3.762-.324,5.906-.556,3.626-.393,6.282,1.427,16.8,11.512,2.658,2.548,8.329,13.59,11.306,22.011.913,2.583.7,2.736-1.376,1.01a6.931,6.931,0,0,1-2.452-4.46c0-3.088-9.461-19.724-11.217-19.724-2.838,0-2.933,4.544-.111,5.282,3.009.787,9.119,12.514,12.14,23.3.558,1.993,1.668,3.623,2.466,3.623s1.034-1.087.524-2.415-.2-2.415.681-2.415c1.468,0,3.5,5.215,4.387,11.271.2,1.328.921,4.516,1.612,7.083.9,3.346.736,4.346-.583,3.531-1.012-.626-2.3-4.01-2.862-7.522s-1.606-6.746-2.322-7.188c-2.295-1.418-.95,6.335,2.046,11.793,3.531,6.434,3.72,12.644.484,15.88a8.908,8.908,0,0,0-2.415,5.37c0,2.162-.864,2.729-3.22,2.112-2.309-.6-3.22-.05-3.22,1.958,0,2.423.36,2.5,2.677.59,2.3-1.9,2.558-1.866,1.839.205a3.639,3.639,0,0,1-3.644,2.165c-1.556-.139-3.96,1.759-5.4,4.261-3.007,5.239-10.4,7.984-19.529,7.25-13.7-1.1-31.194-19.246-33.368-34.608-.488-3.452-.326-3.623,1.14-1.195.94,1.557,1.265,3.549.722,4.428s-.4,1.6.315,1.6,3.309,3.574,5.761,7.939c6.882,12.253,15.064,17.886,27.028,18.61,9.475.573,10.056.381,15.345-5.065,3.024-3.113,5.5-7.1,5.5-8.868,0-2.441-1.266-1.543-5.3,3.761-4.405,5.79-6.352,7.055-11.52,7.483a38.4,38.4,0,0,1-9.966-.426c-4.766-1.2-14.3-9.532-20.183-17.64-5.629-7.762-6.014-11.524-.527-5.144,2.213,2.573,4.023,5.2,4.023,5.836,0,2.172,10.71,12.857,11.8,11.77.6-.6,1.084-.271,1.084.722,0,2.618,10.844,4.31,13.5,2.106a5.626,5.626,0,0,1,5.077-.714c1.98.76,2.519.516,1.719-.777-1.378-2.23-6.913-2.524-7.683-.408-.724,1.991-12.428-2.177-15.667-5.581-2.406-2.527-2.307-2.567,1.444-.576,6.385,3.387,12.857,3.592,16.259.514,1.953-1.768,3.063-2.064,3.063-.818,0,1.075.725,1.507,1.61.96a3.527,3.527,0,0,0,1.61-2.605c0-.886-.725-1.163-1.61-.615-1.733,1.071-2.247-1.242-.633-2.855,2.121-2.121,5.14,2.819,3.552,5.811-2.722,5.127-.15,4.747,2.907-.429,1.606-2.718,3.85-4.942,4.987-4.942a1.888,1.888,0,0,0,2.068-1.61,1.672,1.672,0,0,1,1.719-1.61c.986,0,1.283,1.373.7,3.22-.562,1.771-.306,3.22.569,3.22,2.111,0,4.22-9.056,3.751-16.1-.5-7.466-1.531-10.081-3.5-8.863-.965.6-1.615-1.156-1.605-4.326.02-6.693-5.875-23.714-9.986-28.833l-3.106-3.867,2.578,5.636c1.418,3.1,3.181,6.746,3.918,8.1,1.553,2.861,2.839,8.959,4.108,19.479.764,6.332.452,7.573-2.072,8.232-3.017.789-3.6,2.72-3.662,12.087-.019,2.878-.759,5.233-1.645,5.233s-1.094-.837-.462-1.859c.747-1.208.438-1.419-.883-.6-1.545.955-1.7.34-.651-2.569,1.726-4.782,1.182-27.208-.7-29.1-.79-.79-1.1.642-.709,3.293.379,2.58.026,5.1-.784,5.6s-1.481-1.044-1.491-3.432a70.291,70.291,0,0,0-1.171-10.38c-1.312-6.877-.066-8.01,2.214-2.013.842,2.214,2.635,4.025,3.985,4.025,1.869,0,2.455,1.9,2.455,7.956,0,4.376.751,8.42,1.67,8.988,1.542.953,1.125-8.655-.776-17.875-.921-4.47-5.582-13.554-10.04-19.571-3.006-4.057-3.252-4.974-1.117-4.154,1.7.651,2.347.414,1.707-.62-1.5-2.427-13.683-4.037-16.889-2.231-2.153,1.213-1.624,1.509,2.494,1.4,6.065-.164,12.7,5.827,18.034,16.281,3.623,7.1,3.908,8.22,2.089,8.22-.669,0-2.212-2.247-3.427-4.993-1.647-3.72-2.562-4.439-3.589-2.818-1.124,1.773-1.418,1.729-1.594-.24a18.8,18.8,0,0,1,.01-3.728c.124-.722-1.3-3.458-3.168-6.079-2.742-3.85-4.431-4.7-8.787-4.4-2.966.2-5.015.974-4.553,1.722s-.036,2.414-1.106,3.7c-2.456,2.959-1.487,2.956,4.236-.014,4.09-2.122,4.795-2.082,7.039.4,4.433,4.908,6.874,12.2,7.53,22.486.459,7.2.082,10.063-1.323,10.063-1.489,0-1.513.452-.1,1.864s2.419,1.4,4.153-.035c1.853-1.538,2.426-1.181,3.01,1.87a14.743,14.743,0,0,1-.5,6.879c-1.07,2.732-1.239,2.62-1.394-.916-.173-3.958-.214-3.944-2.422.805a61.048,61.048,0,0,1-3.687,6.9c-1.644,2.355-16.47,4.628-16.509,2.531-.048-2.545-9.168-11.771-10.472-10.593-.71.641-.849.389-.309-.56s-.134-3.848-1.5-6.441c-3.236-6.159-3.909-9.212-4.576-20.761-1.04-18,9.014-33.9,23.813-37.652,5.577-1.416,7.812-1.178,13.8,1.469,3.927,1.737,7.512,2.787,7.965,2.334s.523-1.006.154-1.227c-7.705-4.623-12.112-6.038-18.807-6.038-7.043,0-8.854.771-15.451,6.577-5.089,4.479-7.472,5.769-7.472,4.042,0-1.395,3.983-5.18,8.85-8.412,8.341-5.538,9.407-5.826,18.522-5,7.794.707,9.95.38,11.1-1.684,1.3-2.319,1.843-2.292,5.77.281,2.385,1.563,4.728,2.45,5.206,1.972,1.23-1.23,10.122,3.588,10.122,5.484,0,2.267-2.831,1.931-3.618-.429-.492-1.475-1.335-1.33-3.217.553-2.328,2.328-1.943,3.2,4.406,10.022,5.423,5.823,7.878,10.425,11.134,20.871,2.3,7.371,4.177,14.267,4.177,15.323s.6,1.922,1.342,1.922c1.871,0,1.77-5.217-.148-7.648-.873-1.107-1.163-2.013-.643-2.013s-.453-3.261-2.161-7.246c-2.921-6.814-2.823-8,.608-7.368,1.36.249,1.034-1.839-1.362-8.734-1.1-3.175-1.083-3.176,1.427-.095,2.881,3.536,3.338,8.271.942,9.752-1.02.63-.788,2.571.636,5.328,3.051,5.9,5.847,16.714,6.106,23.6.118,3.13.87,5.691,1.672,5.691,1.7,0,.1-14.689-2.265-20.8a57.557,57.557,0,0,1-2.134-6.572,40.92,40.92,0,0,0-1.639-5.233c-.645-1.629-.385-2.818.616-2.818.953,0,1.333-1.268.846-2.818-1.929-6.135,4.65,3.752,9.895,14.87,7.349,15.578,5.145,16.724-2.48,1.289-6.865-13.9-8.53-14.965-2.669-1.714,2.067,4.675,3.832,8.862,3.921,9.3s.541,1.892,1,3.22,1.589,4.951,2.506,8.051c1.258,4.257,1.525,4.543,1.09,1.169-.317-2.457,0-4.821.7-5.254,1.927-1.191,5.228,16.342,5.393,28.637.08,5.976.689,10.867,1.353,10.869s1.208.742,1.208,1.645-1.811,1.313-4.025.912c-3.242-.588-4.025-.075-4.025,2.634,0,1.85-1.848,5.787-4.107,8.749s-3.527,5.374-2.818,5.36c2.244-.044,4.707-2.29,5.824-5.31.615-1.665,1.871-2.43,2.924-1.78,1.7,1.052-11.609,15.188-20.339,21.6-3.129,2.3-3.14,2.271-.4-.954,3.54-4.17,3.588-5.676.138-4.352-2.942,1.129-2.079-1.183,2.378-6.372,1.336-1.555,1.943-3.314,1.349-3.908s-2.205.316-3.58,2.023c-2.786,3.458-2.6,2.7,1.563-6.47,3.567-7.851,4.528-11.5,4.79-18.2.113-2.878.849-5.233,1.637-5.233,2.073,0-.03,15.107-2.866,20.59-2.181,4.217-2.15,4.927.316,7.431,2.563,2.6,2.558,2.894-.09,4.86-3.456,2.566-3.61,4.152-.4,4.152a2.358,2.358,0,0,0,2.415-2.281,3.863,3.863,0,0,1,2.013-3.22c1.6-.745,1.6-1.133.016-1.873-1.426-.667-.842-2.447,2.043-6.23,2.561-3.358,3.678-6.4,3.052-8.325-.814-2.5-.683-2.6.75-.613,1.5,2.088,1.741,2.033,1.762-.4.013-1.55-.7-2.818-1.585-2.818a1.545,1.545,0,0,1-1.61-1.46c0-.8,1.268-1.269,2.818-1.036s1.885.106.745-.281c-2.928-.994-2.177-22.987.785-22.987a2.362,2.362,0,0,0,2.093-2.549c0-1.4-.906-2.236-2.013-1.854s-2.9-1.532-4.01-4.294c-1.95-4.871-1.977-4.818-1.149,2.256.823,7.027.775,7.124-1.579,3.22s-2.408-3.756-1.828,4.025c.844,11.331,1.168,12.02,2.652,5.635.81-3.484,1.009.818.521,11.271-.66,14.142-1.318,17.433-4.025,20.127l-3.237,3.22,1.854-4.83c3.109-8.1,4.537-21.925,2.351-22.764-1.052-.4-2.049-4.142-2.215-8.307a84.8,84.8,0,0,0-.853-9.988c-.3-1.328-1.1-4.77-1.762-7.648s-1.808-5.233-2.537-5.233-.585,2.123.319,4.717a24.671,24.671,0,0,1,1.1,9.258c-.4,3.344-1.28,1.42-3.331-7.3-1.532-6.511-2.384-12.489-1.893-13.284s.126-1.445-.812-1.445-1.705-2.493-1.705-5.541-.644-5.939-1.432-6.425-1.923-2.843-2.524-5.236c-1.417-5.644-15.5-23.327-20.864-26.2-5.942-3.18-6.964-.959-1.142,2.48,2.67,1.577,4.489,3.459,4.042,4.182s.317,1.315,1.7,1.315,2.517.543,2.524,1.208,2.363,3.758,5.233,6.875,5.5,6.74,5.847,8.051,1.844,6.764,3.329,12.118,2.433,10.541,2.1,11.526a2.581,2.581,0,0,0,1.1,2.838,3.727,3.727,0,0,1,1.7,2.76c0,1.08-.892.972-2.415-.292a6.938,6.938,0,0,1-2.415-4.519c0-1.383-1.562-5.823-3.471-9.866s-4.1-8.8-4.863-10.572c-1.3-3.011-1.26-3.028.653-.263,5.754,8.318,5.987,8.527,4.791,4.288a34.483,34.483,0,0,0-3.119-7.246c-1.631-2.649-2.248-2.818-3.474-.951-1.8,2.736-.351,7.512,6.5,21.458a15.159,15.159,0,0,1,1.373,5.575c0,1.528,1.815,4.255,4.033,6.06,2.863,2.329,4.328,5.5,5.049,10.929.628,4.728.4,7.648-.6,7.648-.891,0-1.614-1.268-1.608-2.818.033-8.384-.683-11.7-3.037-14.051-1.434-1.434-3.043-2.171-3.576-1.638s.036,1.59,1.264,2.349c3.007,1.859,3.471,23.595.491,23-1.107-.221-2.013.322-2.013,1.208a1.615,1.615,0,0,0,1.61,1.61c.886,0,1.61,1.519,1.61,3.375,0,4.572-4.813,21.076-6.908,23.686-.929,1.157-1.022,1.881-.208,1.61,1.467-.489,2.285.679,2.285,3.259,0,1.579-12.345,10.521-16.732,12.119-2.584.941-2.737.738-1.01-1.343Zm49.684-40.694a7.9,7.9,0,0,1,.715-4.7c.648-1.032.5-3.675-.34-5.872s-1.082-4.432-.548-4.966.125-.971-.908-.971c-2.307,0-2.5,5.865-.242,7.262a1.867,1.867,0,0,1,.694,2.537,1.915,1.915,0,0,1-2.65.47c-1.027-.635-1.3-.164-.695,1.181.557,1.23,1.46,3.5,2.007,5.055s1.317,2.818,1.712,2.818.51-1.268.255-2.818Zm-37.558-67.257c.977-.9.433-1.047-1.406-.384-2.225.8-2.762.467-2.083-1.3.534-1.393-1.143-4.437-4.042-7.336-6.25-6.25-7.756-5.112-2.549,1.926a44.653,44.653,0,0,1,5.08,8.514c.633,1.779,1.631,2.487,2.27,1.61a25.026,25.026,0,0,1,2.731-3.029Zm-3.012-20.274c.423,0,.363-.657-.133-1.459s-2.268-1.1-3.939-.665-3.524.006-4.119-.956a3.882,3.882,0,0,0-3-1.715c-1.055.02-.106,1.456,2.108,3.192s4.99,2.806,6.17,2.379a13.342,13.342,0,0,1,2.913-.776Zm-22.768,123.983c-.547-.885.5-1.61,2.32-1.61s3.315.724,3.315,1.61-1.044,1.61-2.32,1.61A4.259,4.259,0,0,1,105.643,1136.536Zm50.689-.768a6.771,6.771,0,0,1,4.253-2.452c1.22,0,2.037-.646,1.816-1.435-.419-1.493,6.5-8.226,8.452-8.226,1.988,0-10.367,12.3-13.51,13.451-2.584.945-2.737.743-1.01-1.338Zm-58.8-2.553c-1.489-2.409-1-2.608,8.516-3.481,9.134-.838,10.532-.324,4.83,1.776-7.548,2.781-12.306,3.388-13.346,1.7Zm-10-1.559c-1.993-.8-3.623-1.842-3.623-2.313,0-1.768,5.943-.768,8.951,1.507,3.648,2.759.657,3.212-5.328.806Zm-10.078-5.6c-2.173-2.618-.469-3.165,3-.964,1.327.841,1.557,1.772.585,2.373-.88.544-2.5-.091-3.589-1.409Zm10.465.116a49.382,49.382,0,0,1-10.176-6.548c-3.222-2.715-5.234-3.615-5.042-2.255a31.947,31.947,0,0,1,.128,5.278c-.16,2.534-.588,2.685-2.682.948-1.859-1.543-2-2.372-.556-3.264,1.355-.838.584-2.448-2.574-5.375-2.48-2.3-3.989-4.179-3.352-4.179s-.41-1.993-2.326-4.428c-2.928-3.723-8.021-13.815-8.021-15.9,0-.335.711-.608,1.579-.608s2.047,1.863,2.619,4.14,3.588,7.893,6.7,12.479c7.011,10.321,6.613,9.877,7.792,8.7.54-.54-1.344-4.427-4.187-8.639-6.569-9.733-11.432-21.51-8.882-21.51.718,0,4.6,8.417,5.574,12.076a30.023,30.023,0,0,0,3.471,5.884c1.674,2.351,3.043,4.757,3.043,5.348,0,2.031,4.807,5.879,6.239,4.994.788-.487,3.263.553,5.5,2.312,4.41,3.469,7.583,4.138,7.583,1.6,0-1.8,5.682-1.318,7.607.642.687.7-.2,1.032-1.971.739s-3.22.179-3.22,1.05c0,1.692.561,1.853,8.051,2.316,4.208.26,4.415.478,1.61,1.683-2.7,1.16-2.373,1.4,2.013,1.5,2.878.064,5.233.9,5.233,1.851,0,2.053-10.168.265-11-1.934-.3-.778-2.107-1.4-4.025-1.39-2.571.019-2.914.389-1.3,1.409,3.763,2.385-.371,3.208-5.421,1.08Zm3.206-2.465c.815-1.318-2.148-3.125-12.851-7.833-.886-.389.125,1.18,2.247,3.488s4.426,3.845,5.122,3.415a1.754,1.754,0,0,1,2.276.855c1.263,2.043,1.98,2.06,3.206.075Zm29.474.548c2.846-2.228,5.175-5.133,5.175-6.457,0-1.609.987-2.094,2.978-1.462,2.308.733,3.358-.239,4.666-4.32,1.381-4.308,1.718-4.592,1.852-1.562a19.442,19.442,0,0,1-2.086,8.054c-2.771,5.36-9.021,11.265-9.021,8.524,0-1.161-.817-1.444-2.013-.7-5.018,3.135-6.2,1.554-1.552-2.081Zm8.449-3.012c2.185-2.979,2.151-3.055-.456-1.01-1.55,1.215-2.818,2.966-2.818,3.891s.205,1.38.456,1.01S127.744,1123.011,129.043,1121.24Zm10.528,3.105c-.618-2.464-.356-5.119.6-6.076.935-.935,1.71-3.547,1.724-5.805a14.526,14.526,0,0,1,1.586-6.521c2.682-4.15,1.9,6.648-.863,11.951-1.953,3.746-2.036,4.963-.406,5.971,1.506.931,1.573,1.741.253,3.061s-2.086.637-2.893-2.581Zm-28.294.92a1.89,1.89,0,0,0-2.07-1.61c-2.45,0-2.831-6.329-.4-6.686.917-.135,2.392-.35,3.278-.478,3.64-.526,8.856-5.07,8.856-7.715,0-3.26,2.034-3.581,6.741-1.062,2.413,1.292,3.011,1.289,2.208-.019-1.18-1.909,1.987-12.785,4.5-15.448.974-1.033,1.185-.658.59,1.045-.511,1.46-1.809,7.129-2.885,12.6-1.086,5.521-2.479,9.1-3.132,8.042-.9-1.455-1.451-1.458-2.345-.019a2.8,2.8,0,0,1-3.245,1.1c-1.142-.438-3.681.7-5.643,2.527-2.674,2.491-3.878,2.822-4.806,1.32-.88-1.423-1.557-1.487-2.34-.221-.606.981-.488,1.783.261,1.783s1.472,1.449,1.605,3.22-.075,3.22-.462,3.22-.705-.724-.705-1.61Zm15.077-16.456c-.6-.972-1.532-.742-2.373.585-2.2,3.474-1.654,5.177.964,3,1.319-1.094,1.953-2.71,1.409-3.589ZM114.5,1124.281c0-1.188,6.9-6.943,8.4-7.013.636-.029.778.935.314,2.144-.843,2.2-8.717,6.6-8.717,4.87Zm-13.686-5.456c-.547-.886-.271-1.61.615-1.61a3.526,3.526,0,0,1,2.605,1.61c.547.885.271,1.61-.615,1.61A3.527,3.527,0,0,1,100.812,1118.825Zm44.279.191a3.526,3.526,0,0,1,1.61-2.605c.886-.547,1.61-.271,1.61.615a3.527,3.527,0,0,1-1.61,2.605C145.816,1120.178,145.091,1119.9,145.091,1119.016Zm-93.388-2.7c0-1.381.725-2.062,1.61-1.515a3.452,3.452,0,0,1,1.61,2.51,1.57,1.57,0,0,1-1.61,1.515C52.427,1118.826,51.7,1117.7,51.7,1116.316Zm10.247-1.371c-13.359-18.032-16.494-23.491-13.492-23.491.816,0,2.748,2.717,4.294,6.038a41.439,41.439,0,0,0,3.708,6.843c2.764,2.478,9.941,13.213,9.277,13.877C65.3,1118.643,63.6,1117.173,61.949,1114.944Zm110.642,1.6c-.07-1.7.311-2.648.846-2.113s.592,1.924.127,3.086c-.514,1.284-.9.9-.973-.973Zm-88.671-3.337c-1.094-1.318-2.632-2-3.417-1.515s-1.428-.247-1.428-1.628c0-3.292.288-3.217,5.788,1.513,2.573,2.213,3.861,4.024,2.863,4.026s-2.711-1.077-3.805-2.4Zm83.714,1.79c0-.334,1.1-1.524,2.452-2.643,2.05-1.7,2.286-1.6,1.438.608-.866,2.257-3.89,3.839-3.89,2.035Zm-20.353-3.82c2.126-7.515,2.925-20.09,1.209-19.03-.984.608-1.79,3.28-1.79,5.937s-.584,4.47-1.3,4.028c-2.2-1.36-.175-12.269,2.279-12.269,1.231,0,2.239-1.449,2.239-3.22s.6-3.22,1.326-3.22c1.292,0,1.037,13.683-.374,20.127a46.028,46.028,0,0,0-.828,6.843c-.068,1.993-.9,3.623-1.842,3.623s-1.36-1.268-.922-2.818ZM47.428,1109.9c-.524-1.367-.594-2.844-.154-3.284s1.186.678,1.658,2.485c1,3.837-.111,4.429-1.5.8Zm5.348-.2a4.435,4.435,0,0,1-1.073-2.737c0-1.009.75-.914,1.905.241,1.048,1.048,1.531,2.28,1.073,2.737a1.385,1.385,0,0,1-1.905-.242Zm16.193-10.52c-2.412-3.72-4.385-7.946-4.385-9.393a6.24,6.24,0,0,0-1.12-3.75,7.85,7.85,0,0,1-1.5-3.7c-.593-4.041,1.636-.542,5.807,9.113,2.1,4.871,5.226,10.124,6.938,11.674,2.188,1.981,2.449,2.818.879,2.818-1.229,0-4.207-3.043-6.619-6.763Zm-21.292,1.932c-.547-.886-.228-1.61.71-1.61a1.665,1.665,0,0,1,1.705,1.61c0,.886-.32,1.61-.71,1.61s-1.158-.724-1.705-1.61Zm126.4-.71c0-2.828.966-3.245,2.346-1.011a1.854,1.854,0,0,1-.71,2.51c-.9.556-1.636-.118-1.636-1.5Zm-131.158-2.4a1.853,1.853,0,0,1,.71-2.51c.9-.557,1.636.118,1.636,1.5,0,2.828-.966,3.245-2.346,1.011Zm49.076-2.055c-9.156-3.515-12.921-7.063-18.8-17.717-1.919-3.477-3.941-5.526-4.523-4.584-1.78,2.88-3.67,1.9-4.477-2.322-.423-2.214-.145-4.025.617-4.025s1.387,1.087,1.387,2.415.725,2.415,1.61,2.415c2.04,0,2.056-3.448.04-8.751-.864-2.272-2.689-4.13-4.056-4.13-1.9,0-2.231-1.041-1.4-4.428.6-2.435,1.7-4.669,2.446-4.965,2.206-.87,1.556-3.489-.866-3.489-2.333,0-4.154,4.721-4.191,10.868-.013,1.993-.742,3.623-1.622,3.623s-1.358-1.268-1.062-2.818c2.572-13.483,3-14.5,5.758-13.783,1.62.424,2.818-.167,2.831-1.4.037-3.435,7.219-19.037,8.763-19.037,2.148,0,1.686,2.6-.835,4.691-2.055,1.706-5.227,13.209-3.94,14.287.3.254-.536,1.148-1.864,1.988-1.38.873-1.608,1.537-.532,1.551s1.806,2.245,1.7,5.258c-.716,20.617,11.919,40.165,27.842,43.078,3.526.645,6.437.726,6.469.181.137-2.349,7.673-10.058,8.509-8.7.507.82-.88,3.435-3.083,5.81s-3.432,4.33-2.732,4.343.186.727-1.142,1.585c-3.043,1.967-2.41,2.062-12.846-1.943Zm-26.344-43.437c-.447-1.107-.812-.2-.812,2.013s.365,3.12.812,2.013a6.214,6.214,0,0,0,0-4.025Zm-25.173,36.749c-2.023-5.321-2.127-8.974-.256-8.974,1.474,0,3.842,11.4,2.621,12.618-.391.391-1.455-1.249-2.366-3.643Zm79.993,1.115c-1.473-2.628.893-13.31,2.948-13.31,1.55,0,1.788,1.2.877,4.428-.687,2.435-.961,5.267-.608,6.293.734,2.131-2.166,4.465-3.217,2.589Zm54.485-.831a145.515,145.515,0,0,1-3.344-17.309c-.244-4.012-5.789-19.639-9.835-27.721a89.935,89.935,0,0,0-11.048-15.753c-3.985-4.487-7.218-9.04-7.184-10.117s3.28,1.664,7.213,6.092,7.166,7.188,7.184,6.133a3.724,3.724,0,0,0-1.577-2.913,3.614,3.614,0,0,1-1.61-2.708c0-1.08.892-.972,2.415.292a6.766,6.766,0,0,1,2.415,4.318c0,1.272.608,1.938,1.35,1.479s2.963,2.034,4.933,5.541,4.139,6.375,4.818,6.375,2.191,1.787,3.36,3.97,2.852,3.521,3.741,2.971,1.179-.292.645.573.035,3.513,1.266,5.884,1.533,4.312.672,4.312-2.016-1.268-2.567-2.818c-1.362-3.83-18.527-26.394-19.408-25.512-.387.387.705,2.754,2.427,5.259s4.354,6.57,5.848,9.034,3.3,4.118,4.017,3.675,2.213,2.252,3.328,5.987,2.853,7.323,3.862,7.973c1.313.846,1.252,1.19-.212,1.208-1.9.023-3.518-2.781-5.91-10.269-.536-1.676-1.32-2.7-1.743-2.279s.707,6.5,2.512,13.514a160.107,160.107,0,0,1,3.814,18.783c.525,5.958-.155,7.944-1.38,4.025Zm-128.662-.715c-.566-.566-1.019-2.539-1-4.384.02-2.766.3-2.93,1.61-.939s1.765,1.76,2.63-1.406l1.045-3.821,2.118,3.821c2.58,4.653,2.738,6.237.622,6.237-.886,0-1.61-1.13-1.61-2.51s-.736-2.055-1.636-1.5a1.8,1.8,0,0,0-.779,2.4c1.051,1.7-1.563,3.536-3,2.1Zm80.2-5.464a3,3,0,0,1,.628-3.461c1.206-1.206,1.633-.691,1.449,1.75-.3,3.939-.564,4.159-2.077,1.71Zm-70.079-.262a72.481,72.481,0,0,1-1.947-10.465c-.19-1.992-.708-3.623-1.15-3.624s-1.026-5.8-1.3-12.882.092-12.878.805-12.874,1.434,5.015,1.6,11.136c.268,9.817,2.008,19.552,4.788,26.8.489,1.273.086,2.315-.894,2.315s-1.838-.181-1.906-.4Zm-8.2-8.856a27.331,27.331,0,0,1,.405-8.453c.585-3.13,1.148-4.114,1.266-2.214a78.951,78.951,0,0,0,1.218,8.453c1.048,5.242-1.707,7.352-2.89,2.214Zm11.84-1.2c-1.01-2.218-1.213-4.032-.449-4.032,1.337,0,3.746,6.6,2.766,7.585-.264.264-1.306-1.335-2.317-3.553Zm-21.678.264c-1.794-4.562-1.5-6.892.6-4.789a5.855,5.855,0,0,1,1.16,4.75c-.58,2.883-.642,2.884-1.761.039Zm5.477,2.144c-.175-.443-.721-3.7-1.213-7.246-.678-4.881-.44-6,.983-4.633,1.033.994,1.578,4.255,1.213,7.245S44.021,1075.9,43.846,1075.459Zm-11.341-3.891c-.07-1.7.311-2.648.846-2.113s.592,1.924.127,3.086c-.514,1.284-.9.9-.973-.973Zm57.15-1.262c-1.555-2.22-1.878-3.917-.864-4.543.89-.55,1.422-2.759,1.183-4.91-.321-2.891.268-3.794,2.262-3.465a4.066,4.066,0,0,0,3.872-1.456c.74-1.2.483-1.474-.7-.746-2.916,1.8-4.131-3.637-1.789-8.013,2.736-5.113,3.874-4.941,6.761,1.019,3.558,7.347,1.994,25.657-2.192,25.657-.878,0-1.185-.666-.682-1.48,1-1.62-3.271-6.57-5.67-6.57-2.414,0-1.713,3.238.92,4.248,1.328.51,2.415,1.574,2.415,2.365,0,2.631-3,1.485-5.519-2.105Zm9.983-14.2c-1.05-10.929-2.856-12.747-5.174-5.208-.879,2.859-.584,3.411,1.41,2.646,1.863-.715,2.521.058,2.521,2.962,0,5.256-1.482,6.435-4.409,3.508-2.867-2.867-4.119-2.157-2.7,1.533.57,1.486,2.794,2.646,5.073,2.646,3.9,0,4.028-.312,3.281-8.086Zm77.117,16.673a4.436,4.436,0,0,1-1.073-2.737c0-1.009.75-.914,1.905.241,1.048,1.048,1.531,2.28,1.073,2.737a1.385,1.385,0,0,1-1.905-.242ZM58.123,1065.06c0-2.828.966-3.245,2.346-1.011a1.854,1.854,0,0,1-.71,2.51c-.9.556-1.636-.118-1.636-1.5Zm-20.931-3.954c0-3,.67-4.78,1.588-4.213,1.692,1.046,1.385,6.434-.473,8.292-.613.613-1.115-1.222-1.115-4.079Zm25.763,2.147c0-1.381.725-2.062,1.61-1.515a3.453,3.453,0,0,1,1.61,2.51,1.569,1.569,0,0,1-1.61,1.515C63.679,1065.763,62.954,1064.633,62.954,1063.252Zm16.822,1.038a1.322,1.322,0,0,0-.761-2.03c-.919-.307-1.625-4.172-1.568-8.591s.088-9.664.069-11.657.711-3.623,1.622-3.623c1.019,0,1.436,3.873,1.086,10.064-.386,6.817.172,11.232,1.732,13.686,2.053,3.231,2.01,3.623-.394,3.623-1.482,0-2.286-.663-1.785-1.473Zm5.184-1.211a5.868,5.868,0,0,1-1.024-3.623c.04-2.094.354-2.024,1.758.389,1.734,2.981,1.231,5.2-.733,3.234Zm-52.9-1.373c-.6-.6-.654-2.224-.121-3.611.705-1.839.348-2.168-1.319-1.216-1.776,1.014-1.868.853-.415-.722,2.77-3,4.909-1.4,3.86,2.889-.5,2.062-1.407,3.259-2.006,2.66Zm13.307-1.445c-.07-1.7.311-2.648.846-2.113s.592,1.924.127,3.086c-.514,1.285-.9.9-.973-.973Zm2.14-3.757c-.714-1.55-1.369-5.945-1.456-9.766-.1-4.178-1.091-7.539-2.5-8.429-1.941-1.228-1.86-1.484.478-1.5,2.53-.022,3.553-1.809,3.008-5.258-.1-.664.611-1.208,1.592-1.208s1.34,1.154.8,2.565-1.424,4.317-1.962,6.459c-.807,3.215-.492,3.708,1.8,2.827,2.453-.941,2.548-.631.809,2.618-1.085,2.027-1.577,6.122-1.094,9.1q1.461,9-1.482,2.6Zm35.208-3.623c-.236-3.138,1.265-4.2,3.2-2.258,1.156,1.156-.315,5.478-1.866,5.478-.6,0-1.2-1.449-1.338-3.22ZM32.3,1048.856c-.437-6.749.116-11.041,1.626-12.619.709-.741.949,2.157.533,6.441-.972,10.008-1.764,12.275-2.158,6.178Zm9.164.213c-.667-2.54-.832-5-.367-5.464,1.3-1.3,2.881,3.889,2.191,7.17-.452,2.147-.931,1.7-1.825-1.706Zm14.241-1.018c-.547-.886-.228-1.61.71-1.61a1.665,1.665,0,0,1,1.705,1.61c0,.885-.32,1.61-.71,1.61s-1.158-.725-1.705-1.61Zm-29.788-3.125a3.453,3.453,0,0,1,1.61-2.51c.886-.547,1.61.134,1.61,1.515s-.725,2.51-1.61,2.51A1.569,1.569,0,0,1,25.92,1044.926Zm11.271-3.41c0-2.709.627-4.538,1.394-4.064,1.3.8.59,8.989-.777,8.989C37.469,1046.441,37.192,1044.225,37.192,1041.515Zm15.941-.442a20.837,20.837,0,0,1,2.286-13.472c3.061-5.831,3.275-6.923,1.354-6.923-.743,0-2.288,1.993-3.431,4.428-1.184,2.522-2.391,3.568-2.8,2.431-1.061-2.931,5.141-10.269,7.059-8.351,1,1,2.33.115,3.73-2.5,1.194-2.232,2.774-4.058,3.51-4.058,2.091,0,1.572,2.632-.929,4.708-3.137,2.6-7.533,12.249-8.283,18.174-.579,4.576-2.124,8.024-2.493,5.564Zm4.46-3.489c2.828-13.764,17.31-33,27.337-36.306,6.8-2.245,6.274-3.559-.858-2.132-2.838.568-7.461,3.471-10.272,6.452-5.191,5.5-7.624,6.719-7.624,3.81,0-.886,1.087-1.61,2.415-1.61s2.415-.725,2.415-1.61c0-4.372-7.054.765-8.859,6.45-.56,1.766-2.083,3.211-3.382,3.211-3.137,0-1-3.9,6.045-11.059,4.286-4.352,4.71-5.3,2.146-4.814-3.332.636-13.677,14.356-17.865,23.7-1.334,2.974-2.8,5.034-3.255,4.578s.236-2.889,1.538-5.407a41.611,41.611,0,0,0,2.73-6.188c.2-.886,2.086-3.658,4.192-6.162s3.83-5.466,3.83-6.585,1.63-2.835,3.623-3.815,6.159-3.349,9.258-5.264c5.1-3.148,5.252-3.167,1.634-.2-6.865,5.636-2.9,4.847,8.02-1.594,5.752-3.394,9.375-6.183,8.051-6.2-2.132-.022-2.132-.2.006-1.586,2.01-1.3,1.875-1.587-.805-1.716-2.64-.127-2.416-.512,1.246-2.133,2.456-1.088,3.927-2.516,3.269-3.175s.049-.718,1.572-.134c1.705.654,2.769.292,2.769-.944,0-1.479,2.646-1.781,10.063-1.15,7.746.659,9.229.468,6.441-.828-4.442-2.064-4.674-3.722-.521-3.722,1.706,0,2.681.681,2.166,1.514s-.262,1.1.561.589c3.126-1.932,12.341,1.292,13.627,4.769,1.214,3.281,1.011,3.38-3.623,1.764-3.735-1.3-5.21-1.222-6.173.335-.866,1.4-2.713,1.648-5.865.783-4.44-1.219-13.579-.958-21.766.622-1.284.248-.9,3.519.718,6.106a1.873,1.873,0,0,1-.85,2.776c-1.112.5.513.761,3.613.591,3.7-.2,5.5.363,5.233,1.652-.233,1.136,1.332,1.961,3.718,1.961,2.337,0,3.69-.7,3.125-1.61-.547-.886.021-1.61,1.263-1.61,3.354,0,20.592,6.144,23.117,8.239,1.277,1.06,2.188,1.156,2.188.232,0-1.436-7.122-5.426-17.712-9.921-3.429-1.455-3.077-1.557,2.375-.688,3.52.562,7.376,2,8.568,3.189a7.205,7.205,0,0,0,3.842,2.168c.921,0,5.246,2.99,9.61,6.645s8.3,6.276,8.754,5.827c1.041-1.041-14.06-14.057-16.324-14.071a6.421,6.421,0,0,1-3.571-1.891c-2.749-2.749-13.272-6.118-19.2-6.146-2.826-.014-5.586-.749-6.133-1.634-2.414-3.906,21.147,1.791,29.676,7.176,9.037,5.7,27.483,23.333,27.483,26.264,0,1.761-.922,1.358-3.19-1.392-1.755-2.128-3.934-4.75-4.842-5.827a3.963,3.963,0,0,0-4.161-.995c-1.562.6-4.6-1.061-8.039-4.4-3.041-2.948-5.529-4.612-5.529-3.7s2.174,3.6,4.83,5.964,4.83,5.072,4.83,6.01c0,.993,1.394,1.264,3.333.649,2.545-.808,4.789.474,9.5,5.423,3.39,3.564,6.594,6.05,7.12,5.525s.168-1.9-.793-3.062a4.855,4.855,0,0,1-1-4.174c.448-1.242,1.576-.3,2.826,2.361,1.144,2.435,2.565,4.428,3.158,4.428s3.42,3.261,6.282,7.246,4.7,7.246,4.085,7.246c-1.293,0-6.411-5.607-9.909-10.855-1.323-1.985-3.064-3.2-3.869-2.7s.18,3.1,2.189,5.786c7.338,9.809,8.042,10.993,6.536,10.993-.843,0-3.752-3.08-6.463-6.843a91.081,91.081,0,0,0-16.629-18.1l-3.945-3.209,3.9,4.41c2.144,2.425,3.409,4.9,2.813,5.5s-4.789-3.034-9.317-8.068c-12.561-13.966-22.544-19.953-24.55-14.725-.576,1.5-.163,2.424,1.017,2.272a27.236,27.236,0,0,1,4.515-.065c3.417.258,16.147,11.3,15.708,13.63a15.22,15.22,0,0,0,.942,5.681c2.223,6.573-2.357,7.5-7.471,1.52-4.67-5.465-4.775-8.11-.173-4.366,2.444,1.989,2.628,1.9,1.631-.755-.848-2.258-.525-2.767,1.309-2.063,4.308,1.653,2.442-1.24-4.264-6.613-6.795-5.444-9.4-6.424-9.4-3.532,0,.956-1.562.607-3.565-.8-1.961-1.373-7.194-2.978-11.631-3.567-5.829-.773-7.185-1.381-4.889-2.191,1.748-.617,5.33-.506,7.961.245,3.521,1.005,5.418.731,7.188-1.039,1.445-1.445,1.678-2.4.584-2.4a2.8,2.8,0,0,0-2.435,1.841c-.46,1.381-1.473,1.381-4.054,0a23.612,23.612,0,0,0-9.181-1.841c-3.158,0-5.741-.725-5.741-1.61a1.59,1.59,0,0,0-1.56-1.61c-.858,0-1.1,1.268-.532,2.818.969,2.657.85,2.662-2.1.081-2.153-1.883-3.869-2.267-5.506-1.232-1.777,1.124-1.841,1.51-.251,1.529a7.761,7.761,0,0,1,4.356,2.253c1.9,1.9,1.52,2.37-2.545,3.183-4.907.981-14.246,6.776-16.453,10.208a37.29,37.29,0,0,1-3.22,4.088c-2.2,2.393-6,8.772-6,10.059,0,.455.725.827,1.61.827a1.858,1.858,0,0,0,1.61-2.023c0-3.688,13.582-17.164,19.932-19.776,8.125-3.343,29.03-2.525,23.46.918-1.078.667-4.1.6-6.724-.154-11.644-3.339-26.3,4.717-33.374,18.344-1.631,3.142-3.243,4.271-5.321,3.728-2.139-.559-3.419.435-4.529,3.521-.851,2.365-2.241,5.749-3.089,7.521-1.215,2.538-1.332,2.2-.549-1.61ZM86.227,994.11c5-3.835,1.431-2.8-5.561,1.61-3.507,2.214-7.116,4.025-8.019,4.025s-1.642,1.065-1.642,2.367c0,2.306,5.7-.689,15.221-8Zm18.994-16.363a6.214,6.214,0,0,0-4.025,0c-1.107.447-.2.812,2.013.812s3.12-.365,2.013-.812Zm-43.384,59.06c1-2.657,2.389-4.83,3.08-4.83,1.673,0,1.594.719-.611,5.56-2.619,5.749-4.684,5.139-2.469-.729Zm-34.888-2.415a3.95,3.95,0,0,1,3.367-2.415c1.986,0,2.067.449.436,2.415-1.1,1.328-2.618,2.415-3.367,2.415S26.439,1035.72,26.949,1034.392Zm12.859-3.972c.989-5.449,3.568-11.318,5.683-12.934a4.39,4.39,0,0,0,1.326-2.415c.15-.886,2.054-4.871,4.231-8.856,2.9-5.312,7.088-9.287,15.685-14.894,6.449-4.207,12.766-7.637,14.037-7.625,2.2.023-2.039,2.943-8.96,6.17-1.771.826-6.521,4.417-10.555,7.981-6.717,5.933-9.649,10.8-20.576,34.13-1.751,3.738-1.813,3.627-.872-1.557ZM42.9,1033.7a1.854,1.854,0,0,1,.71-2.51c.9-.556,1.636.118,1.636,1.5,0,2.828-.966,3.245-2.346,1.011Zm98.286-1.147c-1.348-3.513.442-5.146,2.344-2.138s1.945,4.784.109,4.784c-.791,0-1.895-1.191-2.453-2.646Zm-107.21-1.68c0-.825,1.064-2.906,2.364-4.625,1.986-2.626,2.372-2.707,2.415-.505a6.845,6.845,0,0,1-2.364,4.625C35.058,1031.469,33.971,1031.7,33.971,1030.871Zm-4.83-1.721c0-.886,1.087-2.512,2.415-3.615,1.347-1.118,2.415-1.293,2.415-.394s-1.087,2.512-2.415,3.615C30.209,1029.875,29.141,1030.049,29.141,1029.151Zm-3.22-4.479c0-2.873,4.38-11.417,7.648-14.92a7.743,7.743,0,0,0,2.013-4.377c0-1.221,1.262-2.926,2.8-3.79s2.344-2.03,1.781-2.593c-1.465-1.465-8.9,6.36-8.156,8.586.34,1.021-.528,1.857-1.93,1.857s-2.549.725-2.549,1.61a1.719,1.719,0,0,1-1.8,1.61c-2.7,0,5.847-10.894,16.52-21.064,9.435-8.99,10.926-11.139,7.728-11.139-.938,0-1.188.837-.556,1.859.664,1.074.446,1.425-.515.831-.915-.565-5.856,3.6-10.98,9.26-5.9,6.514-10.169,9.961-11.643,9.4-1.935-.743-1.875-1.146.358-2.4,1.476-.826,7.248-6.112,12.827-11.745,7.257-7.328,10.637-9.748,11.88-8.505s2.487.988,4.371-.9c2.961-2.961,4.014-3.284,4.014-1.232,0,1.462-9.16,10.61-16.1,16.081-2.214,1.745-3.514,3.685-2.89,4.312,1.422,1.427,17.21-12.211,17.309-14.952.04-1.107,1.773-2.013,3.85-2.013,4.684,0,14.252-4.623,13.175-6.366-.735-1.19,7.694-4.079,16.676-5.715,2.112-.385,4.286-1.189,4.83-1.786s-1.4-.631-4.323-.075c-3.689.7-4.976.466-4.209-.774,1.986-3.213,33.663,1.3,49.776,7.1a87.131,87.131,0,0,1,13.351,7.293c7.831,5.107,11.721,6.027,9.366,2.216-2.291-3.707-29.26-15.085-42.376-17.878-7.785-1.658-11.981-3.072-9.324-3.142s9.54.964,15.3,2.3,11.372,2.527,12.479,2.65,2.013.828,2.013,1.566.906,1.346,2.013,1.352,4.129,1.114,6.715,2.462,5.307,1.848,6.047,1.109-1.558-2.624-5.105-4.189-6.449-3.412-6.449-4.1,3.623.475,8.051,2.594,8.051,4.592,8.051,5.5-.674,1.226-1.5.716a1.854,1.854,0,0,0-2.51.71c-.556.9-.355,1.636.447,1.636,2.035,0,8.392,5.692,8.392,7.515a6.328,6.328,0,0,1-1.9,3.4c-1.462,1.462-3.044,1.06-6.843-1.738-10.414-7.668-30.512-14.97-44.914-16.321-4.124-.387-8.229-1.155-9.122-1.707s-1.625-.237-1.625.7-1.087,1.705-2.415,1.705-2.415.724-2.415,1.61c0,1.877.284,1.883,9.115.172,5.422-1.05,6.536-.87,5.84.943a3.514,3.514,0,0,1-3.479,1.987c-8.4-.811-14.7.274-14.7,2.533,0,3.119-2.268,3.087-4.887-.068-1.481-1.784-2.553-1.992-3.806-.738s-1.093,2.149.572,3.178c1.772,1.1,1.2,1.7-2.429,2.568-10.583,2.532-36.427,22.756-39.538,30.942-2.212,5.817-1.594,8.069.979,3.568,2.8-4.89,3.136-3.344.526,2.385-1.375,3.017-2.252,3.586-3.22,2.089-1.056-1.633-1.646-1.568-2.853.31-.837,1.3-2.028,1.864-2.645,1.247s-.206-2.226.915-3.576,1.593-2.454,1.05-2.454.274-1.582,1.816-3.516c4.559-5.722,21.319-22.652,21.319-21.537,0,.565.906.265,2.013-.668,4.873-4.107,14.432-9.7,16.576-9.7,2.327,0,3.448-3.2,1.136-3.243-3.534-.067-22.532,11.455-29.241,17.734-7.974,7.463-19.467,24.062-19.467,28.114a4.221,4.221,0,0,1-1.61,3.284c-.886.547-1.61-.2-1.61-1.669ZM90.327,972.4c1.882-1.216,1.438-1.566-2.013-1.585-2.435-.014-4.428.7-4.428,1.585C83.886,974.438,87.177,974.438,90.327,972.4Zm83.326,51.391c-1.55-1.7-2.453-3.086-2.008-3.086s-2.148-2.672-5.762-5.938-9.594-8.739-13.288-12.164a129.41,129.41,0,0,0-17.182-12.57c-11.026-6.684-11.49-8.688-.7-3.044,11.532,6.034,13.578,7.425,12.5,8.5-.585.585-.363,1.064.493,1.064a5.482,5.482,0,0,0,3.151-1.594c1.052-1.052,4.583.643,10.385,4.987,4.835,3.62,9.034,7.24,9.331,8.045a1.3,1.3,0,0,0,2.013.554c.81-.5,1.473.708,1.473,2.686v3.6l-4.333-3.9c-2.383-2.147-7.209-6.592-10.724-9.877s-7-5.6-7.752-5.133c-1.156.714,9.191,11.912,11.007,11.912.346,0,3.265,2.866,6.486,6.369s6.277,6.108,6.793,5.79,1.042,1.163,1.17,3.292a14.734,14.734,0,0,1,0,3.737c-.128-.074-1.5-1.523-3.05-3.22ZM96.769,999.76a1.61,1.61,0,1,1,1.61,1.61A1.615,1.615,0,0,1,96.769,999.76Zm67.44-1.387c-2.112-1.648-8.866-6.358-15.008-10.466s-10.128-7.449-8.856-7.425,7.006,3.225,12.743,7.114,11.1,6.656,11.917,6.151.269-1.809-1.22-2.9c-2.37-1.733-2.4-2.1-.244-2.924,1.359-.521,2.518-.065,2.586,1.017a32.674,32.674,0,0,0,2.309,9.61c1.443,3.588.551,3.55-4.228-.179ZM27.57,994.046c-.047-2.115,10.832-13.52,18.408-19.3,5.313-4.052,7.317-7.24,4.5-7.154-.664.02-5.5,4-10.748,8.842s-9.8,8.541-10.128,8.218c-1.127-1.127,11.357-13.876,13.587-13.876,1.235,0,1.831-.672,1.323-1.494s.536-1.958,2.32-2.524,3.244-1.705,3.244-2.531.964-1.5,2.142-1.5,5.707-1.875,10.063-4.168c4.561-2.4,6.176-3.786,3.806-3.268C57.825,957.1,47.5,962.7,40.68,969.077c-3.838,3.591-7.2,6.529-7.476,6.529s-.976-1.246-1.56-2.769-.567-2.273.039-1.667c1.417,1.417,7.119-1.6,7.119-3.767,0-.907-.837-1.132-1.859-.5-1.152.712-1.422.442-.71-.71.632-1.022,2.555-1.859,4.274-1.859s3.125-.661,3.125-1.468c0-1.226,14.024-7.189,24.556-10.442a4.158,4.158,0,0,0,2.793-3.739c-.02-2.33-.3-2.438-1.478-.572-.8,1.263-3.143,2.551-5.208,2.862s-8.34,2.708-13.944,5.326-9.951,4.047-9.661,3.176a1.559,1.559,0,0,1,1.794-1.182c.7.221,1.9-.619,2.67-1.868,1.556-2.517,15.344-8.192,19.909-8.194,1.6,0,2.478-.7,1.947-1.564s1.018-2.061,3.443-2.669c2.8-.7,4.635-.428,5.03.758a2.708,2.708,0,0,0,2.27,1.864c.907,0,1.259-1.016.782-2.257-.533-1.389.484-2.619,2.646-3.2,5.547-1.488,6.961-1.058,3.977,1.209a16.925,16.925,0,0,0-4.388,6.389c-1.428,3.757-1.234,4.3,1.547,4.3,1.749,0,3.18-.738,3.18-1.641s1.63-1.235,3.623-.739,6.521.165,10.063-.736l6.441-1.637-8.453.53c-7.738.485-11.322-1-6.441-2.67,1.107-.379.2-.38-2.013,0-2.929.5-3.549.2-2.276-1.1,2.775-2.828,10.9-3.859,9.9-1.257-.491,1.28.371,2.244,2.126,2.376,1.948.147,2.65-.563,2.066-2.086-.487-1.27-.061-2.308.947-2.308a3.584,3.584,0,0,1,2.756,2.406c.508,1.323,1.649,1.957,2.537,1.409.993-.614.773-1.538-.571-2.4-3.64-2.344,13.539,1.306,27.6,5.865.443.144,3.7,1.567,7.246,3.163,10.107,4.555,3.894,4.679-7.264.145-12.85-5.221-19.126-6.35-24.133-4.339l-4.025,1.616,4.025-.084c6.77-.141,20.524,3.22,27.281,6.666,3.522,1.8,7.563,3.267,8.979,3.267s2.128.722,1.583,1.6c-.622,1.006-2.827.655-5.916-.942-3.54-1.831-5.415-2.055-6.671-.8s-1,1.747.9,1.747a4.806,4.806,0,0,1,3.744,1.783c.716,1.158.044,1.463-1.918.868a133.838,133.838,0,0,0-43.971-5.448c-13.67.692-14.877.53-12.076-1.623,2.955-2.272,2.891-2.354-1.267-1.634-2.408.417-4,.138-3.528-.619s-.641-1.377-2.464-1.377-3.315.767-3.315,1.705.743,1.246,1.65.685,1.451-.06,1.208,1.113a1.326,1.326,0,0,0,1.69,1.69c1.173-.243,1.673.3,1.113,1.208a4.3,4.3,0,0,1-3.34,1.65c-1.276,0-2.32.767-2.32,1.705s-.732,1.253-1.626.7-3.528.491-5.853,2.32-5.127,3.325-6.228,3.325-2.9,1.087-4.005,2.415c-2.92,3.518-.108,2.877,7.246-1.652,7.305-4.5,10.2-5.125,7.246-1.568-1.1,1.328-1.465,2.415-.805,2.415s.3,1.087-.805,2.415-2.779,2.415-3.725,2.415-.314-1.064,1.4-2.364c3.087-2.335,3.087-2.365.01-2.415-1.714-.028-4.832,1.56-6.928,3.53-3.188,2.994-4.047,3.2-5.252,1.25-1.594-2.58-3.684-1-17.085,12.881-3.846,3.985-7.01,6.486-7.03,5.557Zm44.058-35.675c-2.832-.944-20.609,7.982-19.034,9.557.489.489,5.344-1.337,10.789-4.058s9.155-5.2,8.245-5.5Zm62.175-.442c0-.763-2.355-1.939-5.233-2.613s-6.32-1.489-7.648-1.811c-5-1.212-30.851-.455-33.413.978-1.811,1.013,1.455,1.465,10.138,1.4,15.53-.113,30.934,1.685,32.217,3.76,1.051,1.7,3.94.442,3.94-1.716Zm12.116,33.283c-9-5.427-14.322-9.164-13.053-9.164,2.479,0,18.649,8.668,18.649,10,0,1.727-1.792,1.46-5.6-.834Zm-66.862-1.918c1.1-1.328,2.729-2.415,3.615-2.415s.724,1.068-.394,2.415c-1.1,1.328-2.729,2.415-3.615,2.415S77.938,990.641,79.056,989.294Zm21.738-.805-6.441-1.153,6.843-.229c3.764-.126,6.843.5,6.843,1.382s-.181,1.507-.4,1.382S104.336,989.123,100.794,988.489Zm-7.246-3.838c0-.34,1.811-.964,4.025-1.387s4.025-.145,4.025.617-1.811,1.387-4.025,1.387S93.548,984.991,93.548,984.651ZM133.1,978.9c-1.712-.622-2.4-1.57-1.533-2.107,1.661-1.026,6.715,1.354,5.405,2.547-.417.38-2.159.182-3.872-.44Zm-63.515-6.875c1.732-3.236,7.785-6.223,9.98-4.925.724.428,1.714-.744,2.2-2.6a19.248,19.248,0,0,1,1.1-3.468c.118-.047,4.3-.47,9.3-.939,5.826-.548,9.479-.209,10.192.945.759,1.228-.335,1.532-3.445.957-6.308-1.165-15.023.664-15.023,3.154,0,2.506-4.093,4.543-10.818,5.383-1.079.135-1.591,1.211-1.138,2.392a1.5,1.5,0,0,1-1.574,2.147c-1.852,0-2.027-.693-.769-3.043Zm79.14-8.664c.535-.535,1.924-.592,3.086-.127,1.284.514.9.9-.973.973-1.7.07-2.648-.311-2.113-.846ZM48.464,948.235a10.652,10.652,0,0,1,4.83-1.561c2.147,0,2.147.173,0,1.561a10.654,10.654,0,0,1-4.83,1.561C46.318,949.8,46.318,949.623,48.464,948.235Zm83.727-2.415a20.8,20.8,0,0,0-8.453-2.358c-2.435-.031-4.428-.866-4.428-1.855,0-1.054-1.681-1.476-4.064-1.021-2.235.427-4.375.273-4.756-.343s-5.616-.937-11.635-.714c-6.333.234-9.6-.114-7.755-.828,1.754-.679,10.7-1.33,19.89-1.447,13.916-.178,16.4.152,14.884,1.977-1.459,1.758-.619,2.439,4.262,3.453a38.9,38.9,0,0,0,7.135,1.043c.58-.121,1.463.844,1.962,2.144,1.138,2.965-1.8,2.944-7.042-.051Zm-75.676.132c0-.559,1.855-1.722,4.122-2.584,2.508-.954,3.672-2.3,2.972-3.429-.633-1.024-.476-1.445.348-.936,2.284,1.411,20.262-3.191,21.728-5.562,1-1.616,1.722-1.653,3.211-.163,2.144,2.144,1.512,2.461-16.279,8.17-5.756,1.847-11.734,3.845-13.284,4.44s-2.818.624-2.818.065Zm34.244-12.379c-.224-2.978.37-3.269,4.89-2.395,13.116,2.537,21.394,2.188,19.533-.824-.49-.793-.511-1.441-.047-1.441s1.592,1.4,2.507,3.108c1.57,2.933,1.022,3.11-9.705,3.144-6.253.02-12.618.432-14.145.917-1.989.631-2.849-.081-3.032-2.509Zm-18.947-.582c6.876-2.147,11.786-2.179,10.466-.069-.443.708-4.428,1.465-8.856,1.683l-8.051.4Z"/>
        </g>
        <g id="layer1-2" data-name="layer1" transform="translate(1470.564 -252.284)">
          <path id="path2832-2" data-name="path2832" d="M106.449,1155.328c0-1.7,3.09-2.414,4.009-.926.556.9-.118,1.636-1.5,1.636s-2.51-.32-2.51-.71Zm-17.712-3.41c0-1.381.725-2.063,1.61-1.515a3.453,3.453,0,0,1,1.61,2.51,1.569,1.569,0,0,1-1.61,1.515C89.462,1154.428,88.737,1153.3,88.737,1151.918Zm11.271,1.072c0-1.548,3.916-3.425,6.975-3.341,1.035.029.475,1.115-1.245,2.415-3.548,2.684-5.73,3.036-5.73.926Zm22.542-3.148c0-.751,2.877-2.663,6.393-4.248s7.614-4.231,9.105-5.88c3.281-3.626,4.9-3.818,4.9-.582a2.268,2.268,0,0,1-2.066,2.415c-1.136,0-5.287,2.174-9.223,4.83-7.547,5.094-9.106,5.687-9.106,3.465Zm8.051-.245c0-.885,1.13-1.61,2.51-1.61s2.062.725,1.515,1.61a3.452,3.452,0,0,1-2.51,1.61A1.569,1.569,0,0,1,130.6,1149.6Zm12.18.168c-.49-.793.192-1.857,1.515-2.365,1.461-.561,2.406,0,2.406,1.441,0,2.6-2.516,3.2-3.921.923Zm-51.422-1.442c-.433-.7,1.7-.984,4.735-.629s5.523.928,5.523,1.274c0,1.212-9.479.616-10.258-.645Zm23.85-1.193c1.719-1.3,3.791-2.364,4.606-2.364,2.04,0,17.226-9.948,17.226-11.284,0-.594,1.811-1.906,4.025-2.915s4.025-1.493,4.025-1.076c0,1.376-6.995,8.833-8.285,8.833-.7,0-4.656,2.151-8.8,4.78s-8.106,4.429-8.8,4a1.753,1.753,0,0,0-2.275.856,3.707,3.707,0,0,1-2.929,1.585c-1.055-.027-.511-1.115,1.208-2.415Zm-30.1-.254c-1.55-.4-2.818-1.34-2.818-2.078s1.449-.963,3.22-.5,3.22,1.482,3.22,2.265-.181,1.338-.4,1.236-1.671-.518-3.22-.923Zm19.724-.5a1.61,1.61,0,1,1,1.61,1.61A1.615,1.615,0,0,1,104.838,1146.377Zm45.084.044c0-2.183,2.861-3.538,3.9-1.849.5.807-.176,1.883-1.5,2.391s-2.406.264-2.406-.541Zm-40.738-2.2c-.53-1.38-2.769-1.956-6.21-1.6-3.995.416-4.574.212-2.248-.791,3.005-1.3,2.988-1.39-.4-2.277-2.394-.626-3.537-.2-3.537,1.322,0,3.15-7.841,2.259-8.878-1.009-.892-2.812-16.884-11.767-16.884-9.455,0,.775,2.849,2.864,6.331,4.64,6.365,3.247,9.736,6.5,6.74,6.5a3.526,3.526,0,0,1-2.605-1.61,4.919,4.919,0,0,0-3.817-1.61c-1.552,0-4.227-1.268-5.944-2.818s-5.839-4.847-9.159-7.328-6.037-5.273-6.037-6.205,2.612.6,5.8,3.4,6.271,4.631,6.841,4.061-.412-2.031-2.182-3.246c-4.541-3.118-8.876-7.514-10.661-10.811-2.623-4.844,1.419-3.215,5.382,2.17,2.019,2.743,6.932,6.853,10.917,9.133s8.225,4.895,9.421,5.81a11.387,11.387,0,0,0,4.332,1.981c1.186.173,5.067.724,8.624,1.221,6.39.894,12.884,3.712,14.879,6.458,1.458,2.006,4.887-.464,3.58-2.579-.646-1.044-.33-1.284.783-.6,1.331.822,1.386,2.044.192,4.274-1.946,3.637-4.086,4.029-5.262.964Zm-15.665-5.955c-3.79-2.4-5.712-1.776-2.276.737,1.718,1.256,3.465,1.941,3.884,1.523s-.3-1.435-1.608-2.259Zm-16.928,4.784a2.89,2.89,0,0,0-3.4-.823c-1.285.493-1.926.232-1.424-.579s-.619-1.962-2.49-2.556c-3.259-1.035-9.525-6.311-9.525-8.021,0-1,6.354,2.533,9.16,5.1a32.62,32.62,0,0,0,6.905,4.016c2.676,1.185,4.866,2.7,4.866,3.371,0,1.82-2.876,1.467-4.093-.5Zm42.705-2.269c1.66-2,1.613-2.452-.255-2.452a6.952,6.952,0,0,1-4.183-1.893c-1.451-1.451-.764-2.579,2.937-4.83,5.539-3.369,6.363-3.544,6.363-1.358,0,.869-1.811,2.034-4.025,2.59s-4.025,1.656-4.025,2.446c0,2.748,3.878,1.408,8.365-2.891,2.484-2.38,4.516-3.527,4.516-2.549s-1.993,3.264-4.428,5.081-3.676,3.327-2.757,3.355,4.18-2.172,7.246-4.89,4.719-4.517,3.673-4c-2.384,1.181-4.382-1.741-2.139-3.127,2.642-1.633,6.366-9.8,7.382-16.193.706-4.441.446-5.6-1.051-4.671s-1.738-.288-.95-5.06a81.183,81.183,0,0,0,1.056-9.911c.01-1.993.791-3.623,1.736-3.623.986,0,1.283,1.373.7,3.22-.637,2.006-.289,3.22.922,3.22,2.4,0,.976-17.263-1.634-19.874a8.365,8.365,0,0,1-1.7-5.128c0-3.515-5.627-18.485-11.786-31.353-4.5-9.407-14.176-19.279-19.911-20.32-11.473-2.081-23.387,5.518-28.787,18.362-3.405,8.1-3.088,27.439.544,33.243a11.323,11.323,0,0,1,1.362,3.585c.156,1.024,2.712,5.143,5.681,9.153,4.643,6.272,6.073,7.208,10.228,6.7,2.657-.325,5.62-.64,6.585-.7,1.777-.11,5.491-6.885,5.491-10.016,0-.937-2.154.6-4.786,3.419-4.685,5.015-8.846,5.488-7.048.8.506-1.318,0-2.364-1.151-2.364-1.132,0-3.383-1.2-5-2.665-1.738-1.573-2.945-1.908-2.945-.819,0,1.016,1.449,2.751,3.22,3.857s3.22,2.6,3.22,3.325-1.521.249-3.379-1.053c-4.011-2.809-8.253-10.421-6.967-12.5,1.418-2.294,3.874.019,2.851,2.679-.618,1.609-.156,2.091,1.423,1.485,1.285-.493,3.266.223,4.4,1.592,2.98,3.591,12.763,3.337,12.67-.329a67.2,67.2,0,0,1,1.467-10.278c2.173-10.535-3.5-25.4-9.744-25.524-.716-.014-.855.7-.308,1.586s.236,1.61-.691,1.61-2.15,2.9-2.716,6.441-1.7,6.441-2.529,6.441-1.083-.675-.573-1.5a1.871,1.871,0,0,0-.736-2.526,2.107,2.107,0,0,1-.474-2.929c1.806-2.889,1.976-5.927.332-5.927-.807,0-1.468,1.449-1.468,3.22s-.782,3.22-1.738,3.22c-2.058,0-.262-10.17,1.944-11.006a1.156,1.156,0,0,0,.705-1.7c-.4-.64.9-3.2,2.885-5.684,4.2-5.262,11.433-6.674,16.677-3.254,5.64,3.678,7.822,2.709,3.723-1.653-3.064-3.261-4.784-3.819-9.539-3.092-7.447,1.138-12.672,4.536-16.019,10.42-1.465,2.575-3.3,4.687-4.068,4.692s-.6-.962.389-2.151,1.418-2.536.96-2.995c-1.116-1.116,11.6-12.52,14.15-12.691,1.1-.074,3.762-.324,5.906-.556,3.626-.393,6.282,1.427,16.8,11.512,2.658,2.548,8.329,13.59,11.306,22.011.913,2.583.7,2.736-1.376,1.01a6.931,6.931,0,0,1-2.452-4.46c0-3.088-9.461-19.724-11.217-19.724-2.838,0-2.933,4.544-.111,5.282,3.009.787,9.119,12.514,12.14,23.3.558,1.993,1.668,3.623,2.466,3.623s1.034-1.087.524-2.415-.2-2.415.681-2.415c1.468,0,3.5,5.215,4.387,11.271.2,1.328.921,4.516,1.612,7.083.9,3.346.736,4.346-.583,3.531-1.012-.626-2.3-4.01-2.862-7.522s-1.606-6.746-2.322-7.188c-2.295-1.418-.95,6.335,2.046,11.793,3.531,6.434,3.72,12.644.484,15.88a8.908,8.908,0,0,0-2.415,5.37c0,2.162-.864,2.729-3.22,2.112-2.309-.6-3.22-.05-3.22,1.958,0,2.423.36,2.5,2.677.59,2.3-1.9,2.558-1.866,1.839.205a3.639,3.639,0,0,1-3.644,2.165c-1.556-.139-3.96,1.759-5.4,4.261-3.007,5.239-10.4,7.984-19.529,7.25-13.7-1.1-31.194-19.246-33.368-34.608-.488-3.452-.326-3.623,1.14-1.195.94,1.557,1.265,3.549.722,4.428s-.4,1.6.315,1.6,3.309,3.574,5.761,7.939c6.882,12.253,15.064,17.886,27.028,18.61,9.475.573,10.056.381,15.345-5.065,3.024-3.113,5.5-7.1,5.5-8.868,0-2.441-1.266-1.543-5.3,3.761-4.405,5.79-6.352,7.055-11.52,7.483a38.4,38.4,0,0,1-9.966-.426c-4.766-1.2-14.3-9.532-20.183-17.64-5.629-7.762-6.014-11.524-.527-5.144,2.213,2.573,4.023,5.2,4.023,5.836,0,2.172,10.71,12.857,11.8,11.77.6-.6,1.084-.271,1.084.722,0,2.618,10.844,4.31,13.5,2.106a5.626,5.626,0,0,1,5.077-.714c1.98.76,2.519.516,1.719-.777-1.378-2.23-6.913-2.524-7.683-.408-.724,1.991-12.428-2.177-15.667-5.581-2.406-2.527-2.307-2.567,1.444-.576,6.385,3.387,12.857,3.592,16.259.514,1.953-1.768,3.063-2.064,3.063-.818,0,1.075.725,1.507,1.61.96a3.527,3.527,0,0,0,1.61-2.605c0-.886-.725-1.163-1.61-.615-1.733,1.071-2.247-1.242-.633-2.855,2.121-2.121,5.14,2.819,3.552,5.811-2.722,5.127-.15,4.747,2.907-.429,1.606-2.718,3.85-4.942,4.987-4.942a1.888,1.888,0,0,0,2.068-1.61,1.672,1.672,0,0,1,1.719-1.61c.986,0,1.283,1.373.7,3.22-.562,1.771-.306,3.22.569,3.22,2.111,0,4.22-9.056,3.751-16.1-.5-7.466-1.531-10.081-3.5-8.863-.965.6-1.615-1.156-1.605-4.326.02-6.693-5.875-23.714-9.986-28.833l-3.106-3.867,2.578,5.636c1.418,3.1,3.181,6.746,3.918,8.1,1.553,2.861,2.839,8.959,4.108,19.479.764,6.332.452,7.573-2.072,8.232-3.017.789-3.6,2.72-3.662,12.087-.019,2.878-.759,5.233-1.645,5.233s-1.094-.837-.462-1.859c.747-1.208.438-1.419-.883-.6-1.545.955-1.7.34-.651-2.569,1.726-4.782,1.182-27.208-.7-29.1-.79-.79-1.1.642-.709,3.293.379,2.58.026,5.1-.784,5.6s-1.481-1.044-1.491-3.432a70.291,70.291,0,0,0-1.171-10.38c-1.312-6.877-.066-8.01,2.214-2.013.842,2.214,2.635,4.025,3.985,4.025,1.869,0,2.455,1.9,2.455,7.956,0,4.376.751,8.42,1.67,8.988,1.542.953,1.125-8.655-.776-17.875-.921-4.47-5.582-13.554-10.04-19.571-3.006-4.057-3.252-4.974-1.117-4.154,1.7.651,2.347.414,1.707-.62-1.5-2.427-13.683-4.037-16.889-2.231-2.153,1.213-1.624,1.509,2.494,1.4,6.065-.164,12.7,5.827,18.034,16.281,3.623,7.1,3.908,8.22,2.089,8.22-.669,0-2.212-2.247-3.427-4.993-1.647-3.72-2.562-4.439-3.589-2.818-1.124,1.773-1.418,1.729-1.594-.24a18.8,18.8,0,0,1,.01-3.728c.124-.722-1.3-3.458-3.168-6.079-2.742-3.85-4.431-4.7-8.787-4.4-2.966.2-5.015.974-4.553,1.722s-.036,2.414-1.106,3.7c-2.456,2.959-1.487,2.956,4.236-.014,4.09-2.122,4.795-2.082,7.039.4,4.433,4.908,6.874,12.2,7.53,22.486.459,7.2.082,10.063-1.323,10.063-1.489,0-1.513.452-.1,1.864s2.419,1.4,4.153-.035c1.853-1.538,2.426-1.181,3.01,1.87a14.743,14.743,0,0,1-.5,6.879c-1.07,2.732-1.239,2.62-1.394-.916-.173-3.958-.214-3.944-2.422.805a61.048,61.048,0,0,1-3.687,6.9c-1.644,2.355-16.47,4.628-16.509,2.531-.048-2.545-9.168-11.771-10.472-10.593-.71.641-.849.389-.309-.56s-.134-3.848-1.5-6.441c-3.236-6.159-3.909-9.212-4.576-20.761-1.04-18,9.014-33.9,23.813-37.652,5.577-1.416,7.812-1.178,13.8,1.469,3.927,1.737,7.512,2.787,7.965,2.334s.523-1.006.154-1.227c-7.705-4.623-12.112-6.038-18.807-6.038-7.043,0-8.854.771-15.451,6.577-5.089,4.479-7.472,5.769-7.472,4.042,0-1.395,3.983-5.18,8.85-8.412,8.341-5.538,9.407-5.826,18.522-5,7.794.707,9.95.38,11.1-1.684,1.3-2.319,1.843-2.292,5.77.281,2.385,1.563,4.728,2.45,5.206,1.972,1.23-1.23,10.122,3.588,10.122,5.484,0,2.267-2.831,1.931-3.618-.429-.492-1.475-1.335-1.33-3.217.553-2.328,2.328-1.943,3.2,4.406,10.022,5.423,5.823,7.878,10.425,11.134,20.871,2.3,7.371,4.177,14.267,4.177,15.323s.6,1.922,1.342,1.922c1.871,0,1.77-5.217-.148-7.648-.873-1.107-1.163-2.013-.643-2.013s-.453-3.261-2.161-7.246c-2.921-6.814-2.823-8,.608-7.368,1.36.249,1.034-1.839-1.362-8.734-1.1-3.175-1.083-3.176,1.427-.095,2.881,3.536,3.338,8.271.942,9.752-1.02.63-.788,2.571.636,5.328,3.051,5.9,5.847,16.714,6.106,23.6.118,3.13.87,5.691,1.672,5.691,1.7,0,.1-14.689-2.265-20.8a57.557,57.557,0,0,1-2.134-6.572,40.92,40.92,0,0,0-1.639-5.233c-.645-1.629-.385-2.818.616-2.818.953,0,1.333-1.268.846-2.818-1.929-6.135,4.65,3.752,9.895,14.87,7.349,15.578,5.145,16.724-2.48,1.289-6.865-13.9-8.53-14.965-2.669-1.714,2.067,4.675,3.832,8.862,3.921,9.3s.541,1.892,1,3.22,1.589,4.951,2.506,8.051c1.258,4.257,1.525,4.543,1.09,1.169-.317-2.457,0-4.821.7-5.254,1.927-1.191,5.228,16.342,5.393,28.637.08,5.976.689,10.867,1.353,10.869s1.208.742,1.208,1.645-1.811,1.313-4.025.912c-3.242-.588-4.025-.075-4.025,2.634,0,1.85-1.848,5.787-4.107,8.749s-3.527,5.374-2.818,5.36c2.244-.044,4.707-2.29,5.824-5.31.615-1.665,1.871-2.43,2.924-1.78,1.7,1.052-11.609,15.188-20.339,21.6-3.129,2.3-3.14,2.271-.4-.954,3.54-4.17,3.588-5.676.138-4.352-2.942,1.129-2.079-1.183,2.378-6.372,1.336-1.555,1.943-3.314,1.349-3.908s-2.205.316-3.58,2.023c-2.786,3.458-2.6,2.7,1.563-6.47,3.567-7.851,4.528-11.5,4.79-18.2.113-2.878.849-5.233,1.637-5.233,2.073,0-.03,15.107-2.866,20.59-2.181,4.217-2.15,4.927.316,7.431,2.563,2.6,2.558,2.894-.09,4.86-3.456,2.566-3.61,4.152-.4,4.152a2.358,2.358,0,0,0,2.415-2.281,3.863,3.863,0,0,1,2.013-3.22c1.6-.745,1.6-1.133.016-1.873-1.426-.667-.842-2.447,2.043-6.23,2.561-3.358,3.678-6.4,3.052-8.325-.814-2.5-.683-2.6.75-.613,1.5,2.088,1.741,2.033,1.762-.4.013-1.55-.7-2.818-1.585-2.818a1.545,1.545,0,0,1-1.61-1.46c0-.8,1.268-1.269,2.818-1.036s1.885.106.745-.281c-2.928-.994-2.177-22.987.785-22.987a2.362,2.362,0,0,0,2.093-2.549c0-1.4-.906-2.236-2.013-1.854s-2.9-1.532-4.01-4.294c-1.95-4.871-1.977-4.818-1.149,2.256.823,7.027.775,7.124-1.579,3.22s-2.408-3.756-1.828,4.025c.844,11.331,1.168,12.02,2.652,5.635.81-3.484,1.009.818.521,11.271-.66,14.142-1.318,17.433-4.025,20.127l-3.237,3.22,1.854-4.83c3.109-8.1,4.537-21.925,2.351-22.764-1.052-.4-2.049-4.142-2.215-8.307a84.8,84.8,0,0,0-.853-9.988c-.3-1.328-1.1-4.77-1.762-7.648s-1.808-5.233-2.537-5.233-.585,2.123.319,4.717a24.671,24.671,0,0,1,1.1,9.258c-.4,3.344-1.28,1.42-3.331-7.3-1.532-6.511-2.384-12.489-1.893-13.284s.126-1.445-.812-1.445-1.705-2.493-1.705-5.541-.644-5.939-1.432-6.425-1.923-2.843-2.524-5.236c-1.417-5.644-15.5-23.327-20.864-26.2-5.942-3.18-6.964-.959-1.142,2.48,2.67,1.577,4.489,3.459,4.042,4.182s.317,1.315,1.7,1.315,2.517.543,2.524,1.208,2.363,3.758,5.233,6.875,5.5,6.74,5.847,8.051,1.844,6.764,3.329,12.118,2.433,10.541,2.1,11.526a2.581,2.581,0,0,0,1.1,2.838,3.727,3.727,0,0,1,1.7,2.76c0,1.08-.892.972-2.415-.292a6.938,6.938,0,0,1-2.415-4.519c0-1.383-1.562-5.823-3.471-9.866s-4.1-8.8-4.863-10.572c-1.3-3.011-1.26-3.028.653-.263,5.754,8.318,5.987,8.527,4.791,4.288a34.483,34.483,0,0,0-3.119-7.246c-1.631-2.649-2.248-2.818-3.474-.951-1.8,2.736-.351,7.512,6.5,21.458a15.159,15.159,0,0,1,1.373,5.575c0,1.528,1.815,4.255,4.033,6.06,2.863,2.329,4.328,5.5,5.049,10.929.628,4.728.4,7.648-.6,7.648-.891,0-1.614-1.268-1.608-2.818.033-8.384-.683-11.7-3.037-14.051-1.434-1.434-3.043-2.171-3.576-1.638s.036,1.59,1.264,2.349c3.007,1.859,3.471,23.595.491,23-1.107-.221-2.013.322-2.013,1.208a1.615,1.615,0,0,0,1.61,1.61c.886,0,1.61,1.519,1.61,3.375,0,4.572-4.813,21.076-6.908,23.686-.929,1.157-1.022,1.881-.208,1.61,1.467-.489,2.285.679,2.285,3.259,0,1.579-12.345,10.521-16.732,12.119-2.584.941-2.737.738-1.01-1.343Zm49.684-40.694a7.9,7.9,0,0,1,.715-4.7c.648-1.032.5-3.675-.34-5.872s-1.082-4.432-.548-4.966.125-.971-.908-.971c-2.307,0-2.5,5.865-.242,7.262a1.867,1.867,0,0,1,.694,2.537,1.915,1.915,0,0,1-2.65.47c-1.027-.635-1.3-.164-.695,1.181.557,1.23,1.46,3.5,2.007,5.055s1.317,2.818,1.712,2.818.51-1.268.255-2.818Zm-37.558-67.257c.977-.9.433-1.047-1.406-.384-2.225.8-2.762.467-2.083-1.3.534-1.393-1.143-4.437-4.042-7.336-6.25-6.25-7.756-5.112-2.549,1.926a44.653,44.653,0,0,1,5.08,8.514c.633,1.779,1.631,2.487,2.27,1.61a25.026,25.026,0,0,1,2.731-3.029Zm-3.012-20.274c.423,0,.363-.657-.133-1.459s-2.268-1.1-3.939-.665-3.524.006-4.119-.956a3.882,3.882,0,0,0-3-1.715c-1.055.02-.106,1.456,2.108,3.192s4.99,2.806,6.17,2.379a13.342,13.342,0,0,1,2.913-.776Zm-22.768,123.983c-.547-.885.5-1.61,2.32-1.61s3.315.724,3.315,1.61-1.044,1.61-2.32,1.61A4.259,4.259,0,0,1,105.643,1136.536Zm50.689-.768a6.771,6.771,0,0,1,4.253-2.452c1.22,0,2.037-.646,1.816-1.435-.419-1.493,6.5-8.226,8.452-8.226,1.988,0-10.367,12.3-13.51,13.451-2.584.945-2.737.743-1.01-1.338Zm-58.8-2.553c-1.489-2.409-1-2.608,8.516-3.481,9.134-.838,10.532-.324,4.83,1.776-7.548,2.781-12.306,3.388-13.346,1.7Zm-10-1.559c-1.993-.8-3.623-1.842-3.623-2.313,0-1.768,5.943-.768,8.951,1.507,3.648,2.759.657,3.212-5.328.806Zm-10.078-5.6c-2.173-2.618-.469-3.165,3-.964,1.327.841,1.557,1.772.585,2.373-.88.544-2.5-.091-3.589-1.409Zm10.465.116a49.382,49.382,0,0,1-10.176-6.548c-3.222-2.715-5.234-3.615-5.042-2.255a31.947,31.947,0,0,1,.128,5.278c-.16,2.534-.588,2.685-2.682.948-1.859-1.543-2-2.372-.556-3.264,1.355-.838.584-2.448-2.574-5.375-2.48-2.3-3.989-4.179-3.352-4.179s-.41-1.993-2.326-4.428c-2.928-3.723-8.021-13.815-8.021-15.9,0-.335.711-.608,1.579-.608s2.047,1.863,2.619,4.14,3.588,7.893,6.7,12.479c7.011,10.321,6.613,9.877,7.792,8.7.54-.54-1.344-4.427-4.187-8.639-6.569-9.733-11.432-21.51-8.882-21.51.718,0,4.6,8.417,5.574,12.076a30.023,30.023,0,0,0,3.471,5.884c1.674,2.351,3.043,4.757,3.043,5.348,0,2.031,4.807,5.879,6.239,4.994.788-.487,3.263.553,5.5,2.312,4.41,3.469,7.583,4.138,7.583,1.6,0-1.8,5.682-1.318,7.607.642.687.7-.2,1.032-1.971.739s-3.22.179-3.22,1.05c0,1.692.561,1.853,8.051,2.316,4.208.26,4.415.478,1.61,1.683-2.7,1.16-2.373,1.4,2.013,1.5,2.878.064,5.233.9,5.233,1.851,0,2.053-10.168.265-11-1.934-.3-.778-2.107-1.4-4.025-1.39-2.571.019-2.914.389-1.3,1.409,3.763,2.385-.371,3.208-5.421,1.08Zm3.206-2.465c.815-1.318-2.148-3.125-12.851-7.833-.886-.389.125,1.18,2.247,3.488s4.426,3.845,5.122,3.415a1.754,1.754,0,0,1,2.276.855c1.263,2.043,1.98,2.06,3.206.075Zm29.474.548c2.846-2.228,5.175-5.133,5.175-6.457,0-1.609.987-2.094,2.978-1.462,2.308.733,3.358-.239,4.666-4.32,1.381-4.308,1.718-4.592,1.852-1.562a19.442,19.442,0,0,1-2.086,8.054c-2.771,5.36-9.021,11.265-9.021,8.524,0-1.161-.817-1.444-2.013-.7-5.018,3.135-6.2,1.554-1.552-2.081Zm8.449-3.012c2.185-2.979,2.151-3.055-.456-1.01-1.55,1.215-2.818,2.966-2.818,3.891s.205,1.38.456,1.01S127.744,1123.011,129.043,1121.24Zm10.528,3.105c-.618-2.464-.356-5.119.6-6.076.935-.935,1.71-3.547,1.724-5.805a14.526,14.526,0,0,1,1.586-6.521c2.682-4.15,1.9,6.648-.863,11.951-1.953,3.746-2.036,4.963-.406,5.971,1.506.931,1.573,1.741.253,3.061s-2.086.637-2.893-2.581Zm-28.294.92a1.89,1.89,0,0,0-2.07-1.61c-2.45,0-2.831-6.329-.4-6.686.917-.135,2.392-.35,3.278-.478,3.64-.526,8.856-5.07,8.856-7.715,0-3.26,2.034-3.581,6.741-1.062,2.413,1.292,3.011,1.289,2.208-.019-1.18-1.909,1.987-12.785,4.5-15.448.974-1.033,1.185-.658.59,1.045-.511,1.46-1.809,7.129-2.885,12.6-1.086,5.521-2.479,9.1-3.132,8.042-.9-1.455-1.451-1.458-2.345-.019a2.8,2.8,0,0,1-3.245,1.1c-1.142-.438-3.681.7-5.643,2.527-2.674,2.491-3.878,2.822-4.806,1.32-.88-1.423-1.557-1.487-2.34-.221-.606.981-.488,1.783.261,1.783s1.472,1.449,1.605,3.22-.075,3.22-.462,3.22-.705-.724-.705-1.61Zm15.077-16.456c-.6-.972-1.532-.742-2.373.585-2.2,3.474-1.654,5.177.964,3,1.319-1.094,1.953-2.71,1.409-3.589ZM114.5,1124.281c0-1.188,6.9-6.943,8.4-7.013.636-.029.778.935.314,2.144-.843,2.2-8.717,6.6-8.717,4.87Zm-13.686-5.456c-.547-.886-.271-1.61.615-1.61a3.526,3.526,0,0,1,2.605,1.61c.547.885.271,1.61-.615,1.61A3.527,3.527,0,0,1,100.812,1118.825Zm44.279.191a3.526,3.526,0,0,1,1.61-2.605c.886-.547,1.61-.271,1.61.615a3.527,3.527,0,0,1-1.61,2.605C145.816,1120.178,145.091,1119.9,145.091,1119.016Zm-93.388-2.7c0-1.381.725-2.062,1.61-1.515a3.452,3.452,0,0,1,1.61,2.51,1.57,1.57,0,0,1-1.61,1.515C52.427,1118.826,51.7,1117.7,51.7,1116.316Zm10.247-1.371c-13.359-18.032-16.494-23.491-13.492-23.491.816,0,2.748,2.717,4.294,6.038a41.439,41.439,0,0,0,3.708,6.843c2.764,2.478,9.941,13.213,9.277,13.877C65.3,1118.643,63.6,1117.173,61.949,1114.944Zm110.642,1.6c-.07-1.7.311-2.648.846-2.113s.592,1.924.127,3.086c-.514,1.284-.9.9-.973-.973Zm-88.671-3.337c-1.094-1.318-2.632-2-3.417-1.515s-1.428-.247-1.428-1.628c0-3.292.288-3.217,5.788,1.513,2.573,2.213,3.861,4.024,2.863,4.026s-2.711-1.077-3.805-2.4Zm83.714,1.79c0-.334,1.1-1.524,2.452-2.643,2.05-1.7,2.286-1.6,1.438.608-.866,2.257-3.89,3.839-3.89,2.035Zm-20.353-3.82c2.126-7.515,2.925-20.09,1.209-19.03-.984.608-1.79,3.28-1.79,5.937s-.584,4.47-1.3,4.028c-2.2-1.36-.175-12.269,2.279-12.269,1.231,0,2.239-1.449,2.239-3.22s.6-3.22,1.326-3.22c1.292,0,1.037,13.683-.374,20.127a46.028,46.028,0,0,0-.828,6.843c-.068,1.993-.9,3.623-1.842,3.623s-1.36-1.268-.922-2.818ZM47.428,1109.9c-.524-1.367-.594-2.844-.154-3.284s1.186.678,1.658,2.485c1,3.837-.111,4.429-1.5.8Zm5.348-.2a4.435,4.435,0,0,1-1.073-2.737c0-1.009.75-.914,1.905.241,1.048,1.048,1.531,2.28,1.073,2.737a1.385,1.385,0,0,1-1.905-.242Zm16.193-10.52c-2.412-3.72-4.385-7.946-4.385-9.393a6.24,6.24,0,0,0-1.12-3.75,7.85,7.85,0,0,1-1.5-3.7c-.593-4.041,1.636-.542,5.807,9.113,2.1,4.871,5.226,10.124,6.938,11.674,2.188,1.981,2.449,2.818.879,2.818-1.229,0-4.207-3.043-6.619-6.763Zm-21.292,1.932c-.547-.886-.228-1.61.71-1.61a1.665,1.665,0,0,1,1.705,1.61c0,.886-.32,1.61-.71,1.61s-1.158-.724-1.705-1.61Zm126.4-.71c0-2.828.966-3.245,2.346-1.011a1.854,1.854,0,0,1-.71,2.51c-.9.556-1.636-.118-1.636-1.5Zm-131.158-2.4a1.853,1.853,0,0,1,.71-2.51c.9-.557,1.636.118,1.636,1.5,0,2.828-.966,3.245-2.346,1.011Zm49.076-2.055c-9.156-3.515-12.921-7.063-18.8-17.717-1.919-3.477-3.941-5.526-4.523-4.584-1.78,2.88-3.67,1.9-4.477-2.322-.423-2.214-.145-4.025.617-4.025s1.387,1.087,1.387,2.415.725,2.415,1.61,2.415c2.04,0,2.056-3.448.04-8.751-.864-2.272-2.689-4.13-4.056-4.13-1.9,0-2.231-1.041-1.4-4.428.6-2.435,1.7-4.669,2.446-4.965,2.206-.87,1.556-3.489-.866-3.489-2.333,0-4.154,4.721-4.191,10.868-.013,1.993-.742,3.623-1.622,3.623s-1.358-1.268-1.062-2.818c2.572-13.483,3-14.5,5.758-13.783,1.62.424,2.818-.167,2.831-1.4.037-3.435,7.219-19.037,8.763-19.037,2.148,0,1.686,2.6-.835,4.691-2.055,1.706-5.227,13.209-3.94,14.287.3.254-.536,1.148-1.864,1.988-1.38.873-1.608,1.537-.532,1.551s1.806,2.245,1.7,5.258c-.716,20.617,11.919,40.165,27.842,43.078,3.526.645,6.437.726,6.469.181.137-2.349,7.673-10.058,8.509-8.7.507.82-.88,3.435-3.083,5.81s-3.432,4.33-2.732,4.343.186.727-1.142,1.585c-3.043,1.967-2.41,2.062-12.846-1.943Zm-26.344-43.437c-.447-1.107-.812-.2-.812,2.013s.365,3.12.812,2.013a6.214,6.214,0,0,0,0-4.025Zm-25.173,36.749c-2.023-5.321-2.127-8.974-.256-8.974,1.474,0,3.842,11.4,2.621,12.618-.391.391-1.455-1.249-2.366-3.643Zm79.993,1.115c-1.473-2.628.893-13.31,2.948-13.31,1.55,0,1.788,1.2.877,4.428-.687,2.435-.961,5.267-.608,6.293.734,2.131-2.166,4.465-3.217,2.589Zm54.485-.831a145.515,145.515,0,0,1-3.344-17.309c-.244-4.012-5.789-19.639-9.835-27.721a89.935,89.935,0,0,0-11.048-15.753c-3.985-4.487-7.218-9.04-7.184-10.117s3.28,1.664,7.213,6.092,7.166,7.188,7.184,6.133a3.724,3.724,0,0,0-1.577-2.913,3.614,3.614,0,0,1-1.61-2.708c0-1.08.892-.972,2.415.292a6.766,6.766,0,0,1,2.415,4.318c0,1.272.608,1.938,1.35,1.479s2.963,2.034,4.933,5.541,4.139,6.375,4.818,6.375,2.191,1.787,3.36,3.97,2.852,3.521,3.741,2.971,1.179-.292.645.573.035,3.513,1.266,5.884,1.533,4.312.672,4.312-2.016-1.268-2.567-2.818c-1.362-3.83-18.527-26.394-19.408-25.512-.387.387.705,2.754,2.427,5.259s4.354,6.57,5.848,9.034,3.3,4.118,4.017,3.675,2.213,2.252,3.328,5.987,2.853,7.323,3.862,7.973c1.313.846,1.252,1.19-.212,1.208-1.9.023-3.518-2.781-5.91-10.269-.536-1.676-1.32-2.7-1.743-2.279s.707,6.5,2.512,13.514a160.107,160.107,0,0,1,3.814,18.783c.525,5.958-.155,7.944-1.38,4.025Zm-128.662-.715c-.566-.566-1.019-2.539-1-4.384.02-2.766.3-2.93,1.61-.939s1.765,1.76,2.63-1.406l1.045-3.821,2.118,3.821c2.58,4.653,2.738,6.237.622,6.237-.886,0-1.61-1.13-1.61-2.51s-.736-2.055-1.636-1.5a1.8,1.8,0,0,0-.779,2.4c1.051,1.7-1.563,3.536-3,2.1Zm80.2-5.464a3,3,0,0,1,.628-3.461c1.206-1.206,1.633-.691,1.449,1.75-.3,3.939-.564,4.159-2.077,1.71Zm-70.079-.262a72.481,72.481,0,0,1-1.947-10.465c-.19-1.992-.708-3.623-1.15-3.624s-1.026-5.8-1.3-12.882.092-12.878.805-12.874,1.434,5.015,1.6,11.136c.268,9.817,2.008,19.552,4.788,26.8.489,1.273.086,2.315-.894,2.315s-1.838-.181-1.906-.4Zm-8.2-8.856a27.331,27.331,0,0,1,.405-8.453c.585-3.13,1.148-4.114,1.266-2.214a78.951,78.951,0,0,0,1.218,8.453c1.048,5.242-1.707,7.352-2.89,2.214Zm11.84-1.2c-1.01-2.218-1.213-4.032-.449-4.032,1.337,0,3.746,6.6,2.766,7.585-.264.264-1.306-1.335-2.317-3.553Zm-21.678.264c-1.794-4.562-1.5-6.892.6-4.789a5.855,5.855,0,0,1,1.16,4.75c-.58,2.883-.642,2.884-1.761.039Zm5.477,2.144c-.175-.443-.721-3.7-1.213-7.246-.678-4.881-.44-6,.983-4.633,1.033.994,1.578,4.255,1.213,7.245S44.021,1075.9,43.846,1075.459Zm-11.341-3.891c-.07-1.7.311-2.648.846-2.113s.592,1.924.127,3.086c-.514,1.284-.9.9-.973-.973Zm57.15-1.262c-1.555-2.22-1.878-3.917-.864-4.543.89-.55,1.422-2.759,1.183-4.91-.321-2.891.268-3.794,2.262-3.465a4.066,4.066,0,0,0,3.872-1.456c.74-1.2.483-1.474-.7-.746-2.916,1.8-4.131-3.637-1.789-8.013,2.736-5.113,3.874-4.941,6.761,1.019,3.558,7.347,1.994,25.657-2.192,25.657-.878,0-1.185-.666-.682-1.48,1-1.62-3.271-6.57-5.67-6.57-2.414,0-1.713,3.238.92,4.248,1.328.51,2.415,1.574,2.415,2.365,0,2.631-3,1.485-5.519-2.105Zm9.983-14.2c-1.05-10.929-2.856-12.747-5.174-5.208-.879,2.859-.584,3.411,1.41,2.646,1.863-.715,2.521.058,2.521,2.962,0,5.256-1.482,6.435-4.409,3.508-2.867-2.867-4.119-2.157-2.7,1.533.57,1.486,2.794,2.646,5.073,2.646,3.9,0,4.028-.312,3.281-8.086Zm77.117,16.673a4.436,4.436,0,0,1-1.073-2.737c0-1.009.75-.914,1.905.241,1.048,1.048,1.531,2.28,1.073,2.737a1.385,1.385,0,0,1-1.905-.242ZM58.123,1065.06c0-2.828.966-3.245,2.346-1.011a1.854,1.854,0,0,1-.71,2.51c-.9.556-1.636-.118-1.636-1.5Zm-20.931-3.954c0-3,.67-4.78,1.588-4.213,1.692,1.046,1.385,6.434-.473,8.292-.613.613-1.115-1.222-1.115-4.079Zm25.763,2.147c0-1.381.725-2.062,1.61-1.515a3.453,3.453,0,0,1,1.61,2.51,1.569,1.569,0,0,1-1.61,1.515C63.679,1065.763,62.954,1064.633,62.954,1063.252Zm16.822,1.038a1.322,1.322,0,0,0-.761-2.03c-.919-.307-1.625-4.172-1.568-8.591s.088-9.664.069-11.657.711-3.623,1.622-3.623c1.019,0,1.436,3.873,1.086,10.064-.386,6.817.172,11.232,1.732,13.686,2.053,3.231,2.01,3.623-.394,3.623-1.482,0-2.286-.663-1.785-1.473Zm5.184-1.211a5.868,5.868,0,0,1-1.024-3.623c.04-2.094.354-2.024,1.758.389,1.734,2.981,1.231,5.2-.733,3.234Zm-52.9-1.373c-.6-.6-.654-2.224-.121-3.611.705-1.839.348-2.168-1.319-1.216-1.776,1.014-1.868.853-.415-.722,2.77-3,4.909-1.4,3.86,2.889-.5,2.062-1.407,3.259-2.006,2.66Zm13.307-1.445c-.07-1.7.311-2.648.846-2.113s.592,1.924.127,3.086c-.514,1.285-.9.9-.973-.973Zm2.14-3.757c-.714-1.55-1.369-5.945-1.456-9.766-.1-4.178-1.091-7.539-2.5-8.429-1.941-1.228-1.86-1.484.478-1.5,2.53-.022,3.553-1.809,3.008-5.258-.1-.664.611-1.208,1.592-1.208s1.34,1.154.8,2.565-1.424,4.317-1.962,6.459c-.807,3.215-.492,3.708,1.8,2.827,2.453-.941,2.548-.631.809,2.618-1.085,2.027-1.577,6.122-1.094,9.1q1.461,9-1.482,2.6Zm35.208-3.623c-.236-3.138,1.265-4.2,3.2-2.258,1.156,1.156-.315,5.478-1.866,5.478-.6,0-1.2-1.449-1.338-3.22ZM32.3,1048.856c-.437-6.749.116-11.041,1.626-12.619.709-.741.949,2.157.533,6.441-.972,10.008-1.764,12.275-2.158,6.178Zm9.164.213c-.667-2.54-.832-5-.367-5.464,1.3-1.3,2.881,3.889,2.191,7.17-.452,2.147-.931,1.7-1.825-1.706Zm14.241-1.018c-.547-.886-.228-1.61.71-1.61a1.665,1.665,0,0,1,1.705,1.61c0,.885-.32,1.61-.71,1.61s-1.158-.725-1.705-1.61Zm-29.788-3.125a3.453,3.453,0,0,1,1.61-2.51c.886-.547,1.61.134,1.61,1.515s-.725,2.51-1.61,2.51A1.569,1.569,0,0,1,25.92,1044.926Zm11.271-3.41c0-2.709.627-4.538,1.394-4.064,1.3.8.59,8.989-.777,8.989C37.469,1046.441,37.192,1044.225,37.192,1041.515Zm15.941-.442a20.837,20.837,0,0,1,2.286-13.472c3.061-5.831,3.275-6.923,1.354-6.923-.743,0-2.288,1.993-3.431,4.428-1.184,2.522-2.391,3.568-2.8,2.431-1.061-2.931,5.141-10.269,7.059-8.351,1,1,2.33.115,3.73-2.5,1.194-2.232,2.774-4.058,3.51-4.058,2.091,0,1.572,2.632-.929,4.708-3.137,2.6-7.533,12.249-8.283,18.174-.579,4.576-2.124,8.024-2.493,5.564Zm4.46-3.489c2.828-13.764,17.31-33,27.337-36.306,6.8-2.245,6.274-3.559-.858-2.132-2.838.568-7.461,3.471-10.272,6.452-5.191,5.5-7.624,6.719-7.624,3.81,0-.886,1.087-1.61,2.415-1.61s2.415-.725,2.415-1.61c0-4.372-7.054.765-8.859,6.45-.56,1.766-2.083,3.211-3.382,3.211-3.137,0-1-3.9,6.045-11.059,4.286-4.352,4.71-5.3,2.146-4.814-3.332.636-13.677,14.356-17.865,23.7-1.334,2.974-2.8,5.034-3.255,4.578s.236-2.889,1.538-5.407a41.611,41.611,0,0,0,2.73-6.188c.2-.886,2.086-3.658,4.192-6.162s3.83-5.466,3.83-6.585,1.63-2.835,3.623-3.815,6.159-3.349,9.258-5.264c5.1-3.148,5.252-3.167,1.634-.2-6.865,5.636-2.9,4.847,8.02-1.594,5.752-3.394,9.375-6.183,8.051-6.2-2.132-.022-2.132-.2.006-1.586,2.01-1.3,1.875-1.587-.805-1.716-2.64-.127-2.416-.512,1.246-2.133,2.456-1.088,3.927-2.516,3.269-3.175s.049-.718,1.572-.134c1.705.654,2.769.292,2.769-.944,0-1.479,2.646-1.781,10.063-1.15,7.746.659,9.229.468,6.441-.828-4.442-2.064-4.674-3.722-.521-3.722,1.706,0,2.681.681,2.166,1.514s-.262,1.1.561.589c3.126-1.932,12.341,1.292,13.627,4.769,1.214,3.281,1.011,3.38-3.623,1.764-3.735-1.3-5.21-1.222-6.173.335-.866,1.4-2.713,1.648-5.865.783-4.44-1.219-13.579-.958-21.766.622-1.284.248-.9,3.519.718,6.106a1.873,1.873,0,0,1-.85,2.776c-1.112.5.513.761,3.613.591,3.7-.2,5.5.363,5.233,1.652-.233,1.136,1.332,1.961,3.718,1.961,2.337,0,3.69-.7,3.125-1.61-.547-.886.021-1.61,1.263-1.61,3.354,0,20.592,6.144,23.117,8.239,1.277,1.06,2.188,1.156,2.188.232,0-1.436-7.122-5.426-17.712-9.921-3.429-1.455-3.077-1.557,2.375-.688,3.52.562,7.376,2,8.568,3.189a7.205,7.205,0,0,0,3.842,2.168c.921,0,5.246,2.99,9.61,6.645s8.3,6.276,8.754,5.827c1.041-1.041-14.06-14.057-16.324-14.071a6.421,6.421,0,0,1-3.571-1.891c-2.749-2.749-13.272-6.118-19.2-6.146-2.826-.014-5.586-.749-6.133-1.634-2.414-3.906,21.147,1.791,29.676,7.176,9.037,5.7,27.483,23.333,27.483,26.264,0,1.761-.922,1.358-3.19-1.392-1.755-2.128-3.934-4.75-4.842-5.827a3.963,3.963,0,0,0-4.161-.995c-1.562.6-4.6-1.061-8.039-4.4-3.041-2.948-5.529-4.612-5.529-3.7s2.174,3.6,4.83,5.964,4.83,5.072,4.83,6.01c0,.993,1.394,1.264,3.333.649,2.545-.808,4.789.474,9.5,5.423,3.39,3.564,6.594,6.05,7.12,5.525s.168-1.9-.793-3.062a4.855,4.855,0,0,1-1-4.174c.448-1.242,1.576-.3,2.826,2.361,1.144,2.435,2.565,4.428,3.158,4.428s3.42,3.261,6.282,7.246,4.7,7.246,4.085,7.246c-1.293,0-6.411-5.607-9.909-10.855-1.323-1.985-3.064-3.2-3.869-2.7s.18,3.1,2.189,5.786c7.338,9.809,8.042,10.993,6.536,10.993-.843,0-3.752-3.08-6.463-6.843a91.081,91.081,0,0,0-16.629-18.1l-3.945-3.209,3.9,4.41c2.144,2.425,3.409,4.9,2.813,5.5s-4.789-3.034-9.317-8.068c-12.561-13.966-22.544-19.953-24.55-14.725-.576,1.5-.163,2.424,1.017,2.272a27.236,27.236,0,0,1,4.515-.065c3.417.258,16.147,11.3,15.708,13.63a15.22,15.22,0,0,0,.942,5.681c2.223,6.573-2.357,7.5-7.471,1.52-4.67-5.465-4.775-8.11-.173-4.366,2.444,1.989,2.628,1.9,1.631-.755-.848-2.258-.525-2.767,1.309-2.063,4.308,1.653,2.442-1.24-4.264-6.613-6.795-5.444-9.4-6.424-9.4-3.532,0,.956-1.562.607-3.565-.8-1.961-1.373-7.194-2.978-11.631-3.567-5.829-.773-7.185-1.381-4.889-2.191,1.748-.617,5.33-.506,7.961.245,3.521,1.005,5.418.731,7.188-1.039,1.445-1.445,1.678-2.4.584-2.4a2.8,2.8,0,0,0-2.435,1.841c-.46,1.381-1.473,1.381-4.054,0a23.612,23.612,0,0,0-9.181-1.841c-3.158,0-5.741-.725-5.741-1.61a1.59,1.59,0,0,0-1.56-1.61c-.858,0-1.1,1.268-.532,2.818.969,2.657.85,2.662-2.1.081-2.153-1.883-3.869-2.267-5.506-1.232-1.777,1.124-1.841,1.51-.251,1.529a7.761,7.761,0,0,1,4.356,2.253c1.9,1.9,1.52,2.37-2.545,3.183-4.907.981-14.246,6.776-16.453,10.208a37.29,37.29,0,0,1-3.22,4.088c-2.2,2.393-6,8.772-6,10.059,0,.455.725.827,1.61.827a1.858,1.858,0,0,0,1.61-2.023c0-3.688,13.582-17.164,19.932-19.776,8.125-3.343,29.03-2.525,23.46.918-1.078.667-4.1.6-6.724-.154-11.644-3.339-26.3,4.717-33.374,18.344-1.631,3.142-3.243,4.271-5.321,3.728-2.139-.559-3.419.435-4.529,3.521-.851,2.365-2.241,5.749-3.089,7.521-1.215,2.538-1.332,2.2-.549-1.61ZM86.227,994.11c5-3.835,1.431-2.8-5.561,1.61-3.507,2.214-7.116,4.025-8.019,4.025s-1.642,1.065-1.642,2.367c0,2.306,5.7-.689,15.221-8Zm18.994-16.363a6.214,6.214,0,0,0-4.025,0c-1.107.447-.2.812,2.013.812s3.12-.365,2.013-.812Zm-43.384,59.06c1-2.657,2.389-4.83,3.08-4.83,1.673,0,1.594.719-.611,5.56-2.619,5.749-4.684,5.139-2.469-.729Zm-34.888-2.415a3.95,3.95,0,0,1,3.367-2.415c1.986,0,2.067.449.436,2.415-1.1,1.328-2.618,2.415-3.367,2.415S26.439,1035.72,26.949,1034.392Zm12.859-3.972c.989-5.449,3.568-11.318,5.683-12.934a4.39,4.39,0,0,0,1.326-2.415c.15-.886,2.054-4.871,4.231-8.856,2.9-5.312,7.088-9.287,15.685-14.894,6.449-4.207,12.766-7.637,14.037-7.625,2.2.023-2.039,2.943-8.96,6.17-1.771.826-6.521,4.417-10.555,7.981-6.717,5.933-9.649,10.8-20.576,34.13-1.751,3.738-1.813,3.627-.872-1.557ZM42.9,1033.7a1.854,1.854,0,0,1,.71-2.51c.9-.556,1.636.118,1.636,1.5,0,2.828-.966,3.245-2.346,1.011Zm98.286-1.147c-1.348-3.513.442-5.146,2.344-2.138s1.945,4.784.109,4.784c-.791,0-1.895-1.191-2.453-2.646Zm-107.21-1.68c0-.825,1.064-2.906,2.364-4.625,1.986-2.626,2.372-2.707,2.415-.505a6.845,6.845,0,0,1-2.364,4.625C35.058,1031.469,33.971,1031.7,33.971,1030.871Zm-4.83-1.721c0-.886,1.087-2.512,2.415-3.615,1.347-1.118,2.415-1.293,2.415-.394s-1.087,2.512-2.415,3.615C30.209,1029.875,29.141,1030.049,29.141,1029.151Zm-3.22-4.479c0-2.873,4.38-11.417,7.648-14.92a7.743,7.743,0,0,0,2.013-4.377c0-1.221,1.262-2.926,2.8-3.79s2.344-2.03,1.781-2.593c-1.465-1.465-8.9,6.36-8.156,8.586.34,1.021-.528,1.857-1.93,1.857s-2.549.725-2.549,1.61a1.719,1.719,0,0,1-1.8,1.61c-2.7,0,5.847-10.894,16.52-21.064,9.435-8.99,10.926-11.139,7.728-11.139-.938,0-1.188.837-.556,1.859.664,1.074.446,1.425-.515.831-.915-.565-5.856,3.6-10.98,9.26-5.9,6.514-10.169,9.961-11.643,9.4-1.935-.743-1.875-1.146.358-2.4,1.476-.826,7.248-6.112,12.827-11.745,7.257-7.328,10.637-9.748,11.88-8.505s2.487.988,4.371-.9c2.961-2.961,4.014-3.284,4.014-1.232,0,1.462-9.16,10.61-16.1,16.081-2.214,1.745-3.514,3.685-2.89,4.312,1.422,1.427,17.21-12.211,17.309-14.952.04-1.107,1.773-2.013,3.85-2.013,4.684,0,14.252-4.623,13.175-6.366-.735-1.19,7.694-4.079,16.676-5.715,2.112-.385,4.286-1.189,4.83-1.786s-1.4-.631-4.323-.075c-3.689.7-4.976.466-4.209-.774,1.986-3.213,33.663,1.3,49.776,7.1a87.131,87.131,0,0,1,13.351,7.293c7.831,5.107,11.721,6.027,9.366,2.216-2.291-3.707-29.26-15.085-42.376-17.878-7.785-1.658-11.981-3.072-9.324-3.142s9.54.964,15.3,2.3,11.372,2.527,12.479,2.65,2.013.828,2.013,1.566.906,1.346,2.013,1.352,4.129,1.114,6.715,2.462,5.307,1.848,6.047,1.109-1.558-2.624-5.105-4.189-6.449-3.412-6.449-4.1,3.623.475,8.051,2.594,8.051,4.592,8.051,5.5-.674,1.226-1.5.716a1.854,1.854,0,0,0-2.51.71c-.556.9-.355,1.636.447,1.636,2.035,0,8.392,5.692,8.392,7.515a6.328,6.328,0,0,1-1.9,3.4c-1.462,1.462-3.044,1.06-6.843-1.738-10.414-7.668-30.512-14.97-44.914-16.321-4.124-.387-8.229-1.155-9.122-1.707s-1.625-.237-1.625.7-1.087,1.705-2.415,1.705-2.415.724-2.415,1.61c0,1.877.284,1.883,9.115.172,5.422-1.05,6.536-.87,5.84.943a3.514,3.514,0,0,1-3.479,1.987c-8.4-.811-14.7.274-14.7,2.533,0,3.119-2.268,3.087-4.887-.068-1.481-1.784-2.553-1.992-3.806-.738s-1.093,2.149.572,3.178c1.772,1.1,1.2,1.7-2.429,2.568-10.583,2.532-36.427,22.756-39.538,30.942-2.212,5.817-1.594,8.069.979,3.568,2.8-4.89,3.136-3.344.526,2.385-1.375,3.017-2.252,3.586-3.22,2.089-1.056-1.633-1.646-1.568-2.853.31-.837,1.3-2.028,1.864-2.645,1.247s-.206-2.226.915-3.576,1.593-2.454,1.05-2.454.274-1.582,1.816-3.516c4.559-5.722,21.319-22.652,21.319-21.537,0,.565.906.265,2.013-.668,4.873-4.107,14.432-9.7,16.576-9.7,2.327,0,3.448-3.2,1.136-3.243-3.534-.067-22.532,11.455-29.241,17.734-7.974,7.463-19.467,24.062-19.467,28.114a4.221,4.221,0,0,1-1.61,3.284c-.886.547-1.61-.2-1.61-1.669ZM90.327,972.4c1.882-1.216,1.438-1.566-2.013-1.585-2.435-.014-4.428.7-4.428,1.585C83.886,974.438,87.177,974.438,90.327,972.4Zm83.326,51.391c-1.55-1.7-2.453-3.086-2.008-3.086s-2.148-2.672-5.762-5.938-9.594-8.739-13.288-12.164a129.41,129.41,0,0,0-17.182-12.57c-11.026-6.684-11.49-8.688-.7-3.044,11.532,6.034,13.578,7.425,12.5,8.5-.585.585-.363,1.064.493,1.064a5.482,5.482,0,0,0,3.151-1.594c1.052-1.052,4.583.643,10.385,4.987,4.835,3.62,9.034,7.24,9.331,8.045a1.3,1.3,0,0,0,2.013.554c.81-.5,1.473.708,1.473,2.686v3.6l-4.333-3.9c-2.383-2.147-7.209-6.592-10.724-9.877s-7-5.6-7.752-5.133c-1.156.714,9.191,11.912,11.007,11.912.346,0,3.265,2.866,6.486,6.369s6.277,6.108,6.793,5.79,1.042,1.163,1.17,3.292a14.734,14.734,0,0,1,0,3.737c-.128-.074-1.5-1.523-3.05-3.22ZM96.769,999.76a1.61,1.61,0,1,1,1.61,1.61A1.615,1.615,0,0,1,96.769,999.76Zm67.44-1.387c-2.112-1.648-8.866-6.358-15.008-10.466s-10.128-7.449-8.856-7.425,7.006,3.225,12.743,7.114,11.1,6.656,11.917,6.151.269-1.809-1.22-2.9c-2.37-1.733-2.4-2.1-.244-2.924,1.359-.521,2.518-.065,2.586,1.017a32.674,32.674,0,0,0,2.309,9.61c1.443,3.588.551,3.55-4.228-.179ZM27.57,994.046c-.047-2.115,10.832-13.52,18.408-19.3,5.313-4.052,7.317-7.24,4.5-7.154-.664.02-5.5,4-10.748,8.842s-9.8,8.541-10.128,8.218c-1.127-1.127,11.357-13.876,13.587-13.876,1.235,0,1.831-.672,1.323-1.494s.536-1.958,2.32-2.524,3.244-1.705,3.244-2.531.964-1.5,2.142-1.5,5.707-1.875,10.063-4.168c4.561-2.4,6.176-3.786,3.806-3.268C57.825,957.1,47.5,962.7,40.68,969.077c-3.838,3.591-7.2,6.529-7.476,6.529s-.976-1.246-1.56-2.769-.567-2.273.039-1.667c1.417,1.417,7.119-1.6,7.119-3.767,0-.907-.837-1.132-1.859-.5-1.152.712-1.422.442-.71-.71.632-1.022,2.555-1.859,4.274-1.859s3.125-.661,3.125-1.468c0-1.226,14.024-7.189,24.556-10.442a4.158,4.158,0,0,0,2.793-3.739c-.02-2.33-.3-2.438-1.478-.572-.8,1.263-3.143,2.551-5.208,2.862s-8.34,2.708-13.944,5.326-9.951,4.047-9.661,3.176a1.559,1.559,0,0,1,1.794-1.182c.7.221,1.9-.619,2.67-1.868,1.556-2.517,15.344-8.192,19.909-8.194,1.6,0,2.478-.7,1.947-1.564s1.018-2.061,3.443-2.669c2.8-.7,4.635-.428,5.03.758a2.708,2.708,0,0,0,2.27,1.864c.907,0,1.259-1.016.782-2.257-.533-1.389.484-2.619,2.646-3.2,5.547-1.488,6.961-1.058,3.977,1.209a16.925,16.925,0,0,0-4.388,6.389c-1.428,3.757-1.234,4.3,1.547,4.3,1.749,0,3.18-.738,3.18-1.641s1.63-1.235,3.623-.739,6.521.165,10.063-.736l6.441-1.637-8.453.53c-7.738.485-11.322-1-6.441-2.67,1.107-.379.2-.38-2.013,0-2.929.5-3.549.2-2.276-1.1,2.775-2.828,10.9-3.859,9.9-1.257-.491,1.28.371,2.244,2.126,2.376,1.948.147,2.65-.563,2.066-2.086-.487-1.27-.061-2.308.947-2.308a3.584,3.584,0,0,1,2.756,2.406c.508,1.323,1.649,1.957,2.537,1.409.993-.614.773-1.538-.571-2.4-3.64-2.344,13.539,1.306,27.6,5.865.443.144,3.7,1.567,7.246,3.163,10.107,4.555,3.894,4.679-7.264.145-12.85-5.221-19.126-6.35-24.133-4.339l-4.025,1.616,4.025-.084c6.77-.141,20.524,3.22,27.281,6.666,3.522,1.8,7.563,3.267,8.979,3.267s2.128.722,1.583,1.6c-.622,1.006-2.827.655-5.916-.942-3.54-1.831-5.415-2.055-6.671-.8s-1,1.747.9,1.747a4.806,4.806,0,0,1,3.744,1.783c.716,1.158.044,1.463-1.918.868a133.838,133.838,0,0,0-43.971-5.448c-13.67.692-14.877.53-12.076-1.623,2.955-2.272,2.891-2.354-1.267-1.634-2.408.417-4,.138-3.528-.619s-.641-1.377-2.464-1.377-3.315.767-3.315,1.705.743,1.246,1.65.685,1.451-.06,1.208,1.113a1.326,1.326,0,0,0,1.69,1.69c1.173-.243,1.673.3,1.113,1.208a4.3,4.3,0,0,1-3.34,1.65c-1.276,0-2.32.767-2.32,1.705s-.732,1.253-1.626.7-3.528.491-5.853,2.32-5.127,3.325-6.228,3.325-2.9,1.087-4.005,2.415c-2.92,3.518-.108,2.877,7.246-1.652,7.305-4.5,10.2-5.125,7.246-1.568-1.1,1.328-1.465,2.415-.805,2.415s.3,1.087-.805,2.415-2.779,2.415-3.725,2.415-.314-1.064,1.4-2.364c3.087-2.335,3.087-2.365.01-2.415-1.714-.028-4.832,1.56-6.928,3.53-3.188,2.994-4.047,3.2-5.252,1.25-1.594-2.58-3.684-1-17.085,12.881-3.846,3.985-7.01,6.486-7.03,5.557Zm44.058-35.675c-2.832-.944-20.609,7.982-19.034,9.557.489.489,5.344-1.337,10.789-4.058s9.155-5.2,8.245-5.5Zm62.175-.442c0-.763-2.355-1.939-5.233-2.613s-6.32-1.489-7.648-1.811c-5-1.212-30.851-.455-33.413.978-1.811,1.013,1.455,1.465,10.138,1.4,15.53-.113,30.934,1.685,32.217,3.76,1.051,1.7,3.94.442,3.94-1.716Zm12.116,33.283c-9-5.427-14.322-9.164-13.053-9.164,2.479,0,18.649,8.668,18.649,10,0,1.727-1.792,1.46-5.6-.834Zm-66.862-1.918c1.1-1.328,2.729-2.415,3.615-2.415s.724,1.068-.394,2.415c-1.1,1.328-2.729,2.415-3.615,2.415S77.938,990.641,79.056,989.294Zm21.738-.805-6.441-1.153,6.843-.229c3.764-.126,6.843.5,6.843,1.382s-.181,1.507-.4,1.382S104.336,989.123,100.794,988.489Zm-7.246-3.838c0-.34,1.811-.964,4.025-1.387s4.025-.145,4.025.617-1.811,1.387-4.025,1.387S93.548,984.991,93.548,984.651ZM133.1,978.9c-1.712-.622-2.4-1.57-1.533-2.107,1.661-1.026,6.715,1.354,5.405,2.547-.417.38-2.159.182-3.872-.44Zm-63.515-6.875c1.732-3.236,7.785-6.223,9.98-4.925.724.428,1.714-.744,2.2-2.6a19.248,19.248,0,0,1,1.1-3.468c.118-.047,4.3-.47,9.3-.939,5.826-.548,9.479-.209,10.192.945.759,1.228-.335,1.532-3.445.957-6.308-1.165-15.023.664-15.023,3.154,0,2.506-4.093,4.543-10.818,5.383-1.079.135-1.591,1.211-1.138,2.392a1.5,1.5,0,0,1-1.574,2.147c-1.852,0-2.027-.693-.769-3.043Zm79.14-8.664c.535-.535,1.924-.592,3.086-.127,1.284.514.9.9-.973.973-1.7.07-2.648-.311-2.113-.846ZM48.464,948.235a10.652,10.652,0,0,1,4.83-1.561c2.147,0,2.147.173,0,1.561a10.654,10.654,0,0,1-4.83,1.561C46.318,949.8,46.318,949.623,48.464,948.235Zm83.727-2.415a20.8,20.8,0,0,0-8.453-2.358c-2.435-.031-4.428-.866-4.428-1.855,0-1.054-1.681-1.476-4.064-1.021-2.235.427-4.375.273-4.756-.343s-5.616-.937-11.635-.714c-6.333.234-9.6-.114-7.755-.828,1.754-.679,10.7-1.33,19.89-1.447,13.916-.178,16.4.152,14.884,1.977-1.459,1.758-.619,2.439,4.262,3.453a38.9,38.9,0,0,0,7.135,1.043c.58-.121,1.463.844,1.962,2.144,1.138,2.965-1.8,2.944-7.042-.051Zm-75.676.132c0-.559,1.855-1.722,4.122-2.584,2.508-.954,3.672-2.3,2.972-3.429-.633-1.024-.476-1.445.348-.936,2.284,1.411,20.262-3.191,21.728-5.562,1-1.616,1.722-1.653,3.211-.163,2.144,2.144,1.512,2.461-16.279,8.17-5.756,1.847-11.734,3.845-13.284,4.44s-2.818.624-2.818.065Zm34.244-12.379c-.224-2.978.37-3.269,4.89-2.395,13.116,2.537,21.394,2.188,19.533-.824-.49-.793-.511-1.441-.047-1.441s1.592,1.4,2.507,3.108c1.57,2.933,1.022,3.11-9.705,3.144-6.253.02-12.618.432-14.145.917-1.989.631-2.849-.081-3.032-2.509Zm-18.947-.582c6.876-2.147,11.786-2.179,10.466-.069-.443.708-4.428,1.465-8.856,1.683l-8.051.4Z"/>
        </g>
      </g>
      <g id="Group_10" data-name="Group 10">
        <g id="Layer_1-2" transform="translate(1259.459 67.468)">
          <g id="Group_3" data-name="Group 3" transform="translate(0 0)">
            <rect id="Rectangle_2" data-name="Rectangle 2" width="351.787" height="170.064" rx="10.03" fill="#c5d8ea" stroke="#f2f5f7" stroke-miterlimit="10" stroke-width="2"/>
            <rect id="Rectangle_3" data-name="Rectangle 3" width="94.882" height="94.882" transform="translate(41.105 31.858)" fill="#fff" stroke="#000" stroke-miterlimit="10" stroke-width="1"/>
            <ellipse id="Ellipse_12" data-name="Ellipse 12" cx="13.669" cy="16.484" rx="13.669" ry="16.484" transform="translate(77.289 57.589)" fill="#fff" stroke="#000" stroke-miterlimit="10" stroke-width="1"/>
            <path id="Path_6" data-name="Path 6" d="M99.833,113.12v8.652s-42.954,9.2-32.316,18.687" transform="translate(-13.7 -22.966)" fill="#fff" stroke="#000" stroke-miterlimit="10" stroke-width="1"/>
            <path id="Path_7" data-name="Path 7" d="M120.12,113.12v8.652s42.954,9.2,32.316,18.687" transform="translate(-24.337 -22.966)" fill="#fff" stroke="#000" stroke-miterlimit="10" stroke-width="1"/>
            <text id="" transform="translate(201.881 89.327)" font-size="24" font-family="PingFangSC-Regular, PingFang SC"><tspan x="0" y="0"></tspan></text>
          </g>
        </g>
        <g id="Layer_1-2-2" data-name="Layer_1-2" transform="translate(1259.459 295.468)">
          <g id="Group_4" data-name="Group 4" transform="translate(0 0)">
            <rect id="Rectangle_4" data-name="Rectangle 4" width="351.787" height="170.064" rx="10.02" fill="#c5d8ea" stroke="#f2f5f7" stroke-miterlimit="10" stroke-width="2"/>
            <rect id="Rectangle_5" data-name="Rectangle 5" width="94.882" height="94.882" transform="translate(41.008 32.163)" fill="#fff" stroke="#000" stroke-miterlimit="10" stroke-width="1"/>
            <ellipse id="Ellipse_13" data-name="Ellipse 13" cx="13.669" cy="16.484" rx="13.669" ry="16.484" transform="translate(77.192 57.894)" fill="#fff" stroke="#000" stroke-miterlimit="10" stroke-width="1"/>
            <path id="Path_8" data-name="Path 8" d="M99.713,113.5v8.652s-42.954,9.2-32.316,18.687" transform="translate(-13.676 -23.041)" fill="#fff" stroke="#000" stroke-miterlimit="10" stroke-width="1"/>
            <path id="Path_9" data-name="Path 9" d="M120,113.5v8.652s42.954,9.2,32.316,18.687" transform="translate(-24.314 -23.041)" fill="#fff" stroke="#000" stroke-miterlimit="10" stroke-width="1"/>
            <path id="Path_10" data-name="Path 10" d="M110.3,72.4s-3.618,10.855-6.835,11.659-1.608,5.629-5.629,10.453-2.412-6.433-2.412-6.433S99.041,70.4,102.86,71.2s11.949-4.028,16.725,1.2,7.438,8.25,7.2,14.876c-.209,5.7.129,2.758-.571,6.835-.692,4-4.254-.4-3.45-2.01s-1.608-4.825-2.412-6.433" transform="translate(-19.437 -14.505)"/>
            <text id="_" data-name=" " transform="translate(187.303 88.913)" font-size="20" font-family="Helvetica"><tspan x="0" y="0"> </tspan><tspan y="0" font-family="PingFangSC-Regular, PingFang SC"></tspan></text>
          </g>
        </g>
      </g>
      <g id="Group_6" data-name="Group 6" transform="translate(-6.522 30.755)">
        <g id="Ellipse_14" data-name="Ellipse 14" transform="translate(441 764)" fill="#e8e8e8" stroke="#707070" stroke-width="1">
          <circle cx="56" cy="56" r="56" stroke="none"/>
          <circle cx="56" cy="56" r="55.5" fill="none"/>
        </g>
        <g id="Layer_1-2-3" data-name="Layer_1-2" transform="translate(92.675 727.86)">
          <path id="Path_5" data-name="Path 5" d="M254.13,134.14l.39-80.37-47.72-.28L180.78,100.7,227.7,16.9H184.13L143.91,57.12,159.1,16.9,127.15.14,96.98,16.9l13.41,36.87L73.52,26.96,29.94,20.25,80.22,100.7,50.06,53.77H3.13l-3,79.37Z" fill="#bec5c2" stroke="#e9fffb" stroke-miterlimit="10" stroke-width="0.25"/>
        </g>
        <g id="Layer_1-2-4" data-name="Layer_1-2" transform="translate(644.635 792.192)">
          <path id="Path_11" data-name="Path 11" d="M2.17,1H251.6L179.257,80.635H70.2Z" fill="#fff" stroke="#aca9a9" stroke-miterlimit="10" stroke-width="4"/>
        </g>
      </g>
      <g id="Group_9" data-name="Group 9">
        <text id="LES_PAUL_STANDARD" data-name="LES PAUL STANDARD" transform="translate(771 675)" font-size="20" font-family="Helvetica" letter-spacing="0.07em"><tspan x="-114.945" y="0">LES PAUL STANDARD</tspan></text>
        <text id="Danelectro_1961" data-name="Danelectro 1961" transform="translate(488 675)" font-size="20" font-family="Helvetica" letter-spacing="0.07em"><tspan x="-83.184" y="0">Danelectro 1961</tspan></text>
        <text id="Gibson_J-200_1963" data-name="Gibson J-200 1963" transform="translate(216 675)" font-size="20" font-family="Helvetica" letter-spacing="0.07em"><tspan x="-95.702" y="0">Gibson J-200 1963</tspan></text>
      </g>
    </g>
  </g>
</svg>
