<svg id="visual" viewBox="0 0 1800 1080" width="1800" height="1080" xmlns="http://www.w3.org/2000/svg" xmlns:xlink="http://www.w3.org/1999/xlink" version="1.1"><rect x="0" y="0" width="1800" height="1080" fill="#141E27"></rect><defs><linearGradient id="grad1_0" x1="40%" y1="100%" x2="100%" y2="0%"><stop offset="16.666666666666664%" stop-color="#32ccff" stop-opacity="1"></stop><stop offset="83.33333333333334%" stop-color="#32ccff" stop-opacity="1"></stop></linearGradient></defs><defs><linearGradient id="grad1_1" x1="40%" y1="100%" x2="100%" y2="0%"><stop offset="16.666666666666664%" stop-color="#32ccff" stop-opacity="1"></stop><stop offset="83.33333333333334%" stop-color="#368cb3" stop-opacity="1"></stop></linearGradient></defs><defs><linearGradient id="grad1_2" x1="40%" y1="100%" x2="100%" y2="0%"><stop offset="16.666666666666664%" stop-color="#2a5169" stop-opacity="1"></stop><stop offset="83.33333333333334%" stop-color="#368cb3" stop-opacity="1"></stop></linearGradient></defs><defs><linearGradient id="grad1_3" x1="40%" y1="100%" x2="100%" y2="0%"><stop offset="16.666666666666664%" stop-color="#2a5169" stop-opacity="1"></stop><stop offset="83.33333333333334%" stop-color="#141e27" stop-opacity="1"></stop></linearGradient></defs><defs><linearGradient id="grad2_0" x1="0%" y1="100%" x2="60%" y2="0%"><stop offset="16.666666666666664%" stop-color="#32ccff" stop-opacity="1"></stop><stop offset="83.33333333333334%" stop-color="#32ccff" stop-opacity="1"></stop></linearGradient></defs><defs><linearGradient id="grad2_1" x1="0%" y1="100%" x2="60%" y2="0%"><stop offset="16.666666666666664%" stop-color="#368cb3" stop-opacity="1"></stop><stop offset="83.33333333333334%" stop-color="#32ccff" stop-opacity="1"></stop></linearGradient></defs><defs><linearGradient id="grad2_2" x1="0%" y1="100%" x2="60%" y2="0%"><stop offset="16.666666666666664%" stop-color="#368cb3" stop-opacity="1"></stop><stop offset="83.33333333333334%" stop-color="#2a5169" stop-opacity="1"></stop></linearGradient></defs><defs><linearGradient id="grad2_3" x1="0%" y1="100%" x2="60%" y2="0%"><stop offset="16.666666666666664%" stop-color="#141e27" stop-opacity="1"></stop><stop offset="83.33333333333334%" stop-color="#2a5169" stop-opacity="1"></stop></linearGradient></defs><g transform="translate(1800, 1080)"><path d="M-787.2 0C-832.5 -56.6 -877.8 -113.2 -777.5 -123.1C-677.2 -133.1 -431.2 -96.4 -415.6 -135C-400.1 -173.6 -614.9 -287.5 -662 -337.3C-709.1 -387.1 -588.3 -372.9 -538.8 -391.5C-489.3 -410.1 -510.9 -461.5 -497.8 -497.8C-484.7 -534.1 -436.7 -555.1 -375 -516.2C-313.3 -477.2 -237.9 -378.3 -222 -435.7C-206.1 -493.1 -249.7 -707 -228.4 -702.8C-207.1 -698.7 -120.8 -476.6 -72 -454.3C-23.1 -432.1 -11.5 -609.6 0 -787.2L0 0Z" fill="#203647"></path><path d="M-590.4 0C-624.4 -42.4 -658.4 -84.9 -583.1 -92.4C-507.9 -99.8 -323.4 -72.3 -311.7 -101.3C-300 -130.2 -461.2 -215.6 -496.5 -253C-531.8 -290.3 -441.3 -279.6 -404.1 -293.6C-367 -307.6 -383.2 -346.2 -373.4 -373.4C-363.5 -400.5 -327.5 -416.3 -281.3 -387.1C-235 -357.9 -178.4 -283.7 -166.5 -326.8C-154.6 -369.9 -187.3 -530.2 -171.3 -527.1C-155.3 -524 -90.6 -357.5 -54 -340.8C-17.3 -324.1 -8.7 -457.2 0 -590.4L0 0Z" fill="#326e8d"></path><path d="M-393.6 0C-416.2 -28.3 -438.9 -56.6 -388.7 -61.6C-338.6 -66.6 -215.6 -48.2 -207.8 -67.5C-200 -86.8 -307.5 -143.8 -331 -168.7C-354.5 -193.6 -294.2 -186.4 -269.4 -195.7C-244.6 -205 -255.5 -230.8 -248.9 -248.9C-242.3 -267 -218.3 -277.6 -187.5 -258.1C-156.7 -238.6 -119 -189.1 -111 -217.9C-103 -246.6 -124.8 -353.5 -114.2 -351.4C-103.5 -349.3 -60.4 -238.3 -36 -227.2C-11.5 -216 -5.8 -304.8 0 -393.6L0 0Z" fill="#37abd9"></path><path d="M-196.8 0C-208.1 -14.1 -219.5 -28.3 -194.4 -30.8C-169.3 -33.3 -107.8 -24.1 -103.9 -33.8C-100 -43.4 -153.7 -71.9 -165.5 -84.3C-177.3 -96.8 -147.1 -93.2 -134.7 -97.9C-122.3 -102.5 -127.7 -115.4 -124.5 -124.5C-121.2 -133.5 -109.2 -138.8 -93.8 -129C-78.3 -119.3 -59.5 -94.6 -55.5 -108.9C-51.5 -123.3 -62.4 -176.7 -57.1 -175.7C-51.8 -174.7 -30.2 -119.2 -18 -113.6C-5.8 -108 -2.9 -152.4 0 -196.8L0 0Z" fill="#32ccff"></path></g><g transform="translate(0, 0)"><path d="M787.2 0C698.9 24 610.7 48.1 634.1 100.4C657.5 152.8 792.5 233.4 748.7 243.3C704.8 253.1 482.1 192.1 461.5 235.2C441 278.3 622.7 425.5 619.7 450.2C616.7 475 429 377.2 344.4 344.4C259.7 311.5 278.1 343.7 295.1 406.1C312 468.5 327.5 561.2 313.7 615.7C299.9 670.2 256.8 686.6 212.9 655.3C169 624 124.2 545 88.5 559C52.9 573.1 26.5 680.1 0 787.2L0 0Z" fill="#203647"></path><path d="M590.4 0C524.2 18 458 36.1 475.6 75.3C493.1 114.6 594.4 175.1 561.5 182.4C528.6 189.8 361.5 144 346.2 176.4C330.8 208.7 467 319.1 464.8 337.7C462.5 356.2 321.8 282.9 258.3 258.3C194.8 233.7 208.6 257.8 221.3 304.6C234 351.4 245.6 420.9 235.3 461.8C224.9 502.6 192.6 514.9 159.7 491.5C126.7 468 93.1 408.7 66.4 419.3C39.7 429.8 19.8 510.1 0 590.4L0 0Z" fill="#326e8d"></path><path d="M393.6 0C349.5 12 305.4 24 317 50.2C328.7 76.4 396.3 116.7 374.3 121.6C352.4 126.5 241 96 230.8 117.6C220.5 139.1 311.4 212.8 309.9 225.1C308.4 237.5 214.5 188.6 172.2 172.2C129.9 155.8 139.1 171.9 147.5 203.1C156 234.3 163.7 280.6 156.9 307.8C150 335.1 128.4 343.3 106.5 327.6C84.5 312 62.1 272.5 44.3 279.5C26.5 286.5 13.2 340.1 0 393.6L0 0Z" fill="#37abd9"></path><path d="M196.8 0C174.7 6 152.7 12 158.5 25.1C164.4 38.2 198.1 58.4 187.2 60.8C176.2 63.3 120.5 48 115.4 58.8C110.3 69.6 155.7 106.4 154.9 112.6C154.2 118.7 107.3 94.3 86.1 86.1C64.9 77.9 69.5 85.9 73.8 101.5C78 117.1 81.9 140.3 78.4 153.9C75 167.5 64.2 171.6 53.2 163.8C42.2 156 31 136.2 22.1 139.8C13.2 143.3 6.6 170 0 196.8L0 0Z" fill="#32ccff"></path></g></svg>