<svg id="visual" viewBox="0 0 1800 1080" width="1800" height="1080" xmlns="http://www.w3.org/2000/svg" xmlns:xlink="http://www.w3.org/1999/xlink" version="1.1"><rect x="0" y="0" width="1800" height="1080" fill="#141E27"></rect><defs><linearGradient id="grad1_0" x1="40%" y1="0%" x2="100%" y2="100%"><stop offset="16.666666666666664%" stop-color="#32ccff" stop-opacity="1"></stop><stop offset="83.33333333333334%" stop-color="#32ccff" stop-opacity="1"></stop></linearGradient></defs><defs><linearGradient id="grad1_1" x1="40%" y1="0%" x2="100%" y2="100%"><stop offset="16.666666666666664%" stop-color="#32ccff" stop-opacity="1"></stop><stop offset="83.33333333333334%" stop-color="#368cb3" stop-opacity="1"></stop></linearGradient></defs><defs><linearGradient id="grad1_2" x1="40%" y1="0%" x2="100%" y2="100%"><stop offset="16.666666666666664%" stop-color="#2a5169" stop-opacity="1"></stop><stop offset="83.33333333333334%" stop-color="#368cb3" stop-opacity="1"></stop></linearGradient></defs><defs><linearGradient id="grad1_3" x1="40%" y1="0%" x2="100%" y2="100%"><stop offset="16.666666666666664%" stop-color="#2a5169" stop-opacity="1"></stop><stop offset="83.33333333333334%" stop-color="#141e27" stop-opacity="1"></stop></linearGradient></defs><defs><linearGradient id="grad2_0" x1="0%" y1="0%" x2="60%" y2="100%"><stop offset="16.666666666666664%" stop-color="#32ccff" stop-opacity="1"></stop><stop offset="83.33333333333334%" stop-color="#32ccff" stop-opacity="1"></stop></linearGradient></defs><defs><linearGradient id="grad2_1" x1="0%" y1="0%" x2="60%" y2="100%"><stop offset="16.666666666666664%" stop-color="#368cb3" stop-opacity="1"></stop><stop offset="83.33333333333334%" stop-color="#32ccff" stop-opacity="1"></stop></linearGradient></defs><defs><linearGradient id="grad2_2" x1="0%" y1="0%" x2="60%" y2="100%"><stop offset="16.666666666666664%" stop-color="#368cb3" stop-opacity="1"></stop><stop offset="83.33333333333334%" stop-color="#2a5169" stop-opacity="1"></stop></linearGradient></defs><defs><linearGradient id="grad2_3" x1="0%" y1="0%" x2="60%" y2="100%"><stop offset="16.666666666666664%" stop-color="#141e27" stop-opacity="1"></stop><stop offset="83.33333333333334%" stop-color="#2a5169" stop-opacity="1"></stop></linearGradient></defs><g transform="translate(1800, 0)"><path d="M0 787.2C-56.6 832.5 -113.2 877.8 -123.1 777.5C-133.1 677.2 -96.4 431.2 -135 415.6C-173.6 400.1 -287.5 614.9 -337.3 662C-387.1 709.1 -372.9 588.3 -391.5 538.8C-410.1 489.3 -461.5 510.9 -497.8 497.8C-534.1 484.7 -555.1 436.7 -516.2 375C-477.2 313.3 -378.3 237.9 -435.7 222C-493.1 206.1 -707 249.7 -702.8 228.4C-698.7 207.1 -476.6 120.8 -454.3 72C-432.1 23.1 -609.6 11.5 -787.2 0L0 0Z" fill="#203647"></path><path d="M0 590.4C-42.4 624.4 -84.9 658.4 -92.4 583.1C-99.8 507.9 -72.3 323.4 -101.3 311.7C-130.2 300 -215.6 461.2 -253 496.5C-290.3 531.8 -279.6 441.3 -293.6 404.1C-307.6 367 -346.2 383.2 -373.4 373.4C-400.5 363.5 -416.3 327.5 -387.1 281.3C-357.9 235 -283.7 178.4 -326.8 166.5C-369.9 154.6 -530.2 187.3 -527.1 171.3C-524 155.3 -357.5 90.6 -340.8 54C-324.1 17.3 -457.2 8.7 -590.4 0L0 0Z" fill="#326e8d"></path><path d="M0 393.6C-28.3 416.2 -56.6 438.9 -61.6 388.7C-66.6 338.6 -48.2 215.6 -67.5 207.8C-86.8 200 -143.8 307.5 -168.7 331C-193.6 354.5 -186.4 294.2 -195.7 269.4C-205 244.6 -230.8 255.5 -248.9 248.9C-267 242.3 -277.6 218.3 -258.1 187.5C-238.6 156.7 -189.1 119 -217.9 111C-246.6 103 -353.5 124.8 -351.4 114.2C-349.3 103.5 -238.3 60.4 -227.2 36C-216 11.5 -304.8 5.8 -393.6 0L0 0Z" fill="#37abd9"></path><path d="M0 196.8C-14.1 208.1 -28.3 219.5 -30.8 194.4C-33.3 169.3 -24.1 107.8 -33.8 103.9C-43.4 100 -71.9 153.7 -84.3 165.5C-96.8 177.3 -93.2 147.1 -97.9 134.7C-102.5 122.3 -115.4 127.7 -124.5 124.5C-133.5 121.2 -138.8 109.2 -129 93.8C-119.3 78.3 -94.6 59.5 -108.9 55.5C-123.3 51.5 -176.7 62.4 -175.7 57.1C-174.7 51.8 -119.2 30.2 -113.6 18C-108 5.8 -152.4 2.9 -196.8 0L0 0Z" fill="#32ccff"></path></g><g transform="translate(0, 1080)"><path d="M0 -787.2C24 -698.9 48.1 -610.7 100.4 -634.1C152.8 -657.5 233.4 -792.5 243.3 -748.7C253.1 -704.8 192.1 -482.1 235.2 -461.5C278.3 -441 425.5 -622.7 450.2 -619.7C475 -616.7 377.2 -429 344.4 -344.4C311.5 -259.7 343.7 -278.1 406.1 -295.1C468.5 -312 561.2 -327.5 615.7 -313.7C670.2 -299.9 686.6 -256.8 655.3 -212.9C624 -169 545 -124.2 559 -88.5C573.1 -52.9 680.1 -26.5 787.2 0L0 0Z" fill="#203647"></path><path d="M0 -590.4C18 -524.2 36.1 -458 75.3 -475.6C114.6 -493.1 175.1 -594.4 182.4 -561.5C189.8 -528.6 144 -361.5 176.4 -346.2C208.7 -330.8 319.1 -467 337.7 -464.8C356.2 -462.5 282.9 -321.8 258.3 -258.3C233.7 -194.8 257.8 -208.6 304.6 -221.3C351.4 -234 420.9 -245.6 461.8 -235.3C502.6 -224.9 514.9 -192.6 491.5 -159.7C468 -126.7 408.7 -93.1 419.3 -66.4C429.8 -39.7 510.1 -19.8 590.4 0L0 0Z" fill="#326e8d"></path><path d="M0 -393.6C12 -349.5 24 -305.4 50.2 -317C76.4 -328.7 116.7 -396.3 121.6 -374.3C126.5 -352.4 96 -241 117.6 -230.8C139.1 -220.5 212.8 -311.4 225.1 -309.9C237.5 -308.4 188.6 -214.5 172.2 -172.2C155.8 -129.9 171.9 -139.1 203.1 -147.5C234.3 -156 280.6 -163.7 307.8 -156.9C335.1 -150 343.3 -128.4 327.6 -106.5C312 -84.5 272.5 -62.1 279.5 -44.3C286.5 -26.5 340.1 -13.2 393.6 0L0 0Z" fill="#37abd9"></path><path d="M0 -196.8C6 -174.7 12 -152.7 25.1 -158.5C38.2 -164.4 58.4 -198.1 60.8 -187.2C63.3 -176.2 48 -120.5 58.8 -115.4C69.6 -110.3 106.4 -155.7 112.6 -154.9C118.7 -154.2 94.3 -107.3 86.1 -86.1C77.9 -64.9 85.9 -69.5 101.5 -73.8C117.1 -78 140.3 -81.9 153.9 -78.4C167.5 -75 171.6 -64.2 163.8 -53.2C156 -42.2 136.2 -31 139.8 -22.1C143.3 -13.2 170 -6.6 196.8 0L0 0Z" fill="#32ccff"></path></g></svg>