<svg id="visual" viewBox="0 0 960 800" width="960" height="800" xmlns="http://www.w3.org/2000/svg" xmlns:xlink="http://www.w3.org/1999/xlink" version="1.1"><rect x="0" y="0" width="960" height="800" fill="#141E27"></rect><path d="M0 333L17.8 352.8C35.7 372.7 71.3 412.3 106.8 426.8C142.3 441.3 177.7 430.7 213.2 431.8C248.7 433 284.3 446 320 425.3C355.7 404.7 391.3 350.3 426.8 320.8C462.3 291.3 497.7 286.7 533.2 301.5C568.7 316.3 604.3 350.7 640 368.2C675.7 385.7 711.3 386.3 746.8 380C782.3 373.7 817.7 360.3 853.2 367.3C888.7 374.3 924.3 401.7 942.2 415.3L960 429L960 0L942.2 0C924.3 0 888.7 0 853.2 0C817.7 0 782.3 0 746.8 0C711.3 0 675.7 0 640 0C604.3 0 568.7 0 533.2 0C497.7 0 462.3 0 426.8 0C391.3 0 355.7 0 320 0C284.3 0 248.7 0 213.2 0C177.7 0 142.3 0 106.8 0C71.3 0 35.7 0 17.8 0L0 0Z" fill="#f7df1e" stroke-linecap="round" stroke-linejoin="miter"></path></svg>