<svg id="visual" viewBox="0 0 960 540" width="960" height="540" xmlns="http://www.w3.org/2000/svg" xmlns:xlink="http://www.w3.org/1999/xlink" version="1.1"><path d="M0 354L17.8 352.5C35.7 351 71.3 348 106.8 348.7C142.3 349.3 177.7 353.7 213.2 336.8C248.7 320 284.3 282 320 262C355.7 242 391.3 240 426.8 258C462.3 276 497.7 314 533.2 326.2C568.7 338.3 604.3 324.7 640 296C675.7 267.3 711.3 223.7 746.8 226C782.3 228.3 817.7 276.7 853.2 283.7C888.7 290.7 924.3 256.3 942.2 239.2L960 222L960 541L942.2 541C924.3 541 888.7 541 853.2 541C817.7 541 782.3 541 746.8 541C711.3 541 675.7 541 640 541C604.3 541 568.7 541 533.2 541C497.7 541 462.3 541 426.8 541C391.3 541 355.7 541 320 541C284.3 541 248.7 541 213.2 541C177.7 541 142.3 541 106.8 541C71.3 541 35.7 541 17.8 541L0 541Z" fill="#f7df1e" stroke-linecap="round" stroke-linejoin="miter"></path></svg>