<?xml version="1.0" encoding="UTF-8"?><svg id="Layer_2" xmlns="http://www.w3.org/2000/svg" viewBox="0 0 1763.71 643.23"><defs><style>.cls-1{fill:#fff;stroke:#000;stroke-miterlimit:10;stroke-width:3px;}</style></defs><g id="Layer_1-2"><g><g><path class="cls-1" d="M15.13,288.63C-85.87,208.63,406.13-28.37,448.13,4.63s-30,508-147,604S116.13,368.63,15.13,288.63Z"/><path class="cls-1" d="M2.2,269.27s88.94-35.64,173.94-19.64,232.36,63.98,232.36,63.98"/><path class="cls-1" d="M180.9,102.63s-5.77-93.9,81.23-48.95"/><g><circle class="cls-1" cx="315.63" cy="154.13" r="84.5"/><circle class="cls-1" cx="300.13" cy="140.63" r="38"/></g></g><g><path class="cls-1" d="M674.13,288.63C573.13,208.63,1065.13-28.37,1107.13,4.63s-30,508-147,604-185-240-286-320Z"/><g><circle class="cls-1" cx="974.63" cy="154.13" r="84.5"/><circle class="cls-1" cx="959.13" cy="140.63" r="38"/></g><path class="cls-1" d="M661.2,269.27s96.94,37.36,181.94,53.36,235-77,235-77"/><path class="cls-1" d="M839.9,102.63s-5.77-93.9,81.23-48.95"/></g><g><path class="cls-1" d="M1317.13,304.63C1216.13,224.63,1708.13-12.37,1750.13,20.63s-30,508-147,604-185-240-286-320Z"/><g><circle class="cls-1" cx="1617.63" cy="170.13" r="84.5"/><circle class="cls-1" cx="1602.13" cy="156.63" r="38"/></g><path class="cls-1" d="M1304.2,285.27s96.94,37.36,181.94,53.36,188-77,188-77"/><path class="cls-1" d="M1304.13,285.63s97,12,182,28,188-52,188-52"/><path class="cls-1" d="M1482.9,118.63s-5.77-93.9,81.23-48.95"/></g></g></g></svg>