<?xml version="1.0" encoding="UTF-8"?><svg id="Layer_2" xmlns="http://www.w3.org/2000/svg" viewBox="0 0 282.88 398.27"><defs><style>.cls-1{fill:#b5d7b5;stroke:#b9c5b9;stroke-miterlimit:10;stroke-width:.25px;}</style></defs><g id="Layer_1-2"><g><polygon class="cls-1" points="165.14 392.31 162.41 394.63 159.04 393.42 158.39 389.9 161.12 387.58 164.5 388.78 165.14 392.31"/><polygon class="cls-1" points="173.91 387.05 171.17 389.37 167.8 388.16 167.16 384.64 169.89 382.32 173.26 383.52 173.91 387.05"/><polygon class="cls-1" points="172.15 395.81 169.42 398.13 166.05 396.93 165.41 393.4 168.14 391.08 171.51 392.29 172.15 395.81"/><polygon class="cls-1" points="180.92 392.31 178.19 394.63 174.81 393.42 174.17 389.9 176.9 387.58 180.27 388.78 180.92 392.31"/><polygon class="cls-1" points="187.93 388.8 185.2 391.12 181.82 389.92 181.18 386.39 183.91 384.07 187.29 385.28 187.93 388.8"/><polygon class="cls-1" points="180.92 383.54 178.19 385.86 174.81 384.66 174.17 381.13 176.9 378.81 180.27 380.02 180.92 383.54"/><polygon class="cls-1" points="194.94 383.54 192.21 385.86 188.84 384.66 188.19 381.13 190.92 378.81 194.3 380.02 194.94 383.54"/><polygon class="cls-1" points="182.67 374.78 179.94 377.1 176.57 375.89 175.92 372.37 178.65 370.05 182.03 371.25 182.67 374.78"/><polygon class="cls-1" points="187.93 380.04 185.2 382.36 181.82 381.15 181.18 377.63 183.91 375.31 187.29 376.51 187.93 380.04"/><polygon class="cls-1" points="193.19 376.53 190.46 378.85 187.08 377.64 186.44 374.12 189.17 371.8 192.54 373.01 193.19 376.53"/><polygon class="cls-1" points="173.91 378.28 171.17 380.6 167.8 379.4 167.16 375.87 169.89 373.56 173.26 374.76 173.91 378.28"/><polygon class="cls-1" points="166.89 374.78 164.16 377.1 160.79 375.89 160.15 372.37 162.88 370.05 166.25 371.25 166.89 374.78"/><polygon class="cls-1" points="165.14 383.54 162.41 385.86 159.04 384.66 158.39 381.13 161.12 378.81 164.5 380.02 165.14 383.54"/><polygon class="cls-1" points="156.38 388.8 153.65 391.12 150.27 389.92 149.63 386.39 152.36 384.07 155.73 385.28 156.38 388.8"/><polygon class="cls-1" points="158.13 378.28 155.4 380.6 152.03 379.4 151.38 375.87 154.11 373.56 157.49 374.76 158.13 378.28"/><polygon class="cls-1" points="149.36 383.54 146.63 385.86 143.26 384.66 142.62 381.13 145.35 378.81 148.72 380.02 149.36 383.54"/><polygon class="cls-1" points="154.62 371.27 151.89 373.59 148.52 372.39 147.88 368.86 150.61 366.54 153.98 367.75 154.62 371.27"/><polygon class="cls-1" points="163.39 366.01 160.66 368.33 157.28 367.13 156.64 363.6 159.37 361.28 162.74 362.49 163.39 366.01"/><polygon class="cls-1" points="163.39 357.25 160.66 359.57 157.28 358.36 156.64 354.84 159.37 352.52 162.74 353.73 163.39 357.25"/><polygon class="cls-1" points="156.38 353.74 153.65 356.06 150.27 354.86 149.63 351.33 152.36 349.01 155.73 350.22 156.38 353.74"/><polygon class="cls-1" points="154.62 362.51 151.89 364.83 148.52 363.62 147.88 360.1 150.61 357.78 153.98 358.98 154.62 362.51"/><polygon class="cls-1" points="145.86 367.77 143.13 370.09 139.76 368.88 139.11 365.36 141.84 363.04 145.22 364.24 145.86 367.77"/><polygon class="cls-1" points="147.61 357.25 144.88 359.57 141.51 358.36 140.87 354.84 143.6 352.52 146.97 353.73 147.61 357.25"/><polygon class="cls-1" points="138.85 362.51 136.12 364.83 132.74 363.62 132.1 360.1 134.83 357.78 138.2 358.98 138.85 362.51"/><polygon class="cls-1" points="124.82 359 122.09 361.32 118.72 360.12 118.08 356.59 120.81 354.27 124.18 355.48 124.82 359"/><polygon class="cls-1" points="186.18 364.26 183.44 366.58 180.07 365.37 179.43 361.85 182.16 359.53 185.53 360.74 186.18 364.26"/><polygon class="cls-1" points="194.94 359 192.21 361.32 188.84 360.12 188.19 356.59 190.92 354.27 194.3 355.48 194.94 359"/><polygon class="cls-1" points="193.19 367.77 190.46 370.09 187.08 368.88 186.44 365.36 189.17 363.04 192.54 364.24 193.19 367.77"/><polygon class="cls-1" points="201.95 364.26 199.22 366.58 195.85 365.37 195.2 361.85 197.94 359.53 201.31 360.74 201.95 364.26"/><polygon class="cls-1" points="201.95 374.78 199.22 377.1 195.85 375.89 195.2 372.37 197.94 370.05 201.31 371.25 201.95 374.78"/><polygon class="cls-1" points="208.96 360.76 206.23 363.07 202.86 361.87 202.22 358.34 204.95 356.03 208.32 357.23 208.96 360.76"/><polygon class="cls-1" points="208.96 369.52 206.23 371.84 202.86 370.63 202.22 367.11 204.95 364.79 208.32 366 208.96 369.52"/><polygon class="cls-1" points="201.95 355.5 199.22 357.82 195.85 356.61 195.2 353.09 197.94 350.77 201.31 351.97 201.95 355.5"/><polygon class="cls-1" points="215.97 355.5 213.24 357.82 209.87 356.61 209.23 353.09 211.96 350.77 215.33 351.97 215.97 355.5"/><polygon class="cls-1" points="203.7 346.73 200.97 349.05 197.6 347.85 196.96 344.32 199.69 342 203.06 343.21 203.7 346.73"/><polygon class="cls-1" points="207.21 339.72 204.48 342.04 201.11 340.83 200.46 337.31 203.19 334.99 206.57 336.2 207.21 339.72"/><polygon class="cls-1" points="210.72 344.98 207.99 347.3 204.61 346.09 203.97 342.57 206.7 340.25 210.07 341.46 210.72 344.98"/><polygon class="cls-1" points="208.96 351.99 206.23 354.31 202.86 353.1 202.22 349.58 204.95 347.26 208.32 348.47 208.96 351.99"/><polygon class="cls-1" points="194.94 350.24 192.21 352.56 188.84 351.35 188.19 347.83 190.92 345.51 194.3 346.71 194.94 350.24"/><polygon class="cls-1" points="187.93 346.73 185.2 349.05 181.82 347.85 181.18 344.32 183.91 342 187.29 343.21 187.93 346.73"/><polygon class="cls-1" points="186.18 355.5 183.44 357.82 180.07 356.61 179.43 353.09 182.16 350.77 185.53 351.97 186.18 355.5"/><polygon class="cls-1" points="177.41 360.76 174.68 363.07 171.31 361.87 170.66 358.34 173.39 356.03 176.77 357.23 177.41 360.76"/><polygon class="cls-1" points="170.4 364.26 167.67 366.58 164.3 365.37 163.65 361.85 166.38 359.53 169.76 360.74 170.4 364.26"/><polygon class="cls-1" points="175.66 369.52 172.93 371.84 169.55 370.63 168.91 367.11 171.64 364.79 175.02 366 175.66 369.52"/><polygon class="cls-1" points="179.16 350.24 176.43 352.56 173.06 351.35 172.42 347.83 175.15 345.51 178.52 346.71 179.16 350.24"/><polygon class="cls-1" points="170.4 355.5 167.67 357.82 164.3 356.61 163.65 353.09 166.38 350.77 169.76 351.97 170.4 355.5"/><polygon class="cls-1" points="154.62 344.98 151.89 347.3 148.52 346.09 147.88 342.57 150.61 340.25 153.98 341.46 154.62 344.98"/><polygon class="cls-1" points="163.39 339.72 160.66 342.04 157.28 340.83 156.64 337.31 159.37 334.99 162.74 336.2 163.39 339.72"/><polygon class="cls-1" points="161.63 348.49 158.9 350.8 155.53 349.6 154.89 346.07 157.62 343.76 160.99 344.96 161.63 348.49"/><polygon class="cls-1" points="170.4 344.98 167.67 347.3 164.3 346.09 163.65 342.57 166.38 340.25 169.76 341.46 170.4 344.98"/><polygon class="cls-1" points="177.41 341.47 174.68 343.79 171.31 342.59 170.66 339.06 173.39 336.74 176.77 337.95 177.41 341.47"/><polygon class="cls-1" points="170.4 336.21 167.67 338.53 164.3 337.33 163.65 333.8 166.38 331.49 169.76 332.69 170.4 336.21"/><polygon class="cls-1" points="184.42 336.21 181.69 338.53 178.32 337.33 177.68 333.8 180.41 331.49 183.78 332.69 184.42 336.21"/><polygon class="cls-1" points="191.43 339.72 188.7 342.04 185.33 340.83 184.69 337.31 187.42 334.99 190.79 336.2 191.43 339.72"/><polygon class="cls-1" points="172.15 327.45 169.42 329.77 166.05 328.56 165.41 325.04 168.14 322.72 171.51 323.93 172.15 327.45"/><polygon class="cls-1" points="177.41 332.71 174.68 335.03 171.31 333.82 170.66 330.3 173.39 327.98 176.77 329.19 177.41 332.71"/><polygon class="cls-1" points="163.39 330.96 160.66 333.27 157.28 332.07 156.64 328.55 159.37 326.23 162.74 327.43 163.39 330.96"/><polygon class="cls-1" points="156.38 327.45 153.65 329.77 150.27 328.56 149.63 325.04 152.36 322.72 155.73 323.93 156.38 327.45"/><polygon class="cls-1" points="154.62 336.21 151.89 338.53 148.52 337.33 147.88 333.8 150.61 331.49 153.98 332.69 154.62 336.21"/><polygon class="cls-1" points="145.86 341.47 143.13 343.79 139.76 342.59 139.11 339.06 141.84 336.74 145.22 337.95 145.86 341.47"/><polygon class="cls-1" points="147.61 330.96 144.88 333.27 141.51 332.07 140.87 328.55 143.6 326.23 146.97 327.43 147.61 330.96"/><polygon class="cls-1" points="138.85 336.21 136.12 338.53 132.74 337.33 132.1 333.8 134.83 331.49 138.2 332.69 138.85 336.21"/><polygon class="cls-1" points="194.94 330.96 192.21 333.27 188.84 332.07 188.19 328.55 190.92 326.23 194.3 327.43 194.94 330.96"/><polygon class="cls-1" points="203.7 325.7 200.97 328.02 197.6 326.81 196.96 323.29 199.69 320.97 203.06 322.17 203.7 325.7"/><polygon class="cls-1" points="201.95 334.46 199.22 336.78 195.85 335.58 195.2 332.05 197.94 329.73 201.31 330.94 201.95 334.46"/><polygon class="cls-1" points="210.72 330.96 207.99 333.27 204.61 332.07 203.97 328.55 206.7 326.23 210.07 327.43 210.72 330.96"/><polygon class="cls-1" points="217.73 327.45 215 329.77 211.62 328.56 210.98 325.04 213.71 322.72 217.08 323.93 217.73 327.45"/><polygon class="cls-1" points="210.72 322.19 207.99 324.51 204.61 323.31 203.97 319.78 206.7 317.46 210.07 318.67 210.72 322.19"/><polygon class="cls-1" points="224.74 322.19 222.01 324.51 218.64 323.31 217.99 319.78 220.72 317.46 224.1 318.67 224.74 322.19"/><polygon class="cls-1" points="212.47 313.43 209.74 315.75 206.37 314.54 205.72 311.02 208.45 308.7 211.83 309.9 212.47 313.43"/><polygon class="cls-1" points="217.73 318.69 215 321 211.62 319.8 210.98 316.28 213.71 313.96 217.08 315.16 217.73 318.69"/><polygon class="cls-1" points="219.61 345.6 218.12 348.85 214.55 349.18 212.48 346.26 213.98 343.01 217.54 342.68 219.61 345.6"/><polygon class="cls-1" points="224.49 339.46 222.99 342.71 219.43 343.05 217.35 340.12 218.85 336.87 222.42 336.54 224.49 339.46"/><polygon class="cls-1" points="215.91 337.65 214.42 340.91 210.85 341.24 208.78 338.32 210.27 335.06 213.84 334.73 215.91 337.65"/><polygon class="cls-1" points="228.62 331.73 227.13 334.99 223.56 335.32 221.49 332.4 222.99 329.14 226.55 328.81 228.62 331.73"/><polygon class="cls-1" points="220.79 331.51 219.29 334.77 215.72 335.1 213.65 332.18 215.15 328.92 218.72 328.59 220.79 331.51"/><polygon class="cls-1" points="231.3 322.75 229.81 326 226.24 326.34 224.17 323.41 225.67 320.16 229.23 319.83 231.3 322.75"/><polygon class="cls-1" points="203.7 316.93 200.97 319.25 197.6 318.05 196.96 314.52 199.69 312.2 203.06 313.41 203.7 316.93"/><polygon class="cls-1" points="196.69 313.43 193.96 315.75 190.59 314.54 189.95 311.02 192.68 308.7 196.05 309.9 196.69 313.43"/><polygon class="cls-1" points="194.94 322.19 192.21 324.51 188.84 323.31 188.19 319.78 190.92 317.46 194.3 318.67 194.94 322.19"/><polygon class="cls-1" points="186.18 327.45 183.44 329.77 180.07 328.56 179.43 325.04 182.16 322.72 185.53 323.93 186.18 327.45"/><polygon class="cls-1" points="187.93 316.93 185.2 319.25 181.82 318.05 181.18 314.52 183.91 312.2 187.29 313.41 187.93 316.93"/><polygon class="cls-1" points="179.16 322.19 176.43 324.51 173.06 323.31 172.42 319.78 175.15 317.46 178.52 318.67 179.16 322.19"/><polygon class="cls-1" points="158.13 316.93 155.4 319.25 152.03 318.05 151.38 314.52 154.11 312.2 157.49 313.41 158.13 316.93"/><polygon class="cls-1" points="166.89 311.67 164.16 313.99 160.79 312.79 160.15 309.26 162.88 306.95 166.25 308.15 166.89 311.67"/><polygon class="cls-1" points="165.14 320.44 162.41 322.76 159.04 321.55 158.39 318.03 161.12 315.71 164.5 316.91 165.14 320.44"/><polygon class="cls-1" points="173.91 316.93 171.17 319.25 167.8 318.05 167.16 314.52 169.89 312.2 173.26 313.41 173.91 316.93"/><polygon class="cls-1" points="180.92 313.43 178.19 315.75 174.81 314.54 174.17 311.02 176.9 308.7 180.27 309.9 180.92 313.43"/><polygon class="cls-1" points="173.91 308.17 171.17 310.49 167.8 309.28 167.16 305.76 169.89 303.44 173.26 304.64 173.91 308.17"/><polygon class="cls-1" points="187.93 308.17 185.2 310.49 181.82 309.28 181.18 305.76 183.91 303.44 187.29 304.64 187.93 308.17"/><polygon class="cls-1" points="175.66 299.4 172.93 301.72 169.55 300.52 168.91 296.99 171.64 294.67 175.02 295.88 175.66 299.4"/><polygon class="cls-1" points="180.92 304.66 178.19 306.98 174.81 305.78 174.17 302.25 176.9 299.93 180.27 301.14 180.92 304.66"/><polygon class="cls-1" points="166.89 302.91 164.16 305.23 160.79 304.02 160.15 300.5 162.88 298.18 166.25 299.39 166.89 302.91"/><polygon class="cls-1" points="159.88 299.4 157.15 301.72 153.78 300.52 153.14 296.99 155.87 294.67 159.24 295.88 159.88 299.4"/><polygon class="cls-1" points="158.13 308.17 155.4 310.49 152.03 309.28 151.38 305.76 154.11 303.44 157.49 304.64 158.13 308.17"/><polygon class="cls-1" points="149.36 313.43 146.63 315.75 143.26 314.54 142.62 311.02 145.35 308.7 148.72 309.9 149.36 313.43"/><polygon class="cls-1" points="151.12 302.91 148.39 305.23 145.01 304.02 144.37 300.5 147.1 298.18 150.47 299.39 151.12 302.91"/><polygon class="cls-1" points="142.35 308.17 139.62 310.49 136.25 309.28 135.61 305.76 138.34 303.44 141.71 304.64 142.35 308.17"/><polygon class="cls-1" points="133.59 295.9 130.86 298.22 127.48 297.01 126.84 293.49 129.57 291.17 132.95 292.37 133.59 295.9"/><polygon class="cls-1" points="142.35 290.64 139.62 292.96 136.25 291.75 135.61 288.23 138.34 285.91 141.71 287.12 142.35 290.64"/><polygon class="cls-1" points="140.6 299.4 137.87 301.72 134.5 300.52 133.85 296.99 136.58 294.67 139.96 295.88 140.6 299.4"/><polygon class="cls-1" points="149.36 295.9 146.63 298.22 143.26 297.01 142.62 293.49 145.35 291.17 148.72 292.37 149.36 295.9"/><polygon class="cls-1" points="156.38 292.39 153.65 294.71 150.27 293.51 149.63 289.98 152.36 287.66 155.73 288.87 156.38 292.39"/><polygon class="cls-1" points="149.36 287.13 146.63 289.45 143.26 288.25 142.62 284.72 145.35 282.4 148.72 283.61 149.36 287.13"/><polygon class="cls-1" points="163.39 287.13 160.66 289.45 157.28 288.25 156.64 284.72 159.37 282.4 162.74 283.61 163.39 287.13"/><polygon class="cls-1" points="165.14 280.12 162.41 282.44 159.04 281.24 158.39 277.71 161.12 275.39 164.5 276.6 165.14 280.12"/><polygon class="cls-1" points="170.4 292.39 167.67 294.71 164.3 293.51 163.65 289.98 166.38 287.66 169.76 288.87 170.4 292.39"/><polygon class="cls-1" points="151.12 278.37 148.39 280.69 145.01 279.48 144.37 275.96 147.1 273.64 150.47 274.85 151.12 278.37"/><polygon class="cls-1" points="156.38 283.63 153.65 285.95 150.27 284.74 149.63 281.22 152.36 278.9 155.73 280.1 156.38 283.63"/><polygon class="cls-1" points="142.35 281.88 139.62 284.19 136.25 282.99 135.61 279.46 138.34 277.15 141.71 278.35 142.35 281.88"/><polygon class="cls-1" points="159.88 273.11 157.15 275.43 153.78 274.22 153.14 270.7 155.87 268.38 159.24 269.59 159.88 273.11"/><polygon class="cls-1" points="133.59 287.13 130.86 289.45 127.48 288.25 126.84 284.72 129.57 282.4 132.95 283.61 133.59 287.13"/><polygon class="cls-1" points="124.82 292.39 122.09 294.71 118.72 293.51 118.08 289.98 120.81 287.66 124.18 288.87 124.82 292.39"/><polygon class="cls-1" points="126.58 281.88 123.85 284.19 120.47 282.99 119.83 279.46 122.56 277.15 125.93 278.35 126.58 281.88"/><polygon class="cls-1" points="117.81 287.13 115.08 289.45 111.71 288.25 111.07 284.72 113.8 282.4 117.17 283.61 117.81 287.13"/><polygon class="cls-1" points="109.05 283.63 106.32 285.95 102.94 284.74 102.3 281.22 105.03 278.9 108.41 280.1 109.05 283.63"/><polygon class="cls-1" points="189.68 294.15 186.95 296.46 183.58 295.26 182.93 291.73 185.67 289.42 189.04 290.62 189.68 294.15"/><polygon class="cls-1" points="198.45 288.89 195.72 291.21 192.34 290 191.7 286.48 194.43 284.16 197.8 285.36 198.45 288.89"/><polygon class="cls-1" points="196.69 297.65 193.96 299.97 190.59 298.76 189.95 295.24 192.68 292.92 196.05 294.13 196.69 297.65"/><polygon class="cls-1" points="196.69 304.66 193.96 306.98 190.59 305.78 189.95 302.25 192.68 299.93 196.05 301.14 196.69 304.66"/><polygon class="cls-1" points="205.46 294.15 202.73 296.46 199.35 295.26 198.71 291.73 201.44 289.42 204.81 290.62 205.46 294.15"/><polygon class="cls-1" points="205.46 302.91 202.73 305.23 199.35 304.02 198.71 300.5 201.44 298.18 204.81 299.39 205.46 302.91"/><polygon class="cls-1" points="212.47 299.4 209.74 301.72 206.37 300.52 205.72 296.99 208.45 294.67 211.83 295.88 212.47 299.4"/><polygon class="cls-1" points="212.47 290.64 209.74 292.96 206.37 291.75 205.72 288.23 208.45 285.91 211.83 287.12 212.47 290.64"/><polygon class="cls-1" points="205.46 285.38 202.73 287.7 199.35 286.49 198.71 282.97 201.44 280.65 204.81 281.86 205.46 285.38"/><polygon class="cls-1" points="219.48 276.62 216.75 278.94 213.38 277.73 212.73 274.21 215.46 271.89 218.84 273.09 219.48 276.62"/><polygon class="cls-1" points="207.21 276.62 204.48 278.94 201.11 277.73 200.46 274.21 203.19 271.89 206.57 273.09 207.21 276.62"/><polygon class="cls-1" points="212.47 281.88 209.74 284.19 206.37 282.99 205.72 279.46 208.45 277.15 211.83 278.35 212.47 281.88"/><polygon class="cls-1" points="198.45 280.12 195.72 282.44 192.34 281.24 191.7 277.71 194.43 275.39 197.8 276.6 198.45 280.12"/><polygon class="cls-1" points="191.43 276.62 188.7 278.94 185.33 277.73 184.69 274.21 187.42 271.89 190.79 273.09 191.43 276.62"/><polygon class="cls-1" points="189.68 285.38 186.95 287.7 183.58 286.49 182.93 282.97 185.67 280.65 189.04 281.86 189.68 285.38"/><polygon class="cls-1" points="180.92 290.64 178.19 292.96 174.81 291.75 174.17 288.23 176.9 285.91 180.27 287.12 180.92 290.64"/><polygon class="cls-1" points="182.67 280.12 179.94 282.44 176.57 281.24 175.92 277.71 178.65 275.39 182.03 276.6 182.67 280.12"/><polygon class="cls-1" points="173.91 285.38 171.17 287.7 167.8 286.49 167.16 282.97 169.89 280.65 173.26 281.86 173.91 285.38"/><polygon class="cls-1" points="173.91 276.62 171.17 278.94 167.8 277.73 167.16 274.21 169.89 271.89 173.26 273.09 173.91 276.62"/><polygon class="cls-1" points="182.67 271.36 179.94 273.68 176.57 272.47 175.92 268.95 178.65 266.63 182.03 267.83 182.67 271.36"/><polygon class="cls-1" points="175.66 266.1 172.93 268.42 169.55 267.21 168.91 263.69 171.64 261.37 175.02 262.58 175.66 266.1"/><polygon class="cls-1" points="166.89 271.36 164.16 273.68 160.79 272.47 160.15 268.95 162.88 266.63 166.25 267.83 166.89 271.36"/><polygon class="cls-1" points="193.19 267.85 190.46 270.17 187.08 268.97 186.44 265.44 189.17 263.12 192.54 264.33 193.19 267.85"/><polygon class="cls-1" points="201.95 262.59 199.22 264.91 195.85 263.71 195.2 260.18 197.94 257.86 201.31 259.07 201.95 262.59"/><polygon class="cls-1" points="200.2 271.36 197.47 273.68 194.09 272.47 193.45 268.95 196.18 266.63 199.56 267.83 200.2 271.36"/><polygon class="cls-1" points="208.96 267.85 206.23 270.17 202.86 268.97 202.22 265.44 204.95 263.12 208.32 264.33 208.96 267.85"/><polygon class="cls-1" points="215.97 264.35 213.24 266.66 209.87 265.46 209.23 261.94 211.96 259.62 215.33 260.82 215.97 264.35"/><polygon class="cls-1" points="208.96 259.09 206.23 261.41 202.86 260.2 202.22 256.68 204.95 254.36 208.32 255.56 208.96 259.09"/><polygon class="cls-1" points="222.99 259.09 220.26 261.41 216.88 260.2 216.24 256.68 218.97 254.36 222.34 255.56 222.99 259.09"/><polygon class="cls-1" points="228.24 264.35 225.51 266.66 222.14 265.46 221.5 261.94 224.23 259.62 227.6 260.82 228.24 264.35"/><polygon class="cls-1" points="226.49 273.11 223.76 275.43 220.39 274.22 219.75 270.7 222.48 268.38 225.85 269.59 226.49 273.11"/><polygon class="cls-1" points="210.72 250.32 207.99 252.64 204.61 251.44 203.97 247.91 206.7 245.59 210.07 246.8 210.72 250.32"/><polygon class="cls-1" points="215.97 255.58 213.24 257.9 209.87 256.7 209.23 253.17 211.96 250.85 215.33 252.06 215.97 255.58"/><polygon class="cls-1" points="201.95 253.83 199.22 256.15 195.85 254.94 195.2 251.42 197.94 249.1 201.31 250.3 201.95 253.83"/><polygon class="cls-1" points="203.7 246.82 200.97 249.14 197.6 247.93 196.96 244.41 199.69 242.09 203.06 243.29 203.7 246.82"/><polygon class="cls-1" points="194.94 250.32 192.21 252.64 188.84 251.44 188.19 247.91 190.92 245.59 194.3 246.8 194.94 250.32"/><polygon class="cls-1" points="187.93 243.31 185.2 245.63 181.82 244.42 181.18 240.9 183.91 238.58 187.29 239.79 187.93 243.31"/><polygon class="cls-1" points="193.19 259.09 190.46 261.41 187.08 260.2 186.44 256.68 189.17 254.36 192.54 255.56 193.19 259.09"/><polygon class="cls-1" points="184.42 264.35 181.69 266.66 178.32 265.46 177.68 261.94 180.41 259.62 183.78 260.82 184.42 264.35"/><polygon class="cls-1" points="186.18 253.83 183.44 256.15 180.07 254.94 179.43 251.42 182.16 249.1 185.53 250.3 186.18 253.83"/><polygon class="cls-1" points="180.92 246.82 178.19 249.14 174.81 247.93 174.17 244.41 176.9 242.09 180.27 243.29 180.92 246.82"/><polygon class="cls-1" points="177.41 259.09 174.68 261.41 171.31 260.2 170.66 256.68 173.39 254.36 176.77 255.56 177.41 259.09"/><polygon class="cls-1" points="173.91 250.32 171.17 252.64 167.8 251.44 167.16 247.91 169.89 245.59 173.26 246.8 173.91 250.32"/><polygon class="cls-1" points="163.39 246.82 160.66 249.14 157.28 247.93 156.64 244.41 159.37 242.09 162.74 243.29 163.39 246.82"/><polygon class="cls-1" points="165.14 239.81 162.41 242.12 159.04 240.92 158.39 237.4 161.12 235.08 164.5 236.28 165.14 239.81"/><polygon class="cls-1" points="137.09 266.1 134.36 268.42 130.99 267.21 130.35 263.69 133.08 261.37 136.45 262.58 137.09 266.1"/><polygon class="cls-1" points="145.86 260.84 143.13 263.16 139.76 261.95 139.11 258.43 141.84 256.11 145.22 257.32 145.86 260.84"/><polygon class="cls-1" points="144.11 269.6 141.38 271.92 138 270.72 137.36 267.19 140.09 264.88 143.46 266.08 144.11 269.6"/><polygon class="cls-1" points="130.08 273.11 127.35 275.43 123.98 274.22 123.34 270.7 126.07 268.38 129.44 269.59 130.08 273.11"/><polygon class="cls-1" points="138.85 274.86 136.12 277.18 132.74 275.98 132.1 272.45 134.83 270.13 138.2 271.34 138.85 274.86"/><polygon class="cls-1" points="152.87 266.1 150.14 268.42 146.77 267.21 146.12 263.69 148.85 261.37 152.23 262.58 152.87 266.1"/><polygon class="cls-1" points="159.88 262.59 157.15 264.91 153.78 263.71 153.14 260.18 155.87 257.86 159.24 259.07 159.88 262.59"/><polygon class="cls-1" points="152.87 257.33 150.14 259.65 146.77 258.45 146.12 254.92 148.85 252.61 152.23 253.81 152.87 257.33"/><polygon class="cls-1" points="165.05 259.37 161.48 259.07 159.95 255.83 161.99 252.89 165.56 253.19 167.09 256.42 165.05 259.37"/><polygon class="cls-1" points="154.62 248.57 151.89 250.89 148.52 249.68 147.88 246.16 150.61 243.84 153.98 245.05 154.62 248.57"/><polygon class="cls-1" points="159.88 253.83 157.15 256.15 153.78 254.94 153.14 251.42 155.87 249.1 159.24 250.3 159.88 253.83"/><polygon class="cls-1" points="145.86 252.08 143.13 254.39 139.76 253.19 139.11 249.67 141.84 247.35 145.22 248.55 145.86 252.08"/><polygon class="cls-1" points="138.85 248.57 136.12 250.89 132.74 249.68 132.1 246.16 134.83 243.84 138.2 245.05 138.85 248.57"/><polygon class="cls-1" points="137.09 257.33 134.36 259.65 130.99 258.45 130.35 254.92 133.08 252.61 136.45 253.81 137.09 257.33"/><polygon class="cls-1" points="128.33 262.59 125.6 264.91 122.23 263.71 121.58 260.18 124.31 257.86 127.69 259.07 128.33 262.59"/><polygon class="cls-1" points="130.08 252.08 127.35 254.39 123.98 253.19 123.34 249.67 126.07 247.35 129.44 248.55 130.08 252.08"/><polygon class="cls-1" points="121.32 257.33 118.59 259.65 115.21 258.45 114.57 254.92 117.3 252.61 120.68 253.81 121.32 257.33"/><polygon class="cls-1" points="100.28 252.08 97.55 254.39 94.18 253.19 93.54 249.67 96.27 247.35 99.64 248.55 100.28 252.08"/><polygon class="cls-1" points="109.05 246.82 106.32 249.14 102.94 247.93 102.3 244.41 105.03 242.09 108.41 243.29 109.05 246.82"/><polygon class="cls-1" points="107.3 255.58 104.56 257.9 101.19 256.7 100.55 253.17 103.28 250.85 106.65 252.06 107.3 255.58"/><polygon class="cls-1" points="116.06 252.08 113.33 254.39 109.96 253.19 109.31 249.67 112.04 247.35 115.42 248.55 116.06 252.08"/><polygon class="cls-1" points="123.07 248.57 120.34 250.89 116.97 249.68 116.32 246.16 119.06 243.84 122.43 245.05 123.07 248.57"/><polygon class="cls-1" points="116.06 243.31 113.33 245.63 109.96 244.42 109.31 240.9 112.04 238.58 115.42 239.79 116.06 243.31"/><polygon class="cls-1" points="130.08 243.31 127.35 245.63 123.98 244.42 123.34 240.9 126.07 238.58 129.44 239.79 130.08 243.31"/><polygon class="cls-1" points="117.81 234.55 115.08 236.87 111.71 235.66 111.07 232.14 113.8 229.82 117.17 231.02 117.81 234.55"/><polygon class="cls-1" points="123.07 239.81 120.34 242.12 116.97 240.92 116.32 237.4 119.06 235.08 122.43 236.28 123.07 239.81"/><polygon class="cls-1" points="109.05 238.05 106.32 240.37 102.94 239.17 102.3 235.64 105.03 233.32 108.41 234.53 109.05 238.05"/><polygon class="cls-1" points="102.04 234.55 99.31 236.87 95.93 235.66 95.29 232.14 98.02 229.82 101.39 231.02 102.04 234.55"/><polygon class="cls-1" points="100.28 243.31 97.55 245.63 94.18 244.42 93.54 240.9 96.27 238.58 99.64 239.79 100.28 243.31"/><polygon class="cls-1" points="91.52 248.57 88.79 250.89 85.42 249.68 84.77 246.16 87.5 243.84 90.88 245.05 91.52 248.57"/><polygon class="cls-1" points="93.27 238.05 90.54 240.37 87.17 239.17 86.53 235.64 89.26 233.32 92.63 234.53 93.27 238.05"/><polygon class="cls-1" points="93.27 229.29 90.54 231.61 87.17 230.4 86.53 226.88 89.26 224.56 92.63 225.76 93.27 229.29"/><polygon class="cls-1" points="84.51 243.31 81.78 245.63 78.4 244.42 77.76 240.9 80.49 238.58 83.86 239.79 84.51 243.31"/><polygon class="cls-1" points="98.53 271.36 95.8 273.68 92.43 272.47 91.78 268.95 94.51 266.63 97.89 267.83 98.53 271.36"/><polygon class="cls-1" points="107.3 266.1 104.56 268.42 101.19 267.21 100.55 263.69 103.28 261.37 106.65 262.58 107.3 266.1"/><polygon class="cls-1" points="105.54 274.86 102.81 277.18 99.44 275.98 98.8 272.45 101.53 270.13 104.9 271.34 105.54 274.86"/><polygon class="cls-1" points="114.31 271.36 111.58 273.68 108.2 272.47 107.56 268.95 110.29 266.63 113.66 267.83 114.31 271.36"/><polygon class="cls-1" points="117.81 278.37 115.08 280.69 111.71 279.48 111.07 275.96 113.8 273.64 117.17 274.85 117.81 278.37"/><polygon class="cls-1" points="123.07 269.6 120.34 271.92 116.97 270.72 116.32 267.19 119.06 264.88 122.43 266.08 123.07 269.6"/><polygon class="cls-1" points="114.31 262.59 111.58 264.91 108.2 263.71 107.56 260.18 110.29 257.86 113.66 259.07 114.31 262.59"/><polygon class="cls-1" points="98.53 262.59 95.8 264.91 92.43 263.71 91.78 260.18 94.51 257.86 97.89 259.07 98.53 262.59"/><polygon class="cls-1" points="89.77 267.85 87.04 270.17 83.66 268.97 83.02 265.44 85.75 263.12 89.12 264.33 89.77 267.85"/><polygon class="cls-1" points="78.49 272.86 75.09 273.99 72.41 271.61 73.13 268.1 76.53 266.97 79.21 269.35 78.49 272.86"/><polygon class="cls-1" points="83.68 278.73 80.28 279.86 77.6 277.48 78.33 273.97 81.73 272.85 84.4 275.23 83.68 278.73"/><polygon class="cls-1" points="71.67 266.33 68.27 267.46 65.6 265.08 66.32 261.57 69.72 260.44 72.39 262.82 71.67 266.33"/><polygon class="cls-1" points="101.28 288.64 97.88 289.76 95.2 287.39 95.92 283.88 99.32 282.75 102 285.13 101.28 288.64"/><polygon class="cls-1" points="106.47 294.51 103.07 295.64 100.39 293.26 101.11 289.75 104.51 288.62 107.19 291 106.47 294.51"/><polygon class="cls-1" points="115.23 296.26 111.83 297.39 109.16 295.01 109.88 291.5 113.28 290.37 115.95 292.75 115.23 296.26"/><polygon class="cls-1" points="94.46 282.11 91.06 283.24 88.38 280.86 89.11 277.35 92.5 276.22 95.18 278.6 94.46 282.11"/><polygon class="cls-1" points="94.65 295.07 91.46 296.72 88.45 294.78 88.61 291.2 91.79 289.56 94.81 291.49 94.65 295.07"/><polygon class="cls-1" points="100.69 300.06 97.51 301.71 94.49 299.77 94.66 296.2 97.84 294.55 100.86 296.48 100.69 300.06"/><polygon class="cls-1" points="86.89 289.68 83.71 291.33 80.69 289.4 80.86 285.82 84.04 284.17 87.06 286.11 86.89 289.68"/><polygon class="cls-1" points="103.41 316.1 100.23 317.75 97.21 315.82 97.38 312.24 100.56 310.59 103.58 312.53 103.41 316.1"/><polygon class="cls-1" points="109.45 321.1 106.27 322.74 103.26 320.81 103.42 317.23 106.6 315.58 109.62 317.52 109.45 321.1"/><polygon class="cls-1" points="118.22 324.6 115.04 326.25 112.02 324.31 112.19 320.74 115.37 319.09 118.38 321.02 118.22 324.6"/><polygon class="cls-1" points="105.95 328.11 102.77 329.75 99.75 327.82 99.92 324.24 103.1 322.6 106.11 324.53 105.95 328.11"/><polygon class="cls-1" points="95.66 310.72 92.48 312.36 89.46 310.43 89.62 306.85 92.81 305.21 95.82 307.14 95.66 310.72"/><polygon class="cls-1" points="115.68 312.6 112.5 314.24 109.48 312.31 109.65 308.73 112.83 307.09 115.85 309.02 115.68 312.6"/><polygon class="cls-1" points="121.73 317.59 118.54 319.24 115.53 317.3 115.69 313.72 118.87 312.08 121.89 314.01 121.73 317.59"/><polygon class="cls-1" points="107.93 307.21 104.75 308.86 101.73 306.93 101.89 303.35 105.08 301.7 108.09 303.63 107.93 307.21"/><polygon class="cls-1" points="124.44 307.34 121.26 308.99 118.25 307.05 118.41 303.48 121.59 301.83 124.61 303.76 124.44 307.34"/><polygon class="cls-1" points="130.49 312.33 127.31 313.98 124.29 312.04 124.46 308.47 127.64 306.82 130.65 308.75 130.49 312.33"/><polygon class="cls-1" points="134 305.32 130.81 306.97 127.8 305.03 127.96 301.45 131.14 299.81 134.16 301.74 134 305.32"/><polygon class="cls-1" points="128.74 322.85 125.56 324.49 122.54 322.56 122.7 318.98 125.89 317.34 128.9 319.27 128.74 322.85"/><polygon class="cls-1" points="134 329.86 130.81 331.51 127.8 329.57 127.96 326 131.14 324.35 134.16 326.28 134 329.86"/><polygon class="cls-1" points="137.5 319.34 134.32 320.99 131.3 319.06 131.47 315.48 134.65 313.83 137.67 315.76 137.5 319.34"/><polygon class="cls-1" points="141.01 328.11 137.83 329.75 134.81 327.82 134.97 324.24 138.16 322.6 141.17 324.53 141.01 328.11"/><polygon class="cls-1" points="148.02 322.85 144.84 324.49 141.82 322.56 141.99 318.98 145.17 317.34 148.18 319.27 148.02 322.85"/><polygon class="cls-1" points="116.69 301.95 113.51 303.6 110.49 301.67 110.66 298.09 113.84 296.44 116.86 298.38 116.69 301.95"/><polygon class="cls-1" points="124.44 337.14 121.26 338.78 118.25 336.85 118.41 333.27 121.59 331.63 124.61 333.56 124.44 337.14"/><polygon class="cls-1" points="130.49 342.13 127.31 343.78 124.29 341.84 124.46 338.27 127.64 336.62 130.65 338.55 130.49 342.13"/><polygon class="cls-1" points="125.23 329.86 122.05 331.51 119.03 329.57 119.2 326 122.38 324.35 125.4 326.28 125.23 329.86"/><polygon class="cls-1" points="116.69 331.75 113.51 333.4 110.49 331.47 110.66 327.89 113.84 326.24 116.86 328.18 116.69 331.75"/><polygon class="cls-1" points="124.44 347.66 121.26 349.3 118.25 347.37 118.41 343.79 121.59 342.15 124.61 344.08 124.44 347.66"/><polygon class="cls-1" points="130.49 352.65 127.31 354.29 124.29 352.36 124.46 348.78 127.64 347.14 130.65 349.07 130.49 352.65"/><polygon class="cls-1" points="139.25 349.14 136.07 350.79 133.06 348.86 133.22 345.28 136.4 343.63 139.42 345.56 139.25 349.14"/><polygon class="cls-1" points="116.69 342.27 113.51 343.92 110.49 341.98 110.66 338.41 113.84 336.76 116.86 338.69 116.69 342.27"/><polygon class="cls-1" points="136.33 374.53 132.94 375.66 130.26 373.28 130.98 369.77 134.38 368.64 137.06 371.02 136.33 374.53"/><polygon class="cls-1" points="141.53 380.4 138.13 381.53 135.45 379.15 136.17 375.64 139.57 374.51 142.25 376.89 141.53 380.4"/><polygon class="cls-1" points="129.52 368 126.12 369.13 123.44 366.75 124.16 363.24 127.56 362.11 130.24 364.49 129.52 368"/><polygon class="cls-1" points="82.75 262.59 80.02 264.91 76.65 263.71 76.01 260.18 78.74 257.86 82.11 259.07 82.75 262.59"/><polygon class="cls-1" points="70.48 245.06 67.75 247.38 64.38 246.18 63.74 242.65 66.47 240.34 69.84 241.54 70.48 245.06"/><polygon class="cls-1" points="63.47 239.81 60.74 242.12 57.37 240.92 56.73 237.4 59.46 235.08 62.83 236.28 63.47 239.81"/><polygon class="cls-1" points="70.48 255.58 67.75 257.9 64.38 256.7 63.74 253.17 66.47 250.85 69.84 252.06 70.48 255.58"/><polygon class="cls-1" points="63.47 250.32 60.74 252.64 57.37 251.44 56.73 247.91 59.46 245.59 62.83 246.8 63.47 250.32"/><polygon class="cls-1" points="84.51 255.58 81.78 257.9 78.4 256.7 77.76 253.17 80.49 250.85 83.86 252.06 84.51 255.58"/><polygon class="cls-1" points="77.5 250.32 74.77 252.64 71.39 251.44 70.75 247.91 73.48 245.59 76.85 246.8 77.5 250.32"/><polygon class="cls-1" points="66.98 232.79 64.25 235.11 60.87 233.91 60.23 230.38 62.96 228.06 66.34 229.27 66.98 232.79"/><polygon class="cls-1" points="75.74 227.54 73.01 229.85 69.64 228.65 69 225.12 71.73 222.81 75.1 224.01 75.74 227.54"/><polygon class="cls-1" points="73.99 236.3 71.26 238.62 67.89 237.41 67.24 233.89 69.97 231.57 73.35 232.78 73.99 236.3"/><polygon class="cls-1" points="82.75 232.79 80.02 235.11 76.65 233.91 76.01 230.38 78.74 228.06 82.11 229.27 82.75 232.79"/><polygon class="cls-1" points="82.75 224.03 80.02 226.35 76.65 225.14 76.01 221.62 78.74 219.3 82.11 220.51 82.75 224.03"/><polygon class="cls-1" points="75.74 218.77 73.01 221.09 69.64 219.88 69 216.36 71.73 214.04 75.1 215.25 75.74 218.77"/><polygon class="cls-1" points="68.73 215.27 66 217.58 62.63 216.38 61.99 212.85 64.72 210.54 68.09 211.74 68.73 215.27"/><polygon class="cls-1" points="66.98 224.03 64.25 226.35 60.87 225.14 60.23 221.62 62.96 219.3 66.34 220.51 66.98 224.03"/><polygon class="cls-1" points="58.21 229.29 55.48 231.61 52.11 230.4 51.47 226.88 54.2 224.56 57.57 225.76 58.21 229.29"/><polygon class="cls-1" points="59.97 218.77 57.24 221.09 53.86 219.88 53.22 216.36 55.95 214.04 59.32 215.25 59.97 218.77"/><polygon class="cls-1" points="86.26 204.75 83.53 207.07 80.16 205.86 79.51 202.34 82.24 200.02 85.62 201.22 86.26 204.75"/><polygon class="cls-1" points="77.5 208.25 74.77 210.57 71.39 209.37 70.75 205.84 73.48 203.52 76.85 204.73 77.5 208.25"/><polygon class="cls-1" points="70.48 202.99 67.75 205.31 64.38 204.11 63.74 200.58 66.47 198.27 69.84 199.47 70.48 202.99"/><polygon class="cls-1" points="61.72 206.5 58.99 208.82 55.62 207.61 54.97 204.09 57.7 201.77 61.08 202.98 61.72 206.5"/><polygon class="cls-1" points="56.46 199.49 53.73 201.81 50.36 200.6 49.71 197.08 52.45 194.76 55.82 195.97 56.46 199.49"/><polygon class="cls-1" points="47.7 202.99 44.97 205.31 41.59 204.11 40.95 200.58 43.68 198.27 47.05 199.47 47.7 202.99"/><polygon class="cls-1" points="54.71 211.76 51.98 214.08 48.6 212.87 47.96 209.35 50.69 207.03 54.07 208.24 54.71 211.76"/><polygon class="cls-1" points="45.94 215.27 43.21 217.58 39.84 216.38 39.2 212.85 41.93 210.54 45.3 211.74 45.94 215.27"/><polygon class="cls-1" points="42.44 195.98 39.71 198.3 36.33 197.1 35.69 193.57 38.42 191.25 41.8 192.46 42.44 195.98"/><polygon class="cls-1" points="33.67 199.49 30.94 201.81 27.57 200.6 26.93 197.08 29.66 194.76 33.03 195.97 33.67 199.49"/><polygon class="cls-1" points="38.93 206.5 36.2 208.82 32.83 207.61 32.19 204.09 34.92 201.77 38.29 202.98 38.93 206.5"/><polygon class="cls-1" points="54.71 236.3 51.98 238.62 48.6 237.41 47.96 233.89 50.69 231.57 54.07 232.78 54.71 236.3"/><polygon class="cls-1" points="24.91 190.72 22.18 193.04 18.81 191.84 18.16 188.31 20.89 186 24.27 187.2 24.91 190.72"/><polygon class="cls-1" points="26.66 197.74 23.93 200.05 20.56 198.85 19.92 195.33 22.65 193.01 26.02 194.21 26.66 197.74"/><polygon class="cls-1" points="17.9 188.97 15.17 191.29 11.79 190.09 11.15 186.56 13.88 184.24 17.25 185.45 17.9 188.97"/><polygon class="cls-1" points="51.2 224.03 48.47 226.35 45.1 225.14 44.46 221.62 47.19 219.3 50.56 220.51 51.2 224.03"/><polygon class="cls-1" points="100.28 224.03 97.55 226.35 94.18 225.14 93.54 221.62 96.27 219.3 99.64 220.51 100.28 224.03"/><polygon class="cls-1" points="109.05 218.77 106.32 221.09 102.94 219.88 102.3 216.36 105.03 214.04 108.41 215.25 109.05 218.77"/><polygon class="cls-1" points="107.3 227.54 104.56 229.85 101.19 228.65 100.55 225.12 103.28 222.81 106.65 224.01 107.3 227.54"/><polygon class="cls-1" points="116.06 224.03 113.33 226.35 109.96 225.14 109.31 221.62 112.04 219.3 115.42 220.51 116.06 224.03"/><polygon class="cls-1" points="116.06 215.27 113.33 217.58 109.96 216.38 109.31 212.85 112.04 210.54 115.42 211.74 116.06 215.27"/><polygon class="cls-1" points="109.05 210.01 106.32 212.33 102.94 211.12 102.3 207.6 105.03 205.28 108.41 206.48 109.05 210.01"/><polygon class="cls-1" points="102.04 206.5 99.31 208.82 95.93 207.61 95.29 204.09 98.02 201.77 101.39 202.98 102.04 206.5"/><polygon class="cls-1" points="100.28 215.27 97.55 217.58 94.18 216.38 93.54 212.85 96.27 210.54 99.64 211.74 100.28 215.27"/><polygon class="cls-1" points="91.52 220.52 88.79 222.84 85.42 221.64 84.77 218.11 87.5 215.79 90.88 217 91.52 220.52"/><polygon class="cls-1" points="93.27 210.01 90.54 212.33 87.17 211.12 86.53 207.6 89.26 205.28 92.63 206.48 93.27 210.01"/><polygon class="cls-1" points="84.51 215.27 81.78 217.58 78.4 216.38 77.76 212.85 80.49 210.54 83.86 211.74 84.51 215.27"/><polygon class="cls-1" points="57.28 155.71 54.47 153.48 55 149.94 58.33 148.62 61.14 150.85 60.61 154.39 57.28 155.71"/><polygon class="cls-1" points="64.15 163.28 61.34 161.05 61.87 157.51 65.2 156.19 68 158.42 67.48 161.96 64.15 163.28"/><polygon class="cls-1" points="60.36 171.18 57.55 168.96 58.08 165.41 61.41 164.1 64.21 166.32 63.69 169.86 60.36 171.18"/><polygon class="cls-1" points="55.1 164.17 52.29 161.95 52.82 158.4 56.15 157.08 58.95 159.31 58.43 162.85 55.1 164.17"/><polygon class="cls-1" points="53.35 178.19 50.54 175.97 51.06 172.42 54.39 171.11 57.2 173.33 56.68 176.88 53.35 178.19"/><polygon class="cls-1" points="49.84 171.18 47.03 168.96 47.56 165.41 50.89 164.1 53.7 166.32 53.17 169.86 49.84 171.18"/><polygon class="cls-1" points="63.86 179.95 61.06 177.72 61.58 174.18 64.91 172.86 67.72 175.09 67.19 178.63 63.86 179.95"/><polygon class="cls-1" points="68.95 169.47 66.15 167.25 66.67 163.7 70 162.39 72.81 164.61 72.28 168.16 68.95 169.47"/><polygon class="cls-1" points="77.89 169.48 75.09 167.26 75.61 163.71 78.94 162.4 81.75 164.62 81.22 168.16 77.89 169.48"/><polygon class="cls-1" points="72.63 176.49 69.83 174.27 70.35 170.73 73.68 169.41 76.49 171.63 75.96 175.18 72.63 176.49"/><polygon class="cls-1" points="79.64 181.75 76.84 179.53 77.36 175.98 80.69 174.67 83.5 176.89 82.98 180.44 79.64 181.75"/><polygon class="cls-1" points="72.74 161.57 69.94 159.34 70.46 155.8 73.79 154.48 76.6 156.71 76.07 160.25 72.74 161.57"/><polygon class="cls-1" points="74.81 154.01 72.01 151.78 72.53 148.24 75.86 146.92 78.67 149.15 78.15 152.69 74.81 154.01"/><polygon class="cls-1" points="65.88 154 63.07 151.77 63.59 148.23 66.93 146.91 69.73 149.14 69.21 152.68 65.88 154"/><polygon class="cls-1" points="59.01 146.43 56.2 144.2 56.73 140.66 60.06 139.34 62.86 141.57 62.34 145.11 59.01 146.43"/><polygon class="cls-1" points="55.5 137.67 52.7 135.44 53.22 131.9 56.55 130.58 59.36 132.8 58.83 136.35 55.5 137.67"/><polygon class="cls-1" points="69.67 146.1 66.86 143.87 67.38 140.33 70.72 139.01 73.52 141.24 73 144.78 69.67 146.1"/><polygon class="cls-1" points="78.26 144.39 75.46 142.16 75.98 138.62 79.31 137.3 82.12 139.53 81.59 143.07 78.26 144.39"/><polygon class="cls-1" points="64.55 138.53 61.75 136.3 62.27 132.76 65.6 131.44 68.41 133.67 67.88 137.21 64.55 138.53"/><polygon class="cls-1" points="67.94 128.05 65.14 125.82 65.66 122.28 68.99 120.96 71.8 123.19 71.27 126.73 67.94 128.05"/><polygon class="cls-1" points="62.68 114.02 59.88 111.8 60.4 108.26 63.73 106.94 66.54 109.16 66.02 112.71 62.68 114.02"/><polygon class="cls-1" points="69.7 119.28 66.89 117.06 67.41 113.51 70.74 112.2 73.55 114.42 73.03 117.97 69.7 119.28"/><polygon class="cls-1" points="76.56 126.85 73.76 124.63 74.28 121.08 77.61 119.77 80.42 121.99 79.89 125.54 76.56 126.85"/><polygon class="cls-1" points="94.09 112.83 91.29 110.6 91.81 107.06 95.14 105.74 97.95 107.97 97.42 111.51 94.09 112.83"/><polygon class="cls-1" points="60.61 130.35 57.81 128.12 58.33 124.58 61.66 123.26 64.47 125.49 63.94 129.03 60.61 130.35"/><polygon class="cls-1" points="72.77 134.76 69.97 132.53 70.49 128.99 73.82 127.67 76.63 129.89 76.1 133.44 72.77 134.76"/><polygon class="cls-1" points="81.37 133.05 78.56 130.82 79.09 127.28 82.42 125.96 85.22 128.19 84.7 131.73 81.37 133.05"/><polygon class="cls-1" points="85.16 125.14 82.35 122.92 82.88 119.37 86.21 118.06 89.01 120.28 88.49 123.83 85.16 125.14"/><polygon class="cls-1" points="87.23 117.58 84.42 115.36 84.95 111.81 88.28 110.5 91.08 112.72 90.56 116.27 87.23 117.58"/><polygon class="cls-1" points="74.79 114.07 71.98 111.84 72.5 108.3 75.83 106.98 78.64 109.21 78.12 112.75 74.79 114.07"/><polygon class="cls-1" points="67.92 106.5 65.11 104.27 65.64 100.73 68.97 99.41 71.77 101.64 71.25 105.18 67.92 106.5"/><polygon class="cls-1" points="82.08 109.67 79.28 107.45 79.8 103.9 83.13 102.58 85.94 104.81 85.41 108.35 82.08 109.67"/><polygon class="cls-1" points="89.09 104.41 86.29 102.19 86.81 98.64 90.14 97.33 92.95 99.55 92.42 103.09 89.09 104.41"/><polygon class="cls-1" points="99.35 91.8 96.54 89.57 97.07 86.03 100.4 84.71 103.21 86.93 102.68 90.48 99.35 91.8"/><polygon class="cls-1" points="95.99 100.05 93.19 97.83 93.71 94.29 97.04 92.97 99.85 95.19 99.33 98.74 95.99 100.05"/><polygon class="cls-1" points="83.55 96.54 80.74 94.31 81.27 90.77 84.6 89.45 87.41 91.68 86.88 95.22 83.55 96.54"/><polygon class="cls-1" points="90.85 92.14 88.04 89.92 88.56 86.37 91.89 85.06 94.7 87.28 94.18 90.82 90.85 92.14"/><polygon class="cls-1" points="110.13 92.14 107.32 89.92 107.85 86.37 111.18 85.06 113.98 87.28 113.46 90.82 110.13 92.14"/><polygon class="cls-1" points="120.39 79.53 117.58 77.3 118.1 73.76 121.43 72.44 124.24 74.66 123.72 78.21 120.39 79.53"/><polygon class="cls-1" points="117.03 87.78 114.22 85.56 114.75 82.01 118.08 80.7 120.88 82.92 120.36 86.47 117.03 87.78"/><polygon class="cls-1" points="104.59 84.27 101.78 82.04 102.3 78.5 105.63 77.18 108.44 79.41 107.92 82.95 104.59 84.27"/><polygon class="cls-1" points="111.88 79.87 109.07 77.65 109.6 74.1 112.93 72.78 115.74 75.01 115.21 78.55 111.88 79.87"/><polygon class="cls-1" points="108.38 113.18 105.57 110.95 106.09 107.41 109.42 106.09 112.23 108.32 111.71 111.86 108.38 113.18"/><polygon class="cls-1" points="118.63 100.56 115.83 98.33 116.35 94.79 119.68 93.47 122.49 95.7 121.96 99.24 118.63 100.56"/><polygon class="cls-1" points="115.28 108.82 112.47 106.59 112.99 103.05 116.32 101.73 119.13 103.96 118.61 107.5 115.28 108.82"/><polygon class="cls-1" points="102.83 105.3 100.03 103.08 100.55 99.53 103.88 98.22 106.69 100.44 106.16 103.99 102.83 105.3"/><polygon class="cls-1" points="110.13 100.91 107.32 98.68 107.85 95.14 111.18 93.82 113.98 96.05 113.46 99.59 110.13 100.91"/><polygon class="cls-1" points="75.21 102.1 72.41 99.87 72.93 96.33 76.26 95.01 79.07 97.24 78.55 100.78 75.21 102.1"/><polygon class="cls-1" points="84.79 150.24 81.98 148.01 82.51 144.47 85.84 143.15 88.64 145.38 88.12 148.92 84.79 150.24"/><polygon class="cls-1" points="91.66 157.81 88.85 155.58 89.37 152.04 92.7 150.72 95.51 152.95 94.99 156.49 91.66 157.81"/><polygon class="cls-1" points="82.72 157.8 79.91 155.57 80.43 152.03 83.77 150.71 86.57 152.94 86.05 156.48 82.72 157.8"/><polygon class="cls-1" points="20.47 155.71 17.66 153.48 18.19 149.94 21.52 148.62 24.32 150.85 23.8 154.39 20.47 155.71"/><polygon class="cls-1" points="16.96 164.47 14.16 162.25 14.68 158.7 18.01 157.39 20.82 159.61 20.29 163.16 16.96 164.47"/><polygon class="cls-1" points="11.71 171.49 8.9 169.26 9.42 165.72 12.75 164.4 15.56 166.62 15.04 170.17 11.71 171.49"/><polygon class="cls-1" points="2.94 173.24 .13 171.01 .66 167.47 3.99 166.15 6.8 168.38 6.27 171.92 2.94 173.24"/><polygon class="cls-1" points="11.71 157.46 8.9 155.24 9.42 151.69 12.75 150.38 15.56 152.6 15.04 156.14 11.71 157.46"/><polygon class="cls-1" points="6.45 164.47 3.64 162.25 4.16 158.7 7.49 157.39 10.3 159.61 9.78 163.16 6.45 164.47"/><polygon class="cls-1" points="27.34 163.28 24.53 161.05 25.05 157.51 28.39 156.19 31.19 158.42 30.67 161.96 27.34 163.28"/><polygon class="cls-1" points="23.55 171.18 20.74 168.96 21.26 165.41 24.6 164.1 27.4 166.32 26.88 169.86 23.55 171.18"/><polygon class="cls-1" points="25.3 179.95 22.49 177.72 23.02 174.18 26.35 172.86 29.15 175.09 28.63 178.63 25.3 179.95"/><polygon class="cls-1" points="18.29 178.19 15.48 175.97 16.01 172.42 19.34 171.11 22.14 173.33 21.62 176.88 18.29 178.19"/><polygon class="cls-1" points="46.33 185.21 43.53 182.98 44.05 179.44 47.38 178.12 50.19 180.34 49.67 183.89 46.33 185.21"/><polygon class="cls-1" points="37.57 183.45 34.76 181.23 35.29 177.68 38.62 176.37 41.43 178.59 40.9 182.13 37.57 183.45"/><polygon class="cls-1" points="44.58 178.19 41.78 175.97 42.3 172.42 45.63 171.11 48.44 173.33 47.91 176.88 44.58 178.19"/><polygon class="cls-1" points="35.82 176.44 33.01 174.22 33.53 170.67 36.87 169.35 39.67 171.58 39.15 175.12 35.82 176.44"/><polygon class="cls-1" points="67.37 186.96 64.56 184.73 65.09 181.19 68.42 179.87 71.22 182.1 70.7 185.64 67.37 186.96"/><polygon class="cls-1" points="56.85 185.21 54.05 182.98 54.57 179.44 57.9 178.12 60.71 180.34 60.18 183.89 56.85 185.21"/><polygon class="cls-1" points="86.65 192.22 83.84 189.99 84.37 186.45 87.7 185.13 90.51 187.36 89.98 190.9 86.65 192.22"/><polygon class="cls-1" points="76.13 190.46 73.33 188.24 73.85 184.7 77.18 183.38 79.99 185.6 79.46 189.15 76.13 190.46"/><polygon class="cls-1" points="108.85 190.47 105.48 189.26 104.84 185.74 107.58 183.42 110.95 184.64 111.59 188.16 108.85 190.47"/><polygon class="cls-1" points="98.32 192.17 94.95 190.96 94.32 187.43 97.05 185.12 100.42 186.33 101.06 189.86 98.32 192.17"/><polygon class="cls-1" points="32.14 169.47 29.34 167.25 29.86 163.7 33.19 162.39 36 164.61 35.47 168.16 32.14 169.47"/><polygon class="cls-1" points="41.08 169.48 38.27 167.26 38.8 163.71 42.13 162.4 44.94 164.62 44.41 168.16 41.08 169.48"/><polygon class="cls-1" points="35.93 161.57 33.13 159.34 33.65 155.8 36.98 154.48 39.79 156.71 39.26 160.25 35.93 161.57"/><polygon class="cls-1" points="38 154.01 35.2 151.78 35.72 148.24 39.05 146.92 41.86 149.15 41.33 152.69 38 154.01"/><polygon class="cls-1" points="29.07 154 26.26 151.77 26.78 148.23 30.11 146.91 32.92 149.14 32.4 152.68 29.07 154"/><polygon class="cls-1" points="23.95 148.18 21.14 145.96 21.67 142.41 25 141.1 27.81 143.32 27.28 146.86 23.95 148.18"/><polygon class="cls-1" points="25.7 139.42 22.9 137.19 23.42 133.65 26.75 132.33 29.56 134.56 29.04 138.1 25.7 139.42"/><polygon class="cls-1" points="34.47 137.67 31.66 135.44 32.19 131.9 35.52 130.58 38.32 132.8 37.8 136.35 34.47 137.67"/><polygon class="cls-1" points="43.23 135.91 40.43 133.69 40.95 130.14 44.28 128.83 47.09 131.05 46.56 134.59 43.23 135.91"/><polygon class="cls-1" points="37.97 128.9 35.17 126.67 35.69 123.13 39.02 121.81 41.83 124.04 41.31 127.58 37.97 128.9"/><polygon class="cls-1" points="44.99 123.64 42.18 121.42 42.7 117.87 46.03 116.55 48.84 118.78 48.32 122.32 44.99 123.64"/><polygon class="cls-1" points="52 130.65 49.19 128.43 49.72 124.88 53.05 123.57 55.85 125.79 55.33 129.34 52 130.65"/><polygon class="cls-1" points="52 116.63 49.19 114.4 49.72 110.86 53.05 109.54 55.85 111.77 55.33 115.31 52 116.63"/><polygon class="cls-1" points="57.26 123.64 54.45 121.42 54.97 117.87 58.3 116.55 61.11 118.78 60.59 122.32 57.26 123.64"/><polygon class="cls-1" points="32.86 146.1 30.05 143.87 30.57 140.33 33.9 139.01 36.71 141.24 36.19 144.78 32.86 146.1"/><polygon class="cls-1" points="41.45 144.39 38.65 142.16 39.17 138.62 42.5 137.3 45.31 139.53 44.78 143.07 41.45 144.39"/><polygon class="cls-1" points="45.91 163.06 43.1 160.83 43.62 157.29 46.95 155.97 49.76 158.2 49.24 161.74 45.91 163.06"/><polygon class="cls-1" points="45.91 154.29 43.1 152.07 43.62 148.52 46.95 147.21 49.76 149.43 49.24 152.98 45.91 154.29"/><polygon class="cls-1" points="51.17 149.04 48.36 146.81 48.88 143.27 52.21 141.95 55.02 144.17 54.5 147.72 51.17 149.04"/><polygon class="cls-1" points="49.41 142.02 46.61 139.8 47.13 136.25 50.46 134.94 53.27 137.16 52.74 140.71 49.41 142.02"/><polygon class="cls-1" points="87.87 165.71 85.06 163.49 85.58 159.94 88.91 158.62 91.72 160.85 91.2 164.39 87.87 165.71"/><polygon class="cls-1" points="96.46 164 93.65 161.78 94.18 158.23 97.51 156.92 100.32 159.14 99.79 162.68 96.46 164"/><polygon class="cls-1" points="100.25 156.1 97.44 153.87 97.97 150.33 101.3 149.01 104.11 151.24 103.58 154.78 100.25 156.1"/><polygon class="cls-1" points="93.38 148.53 90.58 146.3 91.1 142.76 94.43 141.44 97.24 143.67 96.72 147.21 93.38 148.53"/><polygon class="cls-1" points="86.52 140.96 83.71 138.73 84.23 135.19 87.57 133.87 90.37 136.1 89.85 139.64 86.52 140.96"/><polygon class="cls-1" points="97.17 140.63 94.37 138.4 94.89 134.86 98.22 133.54 101.03 135.77 100.51 139.31 97.17 140.63"/><polygon class="cls-1" points="90.31 133.06 87.5 130.83 88.02 127.29 91.36 125.97 94.16 128.19 93.64 131.74 90.31 133.06"/><polygon class="cls-1" points="100.68 133.62 97.87 131.39 98.4 127.85 101.73 126.53 104.54 128.75 104.01 132.3 100.68 133.62"/><polygon class="cls-1" points="93.81 126.04 91.01 123.82 91.53 120.28 94.86 118.96 97.67 121.18 97.14 124.73 93.81 126.04"/><polygon class="cls-1" points="105.94 126.6 103.13 124.38 103.66 120.83 106.99 119.52 109.79 121.74 109.27 125.29 105.94 126.6"/><polygon class="cls-1" points="99.07 119.03 96.26 116.81 96.79 113.26 100.12 111.95 102.93 114.17 102.4 117.72 99.07 119.03"/><polygon class="cls-1" points="114.43 173.12 111.11 171.75 110.64 168.2 113.47 166.01 116.79 167.38 117.26 170.93 114.43 173.12"/><polygon class="cls-1" points="123.12 178.49 119.81 177.13 119.33 173.58 122.17 171.39 125.48 172.75 125.96 176.3 123.12 178.49"/><polygon class="cls-1" points="119.91 190.64 116.6 189.28 116.12 185.73 118.96 183.54 122.27 184.9 122.75 188.45 119.91 190.64"/><polygon class="cls-1" points="129.45 188.37 126.14 187.01 125.66 183.46 128.5 181.27 131.81 182.63 132.29 186.18 129.45 188.37"/><polygon class="cls-1" points="139.8 185.91 136.48 184.55 136.01 181 138.84 178.81 142.16 180.17 142.63 183.72 139.8 185.91"/><polygon class="cls-1" points="130.91 174.47 127.6 173.11 127.12 169.56 129.96 167.37 133.27 168.73 133.75 172.28 130.91 174.47"/><polygon class="cls-1" points="130.81 166.63 127.49 165.27 127.02 161.72 129.85 159.53 133.17 160.89 133.64 164.44 130.81 166.63"/><polygon class="cls-1" points="122.22 169.1 118.9 167.73 118.43 164.18 121.26 161.99 124.58 163.36 125.05 166.91 122.22 169.1"/><polygon class="cls-1" points="113.52 163.72 110.21 162.36 109.73 158.81 112.57 156.62 115.88 157.98 116.36 161.53 113.52 163.72"/><polygon class="cls-1" points="107.42 180.13 104.1 178.76 103.63 175.21 106.46 173.03 109.78 174.39 110.25 177.94 107.42 180.13"/><polygon class="cls-1" points="106.51 170.73 103.2 169.37 102.72 165.82 105.56 163.63 108.87 164.99 109.35 168.54 106.51 170.73"/><polygon class="cls-1" points="98.65 183.63 95.34 182.27 94.86 178.72 97.7 176.53 101.01 177.89 101.49 181.45 98.65 183.63"/><polygon class="cls-1" points="97.75 174.24 94.43 172.87 93.96 169.32 96.79 167.14 100.11 168.5 100.58 172.05 97.75 174.24"/><polygon class="cls-1" points="88.13 183.63 84.82 182.27 84.34 178.72 87.18 176.53 90.49 177.89 90.97 181.45 88.13 183.63"/><polygon class="cls-1" points="87.23 174.24 83.92 172.87 83.44 169.32 86.28 167.14 89.59 168.5 90.07 172.05 87.23 174.24"/><polygon class="cls-1" points="123.67 160.45 120.36 159.09 119.88 155.54 122.72 153.35 126.03 154.71 126.51 158.26 123.67 160.45"/><polygon class="cls-1" points="131.46 156.43 128.15 155.07 127.67 151.52 130.51 149.33 133.82 150.69 134.3 154.24 131.46 156.43"/><polygon class="cls-1" points="114.98 155.08 111.67 153.71 111.19 150.16 114.03 147.98 117.34 149.34 117.82 152.89 114.98 155.08"/><polygon class="cls-1" points="116.28 138.18 112.97 136.82 112.49 133.27 115.33 131.08 118.64 132.44 119.12 135.99 116.28 138.18"/><polygon class="cls-1" points="111.03 132.92 107.71 131.56 107.24 128.01 110.07 125.82 113.39 127.19 113.86 130.74 111.03 132.92"/><polygon class="cls-1" points="124.98 140.05 121.66 138.69 121.19 135.14 124.02 132.95 127.34 134.31 127.81 137.86 124.98 140.05"/><polygon class="cls-1" points="114.63 146.02 111.32 144.66 110.84 141.11 113.68 138.92 116.99 140.28 117.47 143.83 114.63 146.02"/><polygon class="cls-1" points="107.62 142.51 104.31 141.15 103.83 137.6 106.67 135.41 109.98 136.78 110.46 140.33 107.62 142.51"/><polygon class="cls-1" points="107.62 151.28 104.31 149.92 103.83 146.37 106.67 144.18 109.98 145.54 110.46 149.09 107.62 151.28"/><polygon class="cls-1" points="123.52 148.69 120.21 147.33 119.73 143.78 122.57 141.59 125.88 142.96 126.36 146.51 123.52 148.69"/><polygon class="cls-1" points="131.31 144.67 128 143.31 127.52 139.76 130.36 137.57 133.67 138.94 134.14 142.49 131.31 144.67"/><polygon class="cls-1" points="132.76 136.03 129.45 134.67 128.98 131.12 131.81 128.93 135.13 130.29 135.6 133.84 132.76 136.03"/><polygon class="cls-1" points="132.66 128.19 129.35 126.83 128.87 123.28 131.71 121.09 135.02 122.46 135.5 126.01 132.66 128.19"/><polygon class="cls-1" points="132.66 119.43 129.35 118.07 128.87 114.52 131.71 112.33 135.02 113.69 135.5 117.24 132.66 119.43"/><polygon class="cls-1" points="143.18 133.45 139.87 132.09 139.39 128.54 142.23 126.35 145.54 127.71 146.02 131.26 143.18 133.45"/><polygon class="cls-1" points="139.78 125.51 136.46 124.15 135.99 120.6 138.82 118.41 142.14 119.78 142.61 123.33 139.78 125.51"/><polygon class="cls-1" points="134.42 110.66 131.1 109.3 130.63 105.75 133.46 103.56 136.78 104.93 137.25 108.48 134.42 110.66"/><polygon class="cls-1" points="125.75 113.24 122.44 111.88 121.96 108.33 124.8 106.14 128.11 107.51 128.59 111.06 125.75 113.24"/><polygon class="cls-1" points="125.65 105.41 122.34 104.04 121.86 100.49 124.7 98.31 128.01 99.67 128.49 103.22 125.65 105.41"/><polygon class="cls-1" points="134.52 102.73 131.21 101.36 130.73 97.81 133.57 95.63 136.88 96.99 137.35 100.54 134.52 102.73"/><polygon class="cls-1" points="134.42 94.89 131.1 93.53 130.63 89.98 133.46 87.79 136.78 89.15 137.25 92.7 134.42 94.89"/><polygon class="cls-1" points="125.65 93.14 122.34 91.77 121.86 88.22 124.7 86.03 128.01 87.4 128.49 90.95 125.65 93.14"/><polygon class="cls-1" points="136.27 86.95 132.96 85.59 132.48 82.04 135.32 79.85 138.63 81.21 139.11 84.76 136.27 86.95"/><polygon class="cls-1" points="127.51 85.2 124.19 83.84 123.72 80.28 126.55 78.1 129.87 79.46 130.34 83.01 127.51 85.2"/><polygon class="cls-1" points="137.92 79.11 134.61 77.75 134.13 74.2 136.97 72.01 140.28 73.37 140.76 76.92 137.92 79.11"/><polygon class="cls-1" points="122.14 70.76 119.33 68.54 119.86 64.99 123.19 63.67 125.99 65.9 125.47 69.44 122.14 70.76"/><polygon class="cls-1" points="129.26 76.43 125.95 75.07 125.47 71.52 128.31 69.33 131.62 70.7 132.1 74.25 129.26 76.43"/><polygon class="cls-1" points="141.43 72.1 138.12 70.74 137.64 67.19 140.48 65 143.79 66.36 144.26 69.91 141.43 72.1"/><polygon class="cls-1" points="132.66 68.59 129.35 67.23 128.87 63.68 131.71 61.49 135.02 62.86 135.5 66.41 132.66 68.59"/><polygon class="cls-1" points="137.92 61.58 134.61 60.22 134.13 56.67 136.97 54.48 140.28 55.85 140.76 59.4 137.92 61.58"/><polygon class="cls-1" points="146.69 65.09 143.37 63.73 142.9 60.18 145.73 57.99 149.05 59.35 149.52 62.9 146.69 65.09"/><polygon class="cls-1" points="146.69 56.32 143.37 54.96 142.9 51.41 145.73 49.22 149.05 50.59 149.52 54.14 146.69 56.32"/><polygon class="cls-1" points="155.45 52.82 152.14 51.46 151.66 47.91 154.5 45.72 157.81 47.08 158.29 50.63 155.45 52.82"/><polygon class="cls-1" points="162.46 49.31 159.15 47.95 158.67 44.4 161.51 42.21 164.82 43.58 165.3 47.13 162.46 49.31"/><polygon class="cls-1" points="169.47 45.81 166.16 44.44 165.69 40.89 168.52 38.71 171.83 40.07 172.31 43.62 169.47 45.81"/><polygon class="cls-1" points="176.49 42.3 173.17 40.94 172.7 37.39 175.53 35.2 178.85 36.56 179.32 40.11 176.49 42.3"/><polygon class="cls-1" points="185.25 40.55 181.94 39.19 181.46 35.64 184.3 33.45 187.61 34.81 188.09 38.36 185.25 40.55"/><polygon class="cls-1" points="194.02 38.8 190.7 37.43 190.23 33.88 193.06 31.7 196.38 33.06 196.85 36.61 194.02 38.8"/><polygon class="cls-1" points="204.53 38.8 201.22 37.43 200.74 33.88 203.58 31.7 206.89 33.06 207.37 36.61 204.53 38.8"/><polygon class="cls-1" points="213.3 42.3 209.98 40.94 209.51 37.39 212.34 35.2 215.66 36.56 216.13 40.11 213.3 42.3"/><polygon class="cls-1" points="215.05 33.54 211.74 32.17 211.26 28.62 214.1 26.44 217.41 27.8 217.89 31.35 215.05 33.54"/><polygon class="cls-1" points="216.8 24.77 213.49 23.41 213.01 19.86 215.85 17.67 219.16 19.03 219.64 22.58 216.8 24.77"/><polygon class="cls-1" points="225.57 21.27 222.25 19.9 221.78 16.35 224.61 14.17 227.93 15.53 228.4 19.08 225.57 21.27"/><polygon class="cls-1" points="225.57 30.03 222.25 28.67 221.78 25.12 224.61 22.93 227.93 24.29 228.4 27.84 225.57 30.03"/><polygon class="cls-1" points="223.81 38.8 220.5 37.43 220.03 33.88 222.86 31.7 226.17 33.06 226.65 36.61 223.81 38.8"/><polygon class="cls-1" points="229.07 45.81 225.76 44.44 225.28 40.89 228.12 38.71 231.43 40.07 231.91 43.62 229.07 45.81"/><polygon class="cls-1" points="236.08 51.07 232.77 49.7 232.3 46.15 235.13 43.97 238.44 45.33 238.92 48.88 236.08 51.07"/><polygon class="cls-1" points="243.1 56.32 239.78 54.96 239.31 51.41 242.14 49.22 245.46 50.59 245.93 54.14 243.1 56.32"/><polygon class="cls-1" points="234.33 33.54 231.02 32.17 230.54 28.62 233.38 26.44 236.69 27.8 237.17 31.35 234.33 33.54"/><polygon class="cls-1" points="239.59 40.55 236.28 39.19 235.8 35.64 238.64 33.45 241.95 34.81 242.43 38.36 239.59 40.55"/><polygon class="cls-1" points="246.6 45.81 243.29 44.44 242.81 40.89 245.65 38.71 248.96 40.07 249.44 43.62 246.6 45.81"/><polygon class="cls-1" points="253.61 51.07 250.3 49.7 249.82 46.15 252.66 43.97 255.97 45.33 256.45 48.88 253.61 51.07"/><polygon class="cls-1" points="262.38 49.31 259.07 47.95 258.59 44.4 261.43 42.21 264.74 43.58 265.21 47.13 262.38 49.31"/><polygon class="cls-1" points="239.59 24.77 236.28 23.41 235.8 19.86 238.64 17.67 241.95 19.03 242.43 22.58 239.59 24.77"/><polygon class="cls-1" points="244.85 31.78 241.54 30.42 241.06 26.87 243.9 24.68 247.21 26.05 247.69 29.6 244.85 31.78"/><polygon class="cls-1" points="251.86 37.04 248.55 35.68 248.07 32.13 250.91 29.94 254.22 31.3 254.7 34.86 251.86 37.04"/><polygon class="cls-1" points="258.87 42.3 255.56 40.94 255.08 37.39 257.92 35.2 261.23 36.56 261.71 40.11 258.87 42.3"/><polygon class="cls-1" points="243.1 16.01 239.78 14.65 239.31 11.1 242.14 8.91 245.46 10.27 245.93 13.82 243.1 16.01"/><polygon class="cls-1" points="248.35 23.02 245.04 21.66 244.57 18.11 247.4 15.92 250.71 17.28 251.19 20.83 248.35 23.02"/><polygon class="cls-1" points="255.37 28.28 252.05 26.92 251.58 23.37 254.41 21.18 257.73 22.54 258.2 26.09 255.37 28.28"/><polygon class="cls-1" points="262.38 33.54 259.07 32.17 258.59 28.62 261.43 26.44 264.74 27.8 265.21 31.35 262.38 33.54"/><polygon class="cls-1" points="253.61 12.5 250.3 11.14 249.82 7.59 252.66 5.4 255.97 6.76 256.45 10.31 253.61 12.5"/><polygon class="cls-1" points="258.87 19.51 255.56 18.15 255.08 14.6 257.92 12.41 261.23 13.78 261.71 17.33 258.87 19.51"/><polygon class="cls-1" points="265.88 24.77 262.57 23.41 262.09 19.86 264.93 17.67 268.24 19.03 268.72 22.58 265.88 24.77"/><polygon class="cls-1" points="271.14 31.78 267.83 30.42 267.35 26.87 270.19 24.68 273.5 26.05 273.98 29.6 271.14 31.78"/><polygon class="cls-1" points="267.64 40.55 264.32 39.19 263.85 35.64 266.68 33.45 270 34.81 270.47 38.36 267.64 40.55"/><polygon class="cls-1" points="279.91 37.04 276.59 35.68 276.12 32.13 278.95 29.94 282.27 31.3 282.74 34.86 279.91 37.04"/><polygon class="cls-1" points="276.4 45.81 273.09 44.44 272.61 40.89 275.45 38.71 278.76 40.07 279.24 43.62 276.4 45.81"/><polygon class="cls-1" points="279.91 56.32 276.59 54.96 276.12 51.41 278.95 49.22 282.27 50.59 282.74 54.14 279.91 56.32"/><polygon class="cls-1" points="276.4 65.09 273.09 63.73 272.61 60.18 275.45 57.99 278.76 59.35 279.24 62.9 276.4 65.09"/><polygon class="cls-1" points="279.91 73.85 276.59 72.49 276.12 68.94 278.95 66.75 282.27 68.12 282.74 71.67 279.91 73.85"/><polygon class="cls-1" points="276.4 82.62 273.09 81.26 272.61 77.71 275.45 75.52 278.76 76.88 279.24 80.43 276.4 82.62"/><polygon class="cls-1" points="269.39 72.1 266.08 70.74 265.6 67.19 268.44 65 271.75 66.36 272.23 69.91 269.39 72.1"/><polygon class="cls-1" points="265.88 80.87 262.57 79.5 262.09 75.95 264.93 73.76 268.24 75.13 268.72 78.68 265.88 80.87"/><polygon class="cls-1" points="258.87 77.36 255.56 76 255.08 72.45 257.92 70.26 261.23 71.62 261.71 75.17 258.87 77.36"/><polygon class="cls-1" points="257.12 86.12 253.81 84.76 253.33 81.21 256.17 79.02 259.48 80.39 259.96 83.94 257.12 86.12"/><polygon class="cls-1" points="265.88 89.63 262.57 88.27 262.09 84.72 264.93 82.53 268.24 83.89 268.72 87.44 265.88 89.63"/><polygon class="cls-1" points="274.65 91.38 271.34 90.02 270.86 86.47 273.7 84.28 277.01 85.64 277.48 89.19 274.65 91.38"/><polygon class="cls-1" points="278.15 100.15 274.84 98.78 274.36 95.23 277.2 93.05 280.51 94.41 280.99 97.96 278.15 100.15"/><polygon class="cls-1" points="274.65 108.91 271.34 107.55 270.86 104 273.7 101.81 277.01 103.17 277.48 106.72 274.65 108.91"/><polygon class="cls-1" points="276.4 117.68 273.09 116.31 272.61 112.76 275.45 110.58 278.76 111.94 279.24 115.49 276.4 117.68"/><polygon class="cls-1" points="258.87 96.64 255.56 95.28 255.08 91.73 257.92 89.54 261.23 90.9 261.71 94.45 258.87 96.64"/><polygon class="cls-1" points="258.87 105.41 255.56 104.04 255.08 100.49 257.92 98.31 261.23 99.67 261.71 103.22 258.87 105.41"/><polygon class="cls-1" points="257.12 115.92 253.81 114.56 253.33 111.01 256.17 108.82 259.48 110.19 259.96 113.74 257.12 115.92"/><polygon class="cls-1" points="269.39 100.15 266.08 98.78 265.6 95.23 268.44 93.05 271.75 94.41 272.23 97.96 269.39 100.15"/><polygon class="cls-1" points="265.88 108.91 262.57 107.55 262.09 104 264.93 101.81 268.24 103.17 268.72 106.72 265.88 108.91"/><polygon class="cls-1" points="265.88 119.43 262.57 118.07 262.09 114.52 264.93 112.33 268.24 113.69 268.72 117.24 265.88 119.43"/><polygon class="cls-1" points="274.65 128.19 271.34 126.83 270.86 123.28 273.7 121.09 277.01 122.46 277.48 126.01 274.65 128.19"/><polygon class="cls-1" points="271.14 136.96 267.83 135.6 267.35 132.04 270.19 129.86 273.5 131.22 273.98 134.77 271.14 136.96"/><polygon class="cls-1" points="272.9 145.72 269.58 144.36 269.11 140.81 271.94 138.62 275.26 139.98 275.73 143.53 272.9 145.72"/><polygon class="cls-1" points="255.37 133.45 252.05 132.09 251.58 128.54 254.41 126.35 257.73 127.71 258.2 131.26 255.37 133.45"/><polygon class="cls-1" points="246.6 136.96 243.29 135.6 242.81 132.04 245.65 129.86 248.96 131.22 249.44 134.77 246.6 136.96"/><polygon class="cls-1" points="255.37 124.69 252.05 123.32 251.58 119.77 254.41 117.59 257.73 118.95 258.2 122.5 255.37 124.69"/><polygon class="cls-1" points="253.61 143.97 250.3 142.61 249.82 139.06 252.66 136.87 255.97 138.23 256.45 141.78 253.61 143.97"/><polygon class="cls-1" points="265.88 128.19 262.57 126.83 262.09 123.28 264.93 121.09 268.24 122.46 268.72 126.01 265.88 128.19"/><polygon class="cls-1" points="262.38 136.96 259.07 135.6 258.59 132.04 261.43 129.86 264.74 131.22 265.21 134.77 262.38 136.96"/><polygon class="cls-1" points="262.38 147.48 259.07 146.11 258.59 142.56 261.43 140.37 264.74 141.74 265.21 145.29 262.38 147.48"/><polygon class="cls-1" points="269.39 156.24 266.08 154.88 265.6 151.33 268.44 149.14 271.75 150.5 272.23 154.05 269.39 156.24"/><polygon class="cls-1" points="265.88 165 262.57 163.64 262.09 160.09 264.93 157.9 268.24 159.27 268.72 162.82 265.88 165"/><polygon class="cls-1" points="267.64 173.77 264.32 172.41 263.85 168.86 266.68 166.67 270 168.03 270.47 171.58 267.64 173.77"/><polygon class="cls-1" points="250.11 161.5 246.79 160.14 246.32 156.59 249.16 154.4 252.47 155.76 252.94 159.31 250.11 161.5"/><polygon class="cls-1" points="251.86 152.73 248.55 151.37 248.07 147.82 250.91 145.63 254.22 147 254.7 150.55 251.86 152.73"/><polygon class="cls-1" points="243.1 165 239.78 163.64 239.31 160.09 242.14 157.9 245.46 159.27 245.93 162.82 243.1 165"/><polygon class="cls-1" points="248.35 172.02 245.04 170.65 244.57 167.1 247.4 164.92 250.71 166.28 251.19 169.83 248.35 172.02"/><polygon class="cls-1" points="260.63 156.24 257.31 154.88 256.84 151.33 259.67 149.14 262.99 150.5 263.46 154.05 260.63 156.24"/><polygon class="cls-1" points="257.12 165 253.81 163.64 253.33 160.09 256.17 157.9 259.48 159.27 259.96 162.82 257.12 165"/><polygon class="cls-1" points="257.12 175.52 253.81 174.16 253.33 170.61 256.17 168.42 259.48 169.78 259.96 173.33 257.12 175.52"/><polygon class="cls-1" points="269.39 52.82 266.08 51.46 265.6 47.91 268.44 45.72 271.75 47.08 272.23 50.63 269.39 52.82"/><polygon class="cls-1" points="265.88 61.58 262.57 60.22 262.09 56.67 264.93 54.48 268.24 55.85 268.72 59.4 265.88 61.58"/><polygon class="cls-1" points="260.63 68.59 257.31 67.23 256.84 63.68 259.67 61.49 262.99 62.86 263.46 66.41 260.63 68.59"/><polygon class="cls-1" points="258.87 58.08 255.56 56.71 255.08 53.16 257.92 50.98 261.23 52.34 261.71 55.89 258.87 58.08"/><polygon class="cls-1" points="250.11 61.58 246.79 60.22 246.32 56.67 249.16 54.48 252.47 55.85 252.94 59.4 250.11 61.58"/><polygon class="cls-1" points="251.86 70.35 248.55 68.99 248.07 65.43 250.91 63.25 254.22 64.61 254.7 68.16 251.86 70.35"/><polygon class="cls-1" points="279.91 28.28 276.59 26.92 276.12 23.37 278.95 21.18 282.27 22.54 282.74 26.09 279.91 28.28"/><polygon class="cls-1" points="274.65 21.27 271.34 19.9 270.86 16.35 273.7 14.17 277.01 15.53 277.48 19.08 274.65 21.27"/><polygon class="cls-1" points="265.88 16.01 262.57 14.65 262.09 11.1 264.93 8.91 268.24 10.27 268.72 13.82 265.88 16.01"/><polygon class="cls-1" points="269.39 7.24 266.08 5.88 265.6 2.33 268.44 .14 271.75 1.51 272.23 5.06 269.39 7.24"/><polygon class="cls-1" points="276.4 12.5 273.09 11.14 272.61 7.59 275.45 5.4 278.76 6.76 279.24 10.31 276.4 12.5"/><polygon class="cls-1" points="197.52 31.78 194.21 30.42 193.73 26.87 196.57 24.68 199.88 26.05 200.36 29.6 197.52 31.78"/><polygon class="cls-1" points="206.29 30.03 202.97 28.67 202.5 25.12 205.33 22.93 208.65 24.29 209.12 27.84 206.29 30.03"/><polygon class="cls-1" points="124.07 130.66 120.76 129.29 120.28 125.74 123.12 123.56 126.43 124.92 126.91 128.47 124.07 130.66"/><polygon class="cls-1" points="115.38 125.28 112.07 123.92 111.59 120.37 114.43 118.18 117.74 119.54 118.22 123.09 115.38 125.28"/><polygon class="cls-1" points="125.53 122.01 122.22 120.65 121.74 117.1 124.58 114.91 127.89 116.28 128.36 119.83 125.53 122.01"/><polygon class="cls-1" points="116.84 116.64 113.52 115.27 113.05 111.72 115.88 109.54 119.2 110.9 119.67 114.45 116.84 116.64"/><polygon class="cls-1" points="139.35 163.76 136.04 162.39 135.56 158.84 138.4 156.66 141.71 158.02 142.19 161.57 139.35 163.76"/><polygon class="cls-1" points="151.55 165.63 148.24 164.26 147.76 160.71 150.6 158.53 153.91 159.89 154.38 163.44 151.55 165.63"/><polygon class="cls-1" points="141.03 177.9 137.72 176.53 137.24 172.98 140.08 170.8 143.39 172.16 143.87 175.71 141.03 177.9"/><polygon class="cls-1" points="144.71 169.84 141.4 168.48 140.92 164.93 143.76 162.74 147.07 164.1 147.55 167.65 144.71 169.84"/><polygon class="cls-1" points="148.34 183.03 145.03 181.67 144.55 178.12 147.39 175.93 150.7 177.3 151.17 180.85 148.34 183.03"/><polygon class="cls-1" points="151.84 174.27 148.53 172.91 148.06 169.36 150.89 167.17 154.2 168.53 154.68 172.08 151.84 174.27"/><polygon class="cls-1" points="157.88 180.77 154.57 179.4 154.09 175.85 156.93 173.67 160.24 175.03 160.72 178.58 157.88 180.77"/><polygon class="cls-1" points="166.35 177.38 163.03 176.02 162.56 172.47 165.39 170.28 168.71 171.64 169.18 175.19 166.35 177.38"/><polygon class="cls-1" points="161.09 172.12 157.78 170.76 157.3 167.21 160.14 165.02 163.45 166.39 163.93 169.94 161.09 172.12"/><polygon class="cls-1" points="175.11 173.88 171.8 172.51 171.32 168.96 174.16 166.78 177.47 168.14 177.95 171.69 175.11 173.88"/><polygon class="cls-1" points="183.88 170.37 180.56 169.01 180.09 165.46 182.92 163.27 186.24 164.63 186.71 168.18 183.88 170.37"/><polygon class="cls-1" points="192.64 166.86 189.33 165.5 188.85 161.95 191.69 159.76 195 161.13 195.48 164.68 192.64 166.86"/><polygon class="cls-1" points="185.63 161.61 182.32 160.24 181.84 156.69 184.68 154.51 187.99 155.87 188.47 159.42 185.63 161.61"/><polygon class="cls-1" points="175.11 159.85 171.8 158.49 171.32 154.94 174.16 152.75 177.47 154.12 177.95 157.67 175.11 159.85"/><polygon class="cls-1" points="168.1 156.35 164.79 154.98 164.31 151.43 167.15 149.25 170.46 150.61 170.94 154.16 168.1 156.35"/><polygon class="cls-1" points="169.85 166.86 166.54 165.5 166.06 161.95 168.9 159.76 172.21 161.13 172.69 164.68 169.85 166.86"/><polygon class="cls-1" points="161.09 163.36 157.78 162 157.3 158.45 160.14 156.26 163.45 157.62 163.93 161.17 161.09 163.36"/><polygon class="cls-1" points="161.09 151.09 157.78 149.73 157.3 146.18 160.14 143.99 163.45 145.35 163.93 148.9 161.09 151.09"/><polygon class="cls-1" points="154.08 158.1 150.76 156.74 150.29 153.19 153.12 151 156.44 152.36 156.91 155.91 154.08 158.1"/><polygon class="cls-1" points="203.16 163.36 199.85 162 199.37 158.45 202.21 156.26 205.52 157.62 205.99 161.17 203.16 163.36"/><polygon class="cls-1" points="145.38 157.98 142.07 156.62 141.6 153.07 144.43 150.88 147.74 152.24 148.22 155.8 145.38 157.98"/><polygon class="cls-1" points="147.14 150.97 143.82 149.61 143.35 146.06 146.18 143.87 149.5 145.23 149.97 148.78 147.14 150.97"/><polygon class="cls-1" points="138.44 150.85 135.13 149.49 134.65 145.94 137.49 143.75 140.8 145.12 141.28 148.67 138.44 150.85"/><polygon class="cls-1" points="153.85 147.59 150.54 146.22 150.06 142.67 152.9 140.49 156.21 141.85 156.69 145.4 153.85 147.59"/><polygon class="cls-1" points="148.59 142.33 145.28 140.97 144.8 137.42 147.64 135.23 150.95 136.59 151.43 140.14 148.59 142.33"/><polygon class="cls-1" points="139.9 142.21 136.59 140.85 136.11 137.3 138.95 135.11 142.26 136.47 142.74 140.02 139.9 142.21"/><polygon class="cls-1" points="138.85 236.3 136.12 238.62 132.74 237.41 132.1 233.89 134.83 231.57 138.2 232.78 138.85 236.3"/><polygon class="cls-1" points="147.61 231.04 144.88 233.36 141.51 232.15 140.87 228.63 143.6 226.31 146.97 227.52 147.61 231.04"/><polygon class="cls-1" points="145.86 239.81 143.13 242.12 139.76 240.92 139.11 237.4 141.84 235.08 145.22 236.28 145.86 239.81"/><polygon class="cls-1" points="154.62 236.3 151.89 238.62 148.52 237.41 147.88 233.89 150.61 231.57 153.98 232.78 154.62 236.3"/><polygon class="cls-1" points="161.63 232.79 158.9 235.11 155.53 233.91 154.89 230.38 157.62 228.06 160.99 229.27 161.63 232.79"/><polygon class="cls-1" points="154.62 227.54 151.89 229.85 148.52 228.65 147.88 225.12 150.61 222.81 153.98 224.01 154.62 227.54"/><polygon class="cls-1" points="168.65 227.54 165.92 229.85 162.54 228.65 161.9 225.12 164.63 222.81 168 224.01 168.65 227.54"/><polygon class="cls-1" points="170.4 234.55 167.67 236.87 164.3 235.66 163.65 232.14 166.38 229.82 169.76 231.02 170.4 234.55"/><polygon class="cls-1" points="156.38 218.77 153.65 221.09 150.27 219.88 149.63 216.36 152.36 214.04 155.73 215.25 156.38 218.77"/><polygon class="cls-1" points="161.63 224.03 158.9 226.35 155.53 225.14 154.89 221.62 157.62 219.3 160.99 220.51 161.63 224.03"/><polygon class="cls-1" points="147.61 222.28 144.88 224.6 141.51 223.39 140.87 219.87 143.6 217.55 146.97 218.75 147.61 222.28"/><polygon class="cls-1" points="140.6 218.77 137.87 221.09 134.5 219.88 133.85 216.36 136.58 214.04 139.96 215.25 140.6 218.77"/><polygon class="cls-1" points="138.85 227.54 136.12 229.85 132.74 228.65 132.1 225.12 134.83 222.81 138.2 224.01 138.85 227.54"/><polygon class="cls-1" points="130.08 232.79 127.35 235.11 123.98 233.91 123.34 230.38 126.07 228.06 129.44 229.27 130.08 232.79"/><polygon class="cls-1" points="131.84 222.28 129.11 224.6 125.73 223.39 125.09 219.87 127.82 217.55 131.19 218.75 131.84 222.28"/><polygon class="cls-1" points="149.36 204.75 146.63 207.07 143.26 205.86 142.62 202.34 145.35 200.02 148.72 201.22 149.36 204.75"/><polygon class="cls-1" points="151.12 195.98 148.39 198.3 145.01 197.1 144.37 193.57 147.1 191.25 150.47 192.46 151.12 195.98"/><polygon class="cls-1" points="147.61 213.51 144.88 215.83 141.51 214.63 140.87 211.1 143.6 208.78 146.97 209.99 147.61 213.51"/><polygon class="cls-1" points="140.6 208.25 137.87 210.57 134.5 209.37 133.85 205.84 136.58 203.52 139.96 204.73 140.6 208.25"/><polygon class="cls-1" points="131.84 206.5 129.11 208.82 125.73 207.61 125.09 204.09 127.82 201.77 131.19 202.98 131.84 206.5"/><polygon class="cls-1" points="124.82 202.99 122.09 205.31 118.72 204.11 118.08 200.58 120.81 198.27 124.18 199.47 124.82 202.99"/><polygon class="cls-1" points="138.85 199.49 136.12 201.81 132.74 200.6 132.1 197.08 134.83 194.76 138.2 195.97 138.85 199.49"/><polygon class="cls-1" points="130.08 215.27 127.35 217.58 123.98 216.38 123.34 212.85 126.07 210.54 129.44 211.74 130.08 215.27"/><polygon class="cls-1" points="123.07 210.01 120.34 212.33 116.97 211.12 116.32 207.6 119.06 205.28 122.43 206.48 123.07 210.01"/><polygon class="cls-1" points="116.06 206.5 113.33 208.82 109.96 207.61 109.31 204.09 112.04 201.77 115.42 202.98 116.06 206.5"/><polygon class="cls-1" points="123.07 227.54 120.34 229.85 116.97 228.65 116.32 225.12 119.06 222.81 122.43 224.01 123.07 227.54"/><polygon class="cls-1" points="123.07 218.77 120.34 221.09 116.97 219.88 116.32 216.36 119.06 214.04 122.43 215.25 123.07 218.77"/><polygon class="cls-1" points="194.94 236.3 192.21 238.62 188.84 237.41 188.19 233.89 190.92 231.57 194.3 232.78 194.94 236.3"/><polygon class="cls-1" points="203.7 231.04 200.97 233.36 197.6 232.15 196.96 228.63 199.69 226.31 203.06 227.52 203.7 231.04"/><polygon class="cls-1" points="201.95 239.81 199.22 242.12 195.85 240.92 195.2 237.4 197.94 235.08 201.31 236.28 201.95 239.81"/><polygon class="cls-1" points="210.72 236.3 207.99 238.62 204.61 237.41 203.97 233.89 206.7 231.57 210.07 232.78 210.72 236.3"/><polygon class="cls-1" points="217.73 232.79 215 235.11 211.62 233.91 210.98 230.38 213.71 228.06 217.08 229.27 217.73 232.79"/><polygon class="cls-1" points="210.72 227.54 207.99 229.85 204.61 228.65 203.97 225.12 206.7 222.81 210.07 224.01 210.72 227.54"/><polygon class="cls-1" points="224.74 227.54 222.01 229.85 218.64 228.65 217.99 225.12 220.72 222.81 224.1 224.01 224.74 227.54"/><polygon class="cls-1" points="212.47 218.77 209.74 221.09 206.37 219.88 205.72 216.36 208.45 214.04 211.83 215.25 212.47 218.77"/><polygon class="cls-1" points="217.73 224.03 215 226.35 211.62 225.14 210.98 221.62 213.71 219.3 217.08 220.51 217.73 224.03"/><polygon class="cls-1" points="203.7 222.28 200.97 224.6 197.6 223.39 196.96 219.87 199.69 217.55 203.06 218.75 203.7 222.28"/><polygon class="cls-1" points="196.69 218.77 193.96 221.09 190.59 219.88 189.95 216.36 192.68 214.04 196.05 215.25 196.69 218.77"/><polygon class="cls-1" points="194.94 227.54 192.21 229.85 188.84 228.65 188.19 225.12 190.92 222.81 194.3 224.01 194.94 227.54"/><polygon class="cls-1" points="186.18 232.79 183.44 235.11 180.07 233.91 179.43 230.38 182.16 228.06 185.53 229.27 186.18 232.79"/><polygon class="cls-1" points="177.41 238.05 174.68 240.37 171.31 239.17 170.66 235.64 173.39 233.32 176.77 234.53 177.41 238.05"/><polygon class="cls-1" points="187.93 222.28 185.2 224.6 181.82 223.39 181.18 219.87 183.91 217.55 187.29 218.75 187.93 222.28"/><polygon class="cls-1" points="165.14 213.51 162.41 215.83 159.04 214.63 158.39 211.1 161.12 208.78 164.5 209.99 165.14 213.51"/><polygon class="cls-1" points="173.91 208.25 171.17 210.57 167.8 209.37 167.16 205.84 169.89 203.52 173.26 204.73 173.91 208.25"/><polygon class="cls-1" points="172.15 217.02 169.42 219.34 166.05 218.13 165.41 214.61 168.14 212.29 171.51 213.49 172.15 217.02"/><polygon class="cls-1" points="180.92 213.51 178.19 215.83 174.81 214.63 174.17 211.1 176.9 208.78 180.27 209.99 180.92 213.51"/><polygon class="cls-1" points="187.93 210.01 185.2 212.33 181.82 211.12 181.18 207.6 183.91 205.28 187.29 206.48 187.93 210.01"/><polygon class="cls-1" points="180.92 204.75 178.19 207.07 174.81 205.86 174.17 202.34 176.9 200.02 180.27 201.22 180.92 204.75"/><polygon class="cls-1" points="194.94 204.75 192.21 207.07 188.84 205.86 188.19 202.34 190.92 200.02 194.3 201.22 194.94 204.75"/><polygon class="cls-1" points="182.67 195.98 179.94 198.3 176.57 197.1 175.92 193.57 178.65 191.25 182.03 192.46 182.67 195.98"/><polygon class="cls-1" points="175.66 190.72 172.93 193.04 169.55 191.84 168.91 188.31 171.64 186 175.02 187.2 175.66 190.72"/><polygon class="cls-1" points="187.93 201.24 185.2 203.56 181.82 202.36 181.18 198.83 183.91 196.51 187.29 197.72 187.93 201.24"/><polygon class="cls-1" points="173.91 199.49 171.17 201.81 167.8 200.6 167.16 197.08 169.89 194.76 173.26 195.97 173.91 199.49"/><polygon class="cls-1" points="166.89 195.98 164.16 198.3 160.79 197.1 160.15 193.57 162.88 191.25 166.25 192.46 166.89 195.98"/><polygon class="cls-1" points="165.14 204.75 162.41 207.07 159.04 205.86 158.39 202.34 161.12 200.02 164.5 201.22 165.14 204.75"/><polygon class="cls-1" points="156.38 210.01 153.65 212.33 150.27 211.12 149.63 207.6 152.36 205.28 155.73 206.48 156.38 210.01"/><polygon class="cls-1" points="158.13 199.49 155.4 201.81 152.03 200.6 151.38 197.08 154.11 194.76 157.49 195.97 158.13 199.49"/><polygon class="cls-1" points="179.16 227.54 176.43 229.85 173.06 228.65 172.42 225.12 175.15 222.81 178.52 224.01 179.16 227.54"/><polygon class="cls-1" points="249.28 244.94 250.4 248.34 248.02 251.01 244.51 250.29 243.39 246.89 245.77 244.21 249.28 244.94"/><polygon class="cls-1" points="251.03 255.45 252.16 258.85 249.78 261.53 246.27 260.8 245.14 257.4 247.52 254.73 251.03 255.45"/><polygon class="cls-1" points="249.28 264.22 250.4 267.62 248.02 270.29 244.51 269.57 243.39 266.17 245.77 263.49 249.28 264.22"/><polygon class="cls-1" points="247.69 234.84 248.81 238.24 246.43 240.92 242.92 240.19 241.8 236.79 244.18 234.11 247.69 234.84"/><polygon class="cls-1" points="255.16 239.75 256.28 243.15 253.9 245.83 250.39 245.1 249.27 241.7 251.65 239.02 255.16 239.75"/><polygon class="cls-1" points="255.19 230.31 256.32 233.71 253.94 236.39 250.43 235.66 249.3 232.26 251.68 229.59 255.19 230.31"/><polygon class="cls-1" points="254.57 222.5 255.69 225.9 253.31 228.57 249.81 227.85 248.68 224.45 251.06 221.77 254.57 222.5"/><polygon class="cls-1" points="247.07 227.03 248.19 230.43 245.81 233.1 242.3 232.38 241.18 228.98 243.56 226.3 247.07 227.03"/><polygon class="cls-1" points="252.32 214.02 253.45 217.42 251.07 220.1 247.56 219.38 246.43 215.98 248.81 213.3 252.32 214.02"/><polygon class="cls-1" points="259.83 213.73 260.95 217.13 258.57 219.81 255.06 219.08 253.94 215.68 256.32 213.01 259.83 213.73"/><polygon class="cls-1" points="257.58 205.26 258.71 208.66 256.32 211.34 252.82 210.61 251.69 207.21 254.07 204.53 257.58 205.26"/><polygon class="cls-1" points="264.59 201.75 265.72 205.15 263.34 207.83 259.83 207.11 258.7 203.7 261.08 201.03 264.59 201.75"/><polygon class="cls-1" points="239.6 222.12 240.72 225.52 238.34 228.19 234.83 227.47 233.71 224.07 236.09 221.39 239.6 222.12"/><polygon class="cls-1" points="246.44 219.21 247.57 222.61 245.19 225.29 241.68 224.56 240.55 221.16 242.94 218.49 246.44 219.21"/><polygon class="cls-1" points="239.56 231.55 240.69 234.95 238.31 237.63 234.8 236.91 233.67 233.51 236.05 230.83 239.56 231.55"/><polygon class="cls-1" points="233.68 236.74 234.81 240.14 232.43 242.82 228.92 242.09 227.79 238.69 230.18 236.02 233.68 236.74"/><polygon class="cls-1" points="241.15 241.65 242.28 245.05 239.9 247.73 236.39 247 235.26 243.6 237.64 240.93 241.15 241.65"/><polygon class="cls-1" points="242.74 251.75 243.87 255.15 241.49 257.82 237.98 257.1 236.85 253.7 239.23 251.02 242.74 251.75"/><polygon class="cls-1" points="242.74 260.51 243.87 263.91 241.49 266.59 237.98 265.86 236.85 262.46 239.23 259.79 242.74 260.51"/><polygon class="cls-1" points="248 272.78 249.13 276.18 246.75 278.86 243.24 278.13 242.11 274.73 244.49 272.06 248 272.78"/><polygon class="cls-1" points="240.99 267.52 242.12 270.92 239.73 273.6 236.23 272.87 235.1 269.47 237.48 266.8 240.99 267.52"/><polygon class="cls-1" points="233.65 246.18 234.78 249.58 232.39 252.26 228.89 251.53 227.76 248.13 230.14 245.46 233.65 246.18"/><polygon class="cls-1" points="224.92 234.99 226.05 238.39 223.66 241.06 220.16 240.34 219.03 236.94 221.41 234.26 224.92 234.99"/><polygon class="cls-1" points="231.93 227.98 233.06 231.38 230.68 234.05 227.17 233.33 226.04 229.93 228.42 227.25 231.93 227.98"/><polygon class="cls-1" points="224.88 244.43 226.01 247.83 223.63 250.5 220.12 249.78 218.99 246.38 221.38 243.7 224.88 244.43"/><polygon class="cls-1" points="216.12 242.67 217.25 246.08 214.86 248.75 211.36 248.03 210.23 244.63 212.61 241.95 216.12 242.67"/><polygon class="cls-1" points="235.24 256.28 236.37 259.68 233.98 262.35 230.48 261.63 229.35 258.23 231.73 255.55 235.24 256.28"/><polygon class="cls-1" points="233.49 265.04 234.61 268.44 232.23 271.12 228.72 270.39 227.6 266.99 229.98 264.32 233.49 265.04"/><polygon class="cls-1" points="235.25 299.28 236.38 302.68 234 305.35 230.49 304.63 229.37 301.23 231.75 298.55 235.25 299.28"/><polygon class="cls-1" points="237.01 304.53 238.13 307.93 235.75 310.61 232.24 309.89 231.12 306.49 233.5 303.81 237.01 304.53"/><polygon class="cls-1" points="233.66 289.18 234.79 292.58 232.41 295.26 228.9 294.53 227.77 291.13 230.16 288.45 233.66 289.18"/><polygon class="cls-1" points="241.13 294.09 242.26 297.49 239.88 300.17 236.37 299.44 235.24 296.04 237.62 293.36 241.13 294.09"/><polygon class="cls-1" points="241.17 284.65 242.29 288.05 239.91 290.73 236.4 290 235.28 286.6 237.66 283.93 241.17 284.65"/><polygon class="cls-1" points="240.55 276.84 241.67 280.24 239.29 282.91 235.78 282.19 234.66 278.79 237.04 276.11 240.55 276.84"/><polygon class="cls-1" points="233.04 281.36 234.17 284.77 231.79 287.44 228.28 286.72 227.15 283.32 229.53 280.64 233.04 281.36"/><polygon class="cls-1" points="225.57 276.45 226.7 279.86 224.32 282.53 220.81 281.81 219.68 278.41 222.07 275.73 225.57 276.45"/><polygon class="cls-1" points="232.42 273.55 233.55 276.95 231.16 279.63 227.66 278.9 226.53 275.5 228.91 272.83 232.42 273.55"/><polygon class="cls-1" points="225.54 285.89 226.67 289.29 224.28 291.97 220.78 291.25 219.65 287.85 222.03 285.17 225.54 285.89"/><polygon class="cls-1" points="219.66 291.08 220.79 294.48 218.41 297.16 214.9 296.43 213.77 293.03 216.15 290.36 219.66 291.08"/><polygon class="cls-1" points="227.13 295.99 228.26 299.39 225.87 302.07 222.37 301.34 221.24 297.94 223.62 295.27 227.13 295.99"/><polygon class="cls-1" points="228.72 306.09 229.85 309.49 227.46 312.16 223.96 311.44 222.83 308.04 225.21 305.36 228.72 306.09"/><polygon class="cls-1" points="233.98 313.1 235.1 316.5 232.72 319.17 229.21 318.45 228.09 315.05 230.47 312.37 233.98 313.1"/><polygon class="cls-1" points="219.63 300.52 220.75 303.92 218.37 306.6 214.86 305.87 213.74 302.47 216.12 299.8 219.63 300.52"/><polygon class="cls-1" points="221.22 310.62 222.34 314.02 219.96 316.69 216.45 315.97 215.33 312.57 217.71 309.89 221.22 310.62"/><polygon class="cls-1" points="245.77 204.62 246.9 208.02 244.52 210.7 241.01 209.97 239.88 206.57 242.26 203.89 245.77 204.62"/><polygon class="cls-1" points="244.18 194.52 245.31 197.92 242.93 200.6 239.42 199.87 238.29 196.47 240.67 193.8 244.18 194.52"/><polygon class="cls-1" points="251.65 199.43 252.78 202.83 250.39 205.51 246.89 204.78 245.76 201.38 248.14 198.71 251.65 199.43"/><polygon class="cls-1" points="251.69 189.99 252.81 193.39 250.43 196.07 246.92 195.34 245.8 191.94 248.18 189.27 251.69 189.99"/><polygon class="cls-1" points="251.06 182.18 252.19 185.58 249.81 188.26 246.3 187.53 245.17 184.13 247.55 181.45 251.06 182.18"/><polygon class="cls-1" points="258.66 195.93 259.79 199.33 257.41 202 253.9 201.28 252.77 197.88 255.15 195.2 258.66 195.93"/><polygon class="cls-1" points="258.7 186.49 259.82 189.89 257.44 192.56 253.93 191.84 252.81 188.44 255.19 185.76 258.7 186.49"/><polygon class="cls-1" points="259.83 176.92 260.95 180.32 258.57 183 255.06 182.27 253.94 178.87 256.32 176.2 259.83 176.92"/><polygon class="cls-1" points="265.67 194.17 266.8 197.57 264.42 200.25 260.91 199.53 259.78 196.13 262.17 193.45 265.67 194.17"/><polygon class="cls-1" points="267.46 186.49 268.59 189.89 266.21 192.56 262.7 191.84 261.57 188.44 263.95 185.76 267.46 186.49"/><polygon class="cls-1" points="268.59 176.92 269.72 180.32 267.34 183 263.83 182.27 262.7 178.87 265.08 176.2 268.59 176.92"/><polygon class="cls-1" points="243.56 186.71 244.69 190.11 242.3 192.78 238.8 192.06 237.67 188.66 240.05 185.98 243.56 186.71"/><polygon class="cls-1" points="248.82 173.71 249.94 177.11 247.56 179.78 244.05 179.06 242.93 175.66 245.31 172.98 248.82 173.71"/><polygon class="cls-1" points="236.09 181.8 237.22 185.2 234.84 187.87 231.33 187.15 230.2 183.75 232.58 181.07 236.09 181.8"/><polygon class="cls-1" points="242.94 178.89 244.06 182.29 241.68 184.97 238.17 184.25 237.05 180.84 239.43 178.17 242.94 178.89"/><polygon class="cls-1" points="236.06 191.24 237.18 194.64 234.8 197.31 231.29 196.59 230.17 193.19 232.55 190.51 236.06 191.24"/><polygon class="cls-1" points="230.18 196.42 231.3 199.82 228.92 202.5 225.41 201.78 224.29 198.38 226.67 195.7 230.18 196.42"/><polygon class="cls-1" points="237.65 201.33 238.77 204.73 236.39 207.41 232.88 206.69 231.76 203.29 234.14 200.61 237.65 201.33"/><polygon class="cls-1" points="239.24 211.43 240.36 214.83 237.98 217.51 234.47 216.78 233.35 213.38 235.73 210.71 239.24 211.43"/><polygon class="cls-1" points="230.14 205.86 231.27 209.26 228.89 211.94 225.38 211.22 224.25 207.81 226.64 205.14 230.14 205.86"/><polygon class="cls-1" points="231.73 215.96 232.86 219.36 230.48 222.04 226.97 221.31 225.84 217.91 228.23 215.24 231.73 215.96"/><polygon class="cls-1" points="227.33 178.29 228.45 181.69 226.07 184.37 222.56 183.64 221.44 180.24 223.82 177.57 227.33 178.29"/><polygon class="cls-1" points="227.29 187.73 228.42 191.13 226.04 193.81 222.53 193.08 221.4 189.68 223.78 187.01 227.29 187.73"/><polygon class="cls-1" points="221.41 192.92 222.54 196.32 220.16 198.99 216.65 198.27 215.52 194.87 217.91 192.19 221.41 192.92"/><polygon class="cls-1" points="221.38 202.36 222.5 205.76 220.12 208.43 216.62 207.71 215.49 204.31 217.87 201.63 221.38 202.36"/><polygon class="cls-1" points="222.97 212.45 224.1 215.86 221.71 218.53 218.21 217.81 217.08 214.41 219.46 211.73 222.97 212.45"/><polygon class="cls-1" points="216.81 173.03 217.94 176.43 215.55 179.11 212.05 178.39 210.92 174.98 213.3 172.31 216.81 173.03"/><polygon class="cls-1" points="216.81 164.27 217.94 167.67 215.55 170.35 212.05 169.62 210.92 166.22 213.3 163.54 216.81 164.27"/><polygon class="cls-1" points="216.81 155.51 217.94 158.91 215.55 161.58 212.05 160.86 210.92 157.46 213.3 154.78 216.81 155.51"/><polygon class="cls-1" points="225.57 152 226.7 155.4 224.32 158.08 220.81 157.35 219.68 153.95 222.07 151.27 225.57 152"/><polygon class="cls-1" points="232.59 144.99 233.71 148.39 231.33 151.06 227.82 150.34 226.7 146.94 229.08 144.26 232.59 144.99"/><polygon class="cls-1" points="227.33 160.76 228.45 164.16 226.07 166.84 222.56 166.11 221.44 162.71 223.82 160.04 227.33 160.76"/><polygon class="cls-1" points="230.83 169.53 231.96 172.93 229.58 175.6 226.07 174.88 224.94 171.48 227.32 168.8 230.83 169.53"/><polygon class="cls-1" points="223.82 169.53 224.95 172.93 222.57 175.6 219.06 174.88 217.93 171.48 220.31 168.8 223.82 169.53"/><polygon class="cls-1" points="216.77 182.47 217.9 185.87 215.52 188.55 212.01 187.82 210.88 184.42 213.27 181.75 216.77 182.47"/><polygon class="cls-1" points="210.9 187.66 212.02 191.06 209.64 193.74 206.13 193.01 205.01 189.61 207.39 186.94 210.9 187.66"/><polygon class="cls-1" points="210.86 197.1 211.99 200.5 209.61 203.18 206.1 202.45 204.97 199.05 207.35 196.37 210.86 197.1"/><polygon class="cls-1" points="202.13 184.15 203.26 187.55 200.88 190.23 197.37 189.51 196.24 186.1 198.62 183.43 202.13 184.15"/><polygon class="cls-1" points="202.1 193.59 203.22 196.99 200.84 199.67 197.33 198.94 196.21 195.54 198.59 192.87 202.1 193.59"/><polygon class="cls-1" points="202.1 202.36 203.22 205.76 200.84 208.43 197.33 207.71 196.21 204.31 198.59 201.63 202.1 202.36"/><polygon class="cls-1" points="205.6 209.37 206.73 212.77 204.35 215.45 200.84 214.72 199.71 211.32 202.09 208.64 205.6 209.37"/><polygon class="cls-1" points="193.37 182.4 194.49 185.8 192.11 188.48 188.6 187.75 187.48 184.35 189.86 181.68 193.37 182.4"/><polygon class="cls-1" points="200.38 177.14 201.51 180.54 199.12 183.22 195.62 182.49 194.49 179.09 196.87 176.42 200.38 177.14"/><polygon class="cls-1" points="186.36 184.15 187.48 187.55 185.1 190.23 181.59 189.51 180.47 186.1 182.85 183.43 186.36 184.15"/><polygon class="cls-1" points="193.33 191.84 194.46 195.24 192.08 197.92 188.57 197.19 187.44 193.79 189.82 191.12 193.33 191.84"/><polygon class="cls-1" points="209.14 168.38 210.27 171.78 207.89 174.45 204.38 173.73 203.25 170.33 205.64 167.65 209.14 168.38"/><polygon class="cls-1" points="209.11 177.82 210.23 181.22 207.85 183.89 204.35 183.17 203.22 179.77 205.6 177.09 209.11 177.82"/><polygon class="cls-1" points="212.45 207.2 213.58 210.6 211.2 213.27 207.69 212.55 206.56 209.15 208.94 206.47 212.45 207.2"/><polygon class="cls-1" points="243.1 137.98 244.23 141.38 241.85 144.05 238.34 143.33 237.21 139.93 239.59 137.25 243.1 137.98"/><polygon class="cls-1" points="243.07 147.42 244.19 150.82 241.81 153.49 238.3 152.77 237.18 149.37 239.56 146.69 243.07 147.42"/><polygon class="cls-1" points="237.19 152.6 238.32 156 235.93 158.68 232.43 157.95 231.3 154.55 233.68 151.88 237.19 152.6"/><polygon class="cls-1" points="237.15 162.04 238.28 165.44 235.9 168.12 232.39 167.39 231.27 163.99 233.65 161.32 237.15 162.04"/><polygon class="cls-1" points="238.75 172.14 239.87 175.54 237.49 178.21 233.98 177.49 232.86 174.09 235.24 171.41 238.75 172.14"/></g></g></svg>