<?xml version="1.0" encoding="UTF-8"?><svg id="Layer_2" xmlns="http://www.w3.org/2000/svg" viewBox="0 0 1009.17 272.63"><defs><style>.cls-1{stroke-width:2px;}.cls-1,.cls-2,.cls-3,.cls-4,.cls-5,.cls-6,.cls-7{stroke:#000;stroke-miterlimit:10;}.cls-1,.cls-3{fill:#a9f6a3;}.cls-2{fill:#e7d423;}.cls-3,.cls-4,.cls-5,.cls-6,.cls-7{stroke-width:3px;}.cls-4{fill:#cd8632;}.cls-5{fill:#2d2d2b;}.cls-6{fill:#fff;}.cls-7{fill:#00b100;}</style></defs><g id="Layer_1-2"><g><g><rect class="cls-4" x="115.67" y="2.13" width="83" height="266" rx="40.82" ry="40.82"/><path class="cls-7" d="M6.79,111.4C-31.13,83.17,146.7-9.13,162.46,2.51s-5.43,186.62-47.28,223.11C73.32,262.1,44.7,139.63,6.79,111.4Z"/><circle class="cls-6" cx="115.51" cy="58.79" r="31"/><circle class="cls-3" cx="120.68" cy="49" r="13.94"/><path class="cls-7" d="M1.83,104.44s32.22-14.04,63.57-9.11c31.35,4.94,85.91,20.92,85.91,20.92"/><path class="cls-6" d="M65.8,40.38s-.85-34.5,30.44-16.85"/><path class="cls-1" d="M84.59,20.2c-.08,10.06-15.92,8.94-15.92,8.94,0,0,2.46-7.01,5.53-8.94,6.47-4.06,10.39,0,10.39,0Z"/></g><g><path class="cls-7" d="M396.79,124.4c-37.92-28.23,139.91-120.53,155.67-108.89s-5.43,186.62-47.28,223.11c-41.85,36.49-70.47-85.98-108.39-114.21Z"/><circle class="cls-6" cx="505.51" cy="71.79" r="31"/><circle class="cls-3" cx="499.68" cy="72" r="13.94"/><path class="cls-7" d="M391.83,117.44s32.22-14.04,63.57-9.11c31.35,4.94,85.91,20.92,85.91,20.92"/><path class="cls-6" d="M455.8,53.38s-.85-34.5,30.44-16.85"/><path class="cls-1" d="M474.59,33.2c-.08,10.06-15.92,8.94-15.92,8.94,0,0,2.46-7.01,5.53-8.94,6.47-4.06,10.39,0,10.39,0Z"/><circle class="cls-2" cx="536.17" cy="18.63" r="5.5"/><circle class="cls-2" cx="547.17" cy="22.63" r="5.5"/><circle class="cls-2" cx="542.17" cy="23.63" r="5.5"/><circle class="cls-2" cx="543.17" cy="16.63" r="5.5"/><circle class="cls-2" cx="549.17" cy="16.63" r="5.5"/><circle class="cls-2" cx="554.17" cy="21.63" r="5.5"/><circle class="cls-2" cx="555.17" cy="28.63" r="5.5"/><circle class="cls-2" cx="548.17" cy="27.63" r="5.5"/><circle class="cls-2" cx="558.17" cy="43.63" r="5.5"/><circle class="cls-2" cx="558.17" cy="36.63" r="5.5"/><circle class="cls-2" cx="552.17" cy="33.63" r="5.5"/><circle class="cls-2" cx="561.17" cy="30.63" r="5.5"/><circle class="cls-2" cx="561.17" cy="24.63" r="5.5"/><circle class="cls-2" cx="559.17" cy="19.63" r="5.5"/><circle class="cls-2" cx="556.17" cy="12.63" r="5.5"/><circle class="cls-2" cx="561.17" cy="45.63" r="5.5"/><circle class="cls-2" cx="559.17" cy="52.63" r="5.5"/><circle class="cls-2" cx="561.17" cy="39.63" r="5.5"/><circle class="cls-2" cx="559.17" cy="34.63" r="5.5"/><circle class="cls-2" cx="556.17" cy="27.63" r="5.5"/><circle class="cls-2" cx="557.17" cy="33.63" r="5.5"/><circle class="cls-2" cx="557.17" cy="27.63" r="5.5"/><circle class="cls-2" cx="555.17" cy="22.63" r="5.5"/><circle class="cls-2" cx="552.17" cy="15.63" r="5.5"/><circle class="cls-2" cx="550.17" cy="34.63" r="5.5"/><circle class="cls-2" cx="550.17" cy="28.63" r="5.5"/><circle class="cls-2" cx="548.17" cy="23.63" r="5.5"/><circle class="cls-2" cx="545.17" cy="16.63" r="5.5"/><circle class="cls-2" cx="561.17" cy="37.63" r="5.5"/><circle class="cls-2" cx="557.17" cy="40.63" r="5.5"/><circle class="cls-2" cx="555.17" cy="53.63" r="5.5"/><circle class="cls-2" cx="557.17" cy="56.63" r="5.5"/><circle class="cls-2" cx="555.17" cy="63.63" r="5.5"/><circle class="cls-2" cx="551.17" cy="64.63" r="5.5"/><circle class="cls-2" cx="555.17" cy="45.63" r="5.5"/><circle class="cls-2" cx="553.17" cy="52.63" r="5.5"/><circle class="cls-2" cx="549.17" cy="53.63" r="5.5"/><circle class="cls-2" cx="553.17" cy="38.63" r="5.5"/><circle class="cls-2" cx="551.17" cy="45.63" r="5.5"/><circle class="cls-2" cx="547.17" cy="46.63" r="5.5"/><circle class="cls-2" cx="550.17" cy="41.63" r="5.5"/><circle class="cls-2" cx="541.17" cy="29.63" r="5.5"/><circle class="cls-2" cx="546.17" cy="8.63" r="5.5"/><circle class="cls-2" cx="539.17" cy="22.63" r="5.5"/><circle class="cls-2" cx="540.17" cy="8.63" r="5.5"/><circle class="cls-2" cx="536.17" cy="11.63" r="5.5"/><circle class="cls-2" cx="531.17" cy="12.63" r="5.5"/><circle class="cls-2" cx="526.17" cy="12.63" r="5.5"/><circle class="cls-2" cx="526.17" cy="18.63" r="5.5"/><circle class="cls-2" cx="528.17" cy="21.63" r="5.5"/><circle class="cls-2" cx="533.17" cy="21.63" r="5.5"/><circle class="cls-2" cx="533.17" cy="25.63" r="5.5"/><circle class="cls-2" cx="533.17" cy="9.63" r="5.5"/><circle class="cls-2" cx="529.17" cy="12.63" r="5.5"/><circle class="cls-2" cx="524.17" cy="13.63" r="5.5"/><circle class="cls-2" cx="519.17" cy="13.63" r="5.5"/><circle class="cls-2" cx="519.17" cy="19.63" r="5.5"/><circle class="cls-2" cx="521.17" cy="22.63" r="5.5"/><circle class="cls-2" cx="526.17" cy="22.63" r="5.5"/><circle class="cls-2" cx="526.17" cy="26.63" r="5.5"/><circle class="cls-2" cx="541.17" cy="18.63" r="5.5"/><circle class="cls-2" cx="537.17" cy="21.63" r="5.5"/><circle class="cls-2" cx="532.17" cy="22.63" r="5.5"/><circle class="cls-2" cx="527.17" cy="22.63" r="5.5"/><circle class="cls-2" cx="527.17" cy="28.63" r="5.5"/><circle class="cls-2" cx="529.17" cy="31.63" r="5.5"/><circle class="cls-2" cx="534.17" cy="31.63" r="5.5"/><circle class="cls-2" cx="534.17" cy="35.63" r="5.5"/><circle class="cls-2" cx="551.17" cy="25.63" r="5.5"/><circle class="cls-2" cx="547.17" cy="28.63" r="5.5"/><circle class="cls-2" cx="542.17" cy="29.63" r="5.5"/><circle class="cls-2" cx="537.17" cy="29.63" r="5.5"/><circle class="cls-2" cx="537.17" cy="35.63" r="5.5"/><circle class="cls-2" cx="539.17" cy="38.63" r="5.5"/><circle class="cls-2" cx="544.17" cy="38.63" r="5.5"/><circle class="cls-2" cx="544.17" cy="42.63" r="5.5"/><circle class="cls-2" cx="558.17" cy="28.63" r="5.5"/><circle class="cls-2" cx="554.17" cy="31.63" r="5.5"/><circle class="cls-2" cx="549.17" cy="32.63" r="5.5"/><circle class="cls-2" cx="544.17" cy="32.63" r="5.5"/><circle class="cls-2" cx="544.17" cy="38.63" r="5.5"/><circle class="cls-2" cx="546.17" cy="41.63" r="5.5"/><circle class="cls-2" cx="551.17" cy="41.63" r="5.5"/><circle class="cls-2" cx="551.17" cy="45.63" r="5.5"/><circle class="cls-2" cx="544.17" cy="33.63" r="5.5"/><circle class="cls-2" cx="568.17" cy="46.63" r="5.5"/><circle class="cls-2" cx="566.17" cy="41.63" r="5.5"/><circle class="cls-2" cx="563.17" cy="34.63" r="5.5"/><circle class="cls-2" cx="559.17" cy="37.63" r="5.5"/><circle class="cls-2" cx="565.17" cy="50.63" r="5.5"/><circle class="cls-2" cx="556.17" cy="54.63" r="5.5"/><circle class="cls-2" cx="551.17" cy="55.63" r="5.5"/><circle class="cls-2" cx="571.17" cy="57.63" r="5.5"/><circle class="cls-2" cx="569.17" cy="52.63" r="5.5"/><circle class="cls-2" cx="566.17" cy="45.63" r="5.5"/><circle class="cls-2" cx="562.17" cy="48.63" r="5.5"/><circle class="cls-2" cx="568.17" cy="61.63" r="5.5"/><circle class="cls-2" cx="559.17" cy="65.63" r="5.5"/><circle class="cls-2" cx="554.17" cy="66.63" r="5.5"/><circle class="cls-2" cx="572.17" cy="63.63" r="5.5"/><circle class="cls-2" cx="570.17" cy="58.63" r="5.5"/><circle class="cls-2" cx="567.17" cy="51.63" r="5.5"/><circle class="cls-2" cx="563.17" cy="54.63" r="5.5"/><circle class="cls-2" cx="569.17" cy="67.63" r="5.5"/><circle class="cls-2" cx="560.17" cy="71.63" r="5.5"/><circle class="cls-2" cx="555.17" cy="72.63" r="5.5"/><circle class="cls-2" cx="572.17" cy="70.63" r="5.5"/><circle class="cls-2" cx="570.17" cy="65.63" r="5.5"/><circle class="cls-2" cx="567.17" cy="58.63" r="5.5"/><circle class="cls-2" cx="563.17" cy="61.63" r="5.5"/><circle class="cls-2" cx="569.17" cy="74.63" r="5.5"/><circle class="cls-2" cx="560.17" cy="78.63" r="5.5"/><circle class="cls-2" cx="555.17" cy="79.63" r="5.5"/><circle class="cls-2" cx="575.17" cy="77.63" r="5.5"/><circle class="cls-2" cx="573.17" cy="72.63" r="5.5"/><circle class="cls-2" cx="572.17" cy="81.63" r="5.5"/><circle class="cls-2" cx="563.17" cy="85.63" r="5.5"/><circle class="cls-2" cx="558.17" cy="86.63" r="5.5"/><circle class="cls-2" cx="576.17" cy="83.63" r="5.5"/><circle class="cls-2" cx="574.17" cy="78.63" r="5.5"/><circle class="cls-2" cx="573.17" cy="87.63" r="5.5"/><circle class="cls-2" cx="564.17" cy="91.63" r="5.5"/><circle class="cls-2" cx="559.17" cy="92.63" r="5.5"/><circle class="cls-2" cx="577.17" cy="90.63" r="5.5"/><circle class="cls-2" cx="575.17" cy="85.63" r="5.5"/><circle class="cls-2" cx="574.17" cy="94.63" r="5.5"/><circle class="cls-2" cx="565.17" cy="98.63" r="5.5"/><circle class="cls-2" cx="560.17" cy="99.63" r="5.5"/><circle class="cls-2" cx="575.17" cy="93.63" r="5.5"/><circle class="cls-2" cx="573.17" cy="88.63" r="5.5"/><circle class="cls-2" cx="572.17" cy="97.63" r="5.5"/><circle class="cls-2" cx="563.17" cy="86.63" r="5.5"/><circle class="cls-2" cx="576.17" cy="80.63" r="5.5"/><circle class="cls-2" cx="566.17" cy="93.63" r="5.5"/><circle class="cls-2" cx="577.17" cy="86.63" r="5.5"/><circle class="cls-2" cx="567.17" cy="99.63" r="5.5"/><circle class="cls-2" cx="562.17" cy="100.63" r="5.5"/><circle class="cls-2" cx="578.17" cy="93.63" r="5.5"/><circle class="cls-2" cx="576.17" cy="96.63" r="5.5"/><circle class="cls-2" cx="575.17" cy="105.63" r="5.5"/><circle class="cls-2" cx="559.17" cy="93.63" r="5.5"/><circle class="cls-2" cx="572.17" cy="87.63" r="5.5"/><circle class="cls-2" cx="562.17" cy="100.63" r="5.5"/><circle class="cls-2" cx="573.17" cy="93.63" r="5.5"/><circle class="cls-2" cx="563.17" cy="106.63" r="5.5"/><circle class="cls-2" cx="558.17" cy="107.63" r="5.5"/><circle class="cls-2" cx="574.17" cy="100.63" r="5.5"/><circle class="cls-2" cx="572.17" cy="103.63" r="5.5"/><circle class="cls-2" cx="571.17" cy="112.63" r="5.5"/><circle class="cls-2" cx="556.17" cy="93.63" r="5.5"/><circle class="cls-2" cx="569.17" cy="87.63" r="5.5"/><circle class="cls-2" cx="559.17" cy="100.63" r="5.5"/><circle class="cls-2" cx="570.17" cy="93.63" r="5.5"/><circle class="cls-2" cx="560.17" cy="106.63" r="5.5"/><circle class="cls-2" cx="555.17" cy="107.63" r="5.5"/><circle class="cls-2" cx="571.17" cy="100.63" r="5.5"/><circle class="cls-2" cx="569.17" cy="103.63" r="5.5"/><circle class="cls-2" cx="568.17" cy="112.63" r="5.5"/><circle class="cls-2" cx="563.17" cy="96.63" r="5.5"/><circle class="cls-2" cx="576.17" cy="90.63" r="5.5"/><circle class="cls-2" cx="566.17" cy="103.63" r="5.5"/><circle class="cls-2" cx="577.17" cy="96.63" r="5.5"/><circle class="cls-2" cx="567.17" cy="109.63" r="5.5"/><circle class="cls-2" cx="562.17" cy="110.63" r="5.5"/><circle class="cls-2" cx="578.17" cy="103.63" r="5.5"/><circle class="cls-2" cx="576.17" cy="106.63" r="5.5"/><circle class="cls-2" cx="575.17" cy="115.63" r="5.5"/><circle class="cls-2" cx="564.17" cy="103.63" r="5.5"/><circle class="cls-2" cx="577.17" cy="97.63" r="5.5"/><circle class="cls-2" cx="567.17" cy="110.63" r="5.5"/><circle class="cls-2" cx="578.17" cy="103.63" r="5.5"/><circle class="cls-2" cx="572.17" cy="123.63" r="5.5"/><circle class="cls-2" cx="568.17" cy="116.63" r="5.5"/><circle class="cls-2" cx="563.17" cy="117.63" r="5.5"/><circle class="cls-2" cx="579.17" cy="110.63" r="5.5"/><circle class="cls-2" cx="577.17" cy="113.63" r="5.5"/><circle class="cls-2" cx="576.17" cy="122.63" r="5.5"/><circle class="cls-2" cx="570.17" cy="119.63" r="5.5"/><circle class="cls-2" cx="563.17" cy="101.63" r="5.5"/><circle class="cls-2" cx="558.17" cy="102.63" r="5.5"/></g><g><rect class="cls-5" x="924.67" y="5.13" width="83" height="266" rx="40.82" ry="40.82"/><path class="cls-7" d="M815.79,114.4c-37.92-28.23,139.91-120.53,155.67-108.89s-5.43,186.62-47.28,223.11c-41.85,36.49-70.47-85.98-108.39-114.21Z"/><circle class="cls-6" cx="924.51" cy="61.79" r="31"/><circle class="cls-3" cx="918.68" cy="70" r="13.94"/><path class="cls-7" d="M810.83,107.44s32.22-14.04,63.57-9.11c31.35,4.94,85.91,20.92,85.91,20.92"/><path class="cls-6" d="M874.8,43.38s-.85-34.5,30.44-16.85"/><path class="cls-1" d="M893.59,23.2c-.08,10.06-15.92,8.94-15.92,8.94,0,0,2.46-7.01,5.53-8.94,6.47-4.06,10.39,0,10.39,0Z"/></g></g></g></svg>